<svg xmlns="http://www.w3.org/2000/svg" viewBox="0 0 3000 2400" width="3000" height="2400"><g transform="translate(2643.0 1290.0) rotate(0.0 121.5 222.0) scale(3.7229397435308176 3.697411811731788)"><svg width="65.271" height="120.084" viewBox="0 0 65.271 120.084"><g><g><path style="fill:#5c0b86" d="m.75 119.334 63.771-26.635L49.356.75h-24.39z"/><path style="fill:#5c0b86" d="M.75 120.083a.748.748 0 0 1-.735-.9L24.231.6a.75.75 0 0 1 .735-.6h24.39a.75.75 0 0 1 .74.628l15.165 91.948a.75.75 0 0 1-.451.814L1.039 120.026a.745.745 0 0 1-.289.057zM25.578 1.5 1.768 118.095l61.916-25.86L48.719 1.5H25.578z"/></g></g></svg></g><g transform="translate(1092.0 1548.0) rotate(0.0 699.0 376.5) scale(3.016988363661476 3.0158844591834284)"><svg width="463.376" height="249.678" viewBox="0 0 463.376 249.678"><path d="M282.285.75c-14.757 5.095-105.708 37.028-125.194 45.906S5.553 109.675.75 112.649c15.055 9.315 56.776 38.46 76.861 52.866s52.292 33.795 70.135 45.868 51.148 32.377 55.678 37.545c20.949-9.519 121.944-53.727 139.966-61.965 18.022-8.237 114.015-60.108 119.236-62.613-19.528-12.427-93.042-66.105-111.117-78.664S287.638 3.814 282.285.75z" fill="#fff"/><path d="M203.424 249.679a.748.748 0 0 1-.564-.256c-2.933-3.347-18.676-13.485-33.9-23.29-7.676-4.943-15.613-10.055-21.634-14.129-7.132-4.826-16.592-10.841-26.608-17.21-14.756-9.382-31.48-20.017-43.544-28.67-19.333-13.867-61.537-43.382-76.818-52.837a.749.749 0 0 1-.001-1.276c2.599-1.609 39.901-17.146 79.393-33.596 33.38-13.903 67.896-28.28 77.032-32.443C176.555 36.962 268.803 4.61 282.04.04a.746.746 0 0 1 .617.058c5.258 3.009 51.258 32.45 69.279 44.972 6.18 4.294 18.878 13.421 33.582 23.991 28.812 20.711 64.671 46.486 77.51 54.656a.75.75 0 0 1-.078 1.309c-1.61.772-11.891 6.261-26.12 13.857-32.133 17.154-80.693 43.077-93.129 48.762-9.078 4.149-39.809 17.69-69.527 30.785-29.519 13.007-60.043 26.457-70.44 31.181a.738.738 0 0 1-.31.068zM2.271 112.714c16.161 10.154 56.885 38.641 75.777 52.191 12.03 8.628 28.735 19.251 43.475 28.623 10.025 6.375 19.494 12.396 26.643 17.233 6.007 4.064 13.937 9.171 21.606 14.11 15.43 9.937 30.035 19.342 33.831 23.152 10.844-4.916 40.893-18.156 69.967-30.966 29.714-13.093 60.439-26.631 69.508-30.776 12.394-5.666 60.929-31.576 93.046-48.721 12.253-6.542 21.582-11.521 24.995-13.287-13.722-8.887-48.434-33.838-76.475-53.994-14.699-10.565-27.393-19.69-33.563-23.978-17.701-12.298-62.411-40.93-68.876-44.73C267.866 6.53 176.97 38.423 157.403 47.338c-9.159 4.173-43.686 18.554-77.077 32.462-34.93 14.549-70.962 29.557-78.055 32.914z" fill="#5c0b86"/><path d="M325.054 115.722c-11.938-17.079-34.211-31.196-60.85-40.25l-13.009 15.976c18.805 6.331 34.547 16.277 42.941 28.36l30.903-4.091-30.903 4.091.005.007c8.426 12.135 8 24.34.387 34.291l31.536 10.384c10.596-14.228 10.998-31.587-1.01-48.768z" fill="#fff"/><path d="M326.063 165.24a.73.73 0 0 1-.234-.038l-31.536-10.384a.75.75 0 0 1-.361-1.168c7.702-10.067 7.559-21.929-.402-33.4l-.01-.015c-8.037-11.571-23.154-21.542-42.564-28.077a.752.752 0 0 1-.342-1.185l13.009-15.976a.753.753 0 0 1 .823-.236c27.821 9.455 49.564 23.849 61.224 40.53 11.854 16.96 12.208 34.591.996 49.646a.753.753 0 0 1-.603.303zm-30.315-11.521 30.033 9.889c10.389-14.292 10.006-30.977-1.087-47.088l-29.26 3.874c7.484 11.395 7.604 23.167.314 33.325zm-43.291-62.632c19.017 6.57 33.894 16.449 42.031 27.918l29.227-3.869c-11.573-15.893-32.542-29.625-59.259-38.785z" fill="#5c0b86"/><path d="m237.898 155.617 13.216 19.338c20.684-3.04 35.72-10.793 43.414-20.85l-31.407-10.342c-4.527 5.764-13.277 10.173-25.223 11.854z" fill="#fff"/><path d="M251.114 175.705a.751.751 0 0 1-.619-.327l-13.216-19.338a.75.75 0 0 1 .515-1.166c11.344-1.597 20.129-5.707 24.737-11.574a.75.75 0 0 1 .824-.249l31.407 10.342a.75.75 0 0 1 .361 1.168c-8.162 10.668-23.753 18.174-43.9 21.136a.675.675 0 0 1-.109.008zm-11.922-19.523 12.276 17.962c19.001-2.869 33.778-9.826 41.806-19.661l-29.896-9.844c-4.754 5.746-13.287 9.815-24.186 11.543z" fill="#5c0b86"/><path d="M263.079 123.927c4.864 7.051 4.538 14.112.041 19.837l31.407 10.342c7.613-9.951 8.039-22.156-.387-34.291l-.005-.007-31.061 4.112.005.007z" fill="#5c0b86"/><path d="M294.527 154.856a.73.73 0 0 1-.234-.038l-31.407-10.342a.748.748 0 0 1-.355-1.176c4.462-5.681 4.44-12.407-.062-18.94a.751.751 0 0 1 .508-1.184l31.061-4.112a.746.746 0 0 1 .746.365c8.342 12.011 8.472 24.502.34 35.132a.75.75 0 0 1-.597.295zm-30.184-11.479 29.909 9.849c7.298-9.869 7.132-21.417-.474-32.614l-29.421 3.895c4.041 6.484 4.037 13.112-.014 18.87z" fill="#5c0b86"/><path d="m220.122 129.607 18.02-22.129c-10.958-3.654-23.697-5.172-35.662-3.685z" fill="#fff"/><path d="M220.122 130.357h-.031a.753.753 0 0 1-.588-.326l-17.642-25.814a.748.748 0 0 1 .527-1.168c11.671-1.45 24.453-.129 35.991 3.718a.75.75 0 0 1 .344 1.185l-18.02 22.129a.748.748 0 0 1-.581.276zM203.8 104.395l16.374 23.959 16.695-20.502c-10.649-3.388-22.301-4.606-33.069-3.457z" fill="#5c0b86"/><path d="M263.074 123.92c-4.855-7.033-14.009-12.799-24.933-16.442l-18.02 22.129z" fill="#fff"/><path d="M220.122 130.357a.752.752 0 0 1-.582-1.223l18.02-22.129a.751.751 0 0 1 .819-.238c11.532 3.846 20.521 9.787 25.312 16.728a.75.75 0 0 1-.519 1.169l-42.952 5.687a.818.818 0 0 1-.098.006zm18.273-22.002-16.498 20.26 39.831-5.273c-4.693-6.149-12.908-11.433-23.333-14.987z" fill="#5c0b86"/><path d="M237.898 155.617c11.946-1.681 20.696-6.09 25.222-11.853l-42.998-14.158z" fill="#fff"/><path d="M237.898 156.368a.751.751 0 0 1-.619-.327l-17.776-26.011a.751.751 0 0 1 .854-1.136l42.998 14.158a.748.748 0 0 1 .355 1.176c-4.848 6.173-13.978 10.481-25.707 12.132a.742.742 0 0 1-.105.008zm-15.907-25.356 16.263 23.797c10.582-1.562 18.889-5.33 23.586-10.676z" fill="#5c0b86"/><path d="m220.122 129.607 42.998 14.158c4.497-5.725 4.823-12.786-.041-19.837l-.005-.007z" fill="#86d1fd"/><path d="M263.12 144.515a.73.73 0 0 1-.234-.038l-42.998-14.158a.75.75 0 0 1 .136-1.456l42.952-5.687a.748.748 0 0 1 .727.335c4.906 7.112 4.911 14.473.007 20.716a.75.75 0 0 1-.59.288zm-39.649-14.595 39.376 12.965c4.062-5.485 4.016-11.901-.134-18.161z" fill="#86d1fd"/><path d="m189.516 84.823-13.075-19.132c-30.141 3.384-53.064 13.673-65.622 27.631l33.163 11.215c8.554-9.876 24.443-17.22 45.534-19.714z" fill="#fff"/><path d="M143.983 105.287a.741.741 0 0 1-.24-.04l-33.164-11.215a.75.75 0 0 1-.317-1.212c13.2-14.672 36.673-24.572 66.096-27.875a.746.746 0 0 1 .703.322l13.075 19.132a.75.75 0 0 1-.532 1.168c-20.261 2.396-36.261 9.308-45.055 19.461a.744.744 0 0 1-.566.259zm-31.831-12.306 31.598 10.686c8.92-10.023 24.647-16.896 44.453-19.438l-12.125-17.742c-28.279 3.246-50.904 12.632-63.926 26.494z" fill="#5c0b86"/><path d="M143.983 104.537 110.82 93.322c-12.886 14.323-14.857 32.51-2.481 51.077l34.425-4.551c-8.575-12.765-7.425-25.331 1.219-35.311z" fill="#fff"/><path d="M108.338 145.149a.75.75 0 0 1-.624-.334c-12.138-18.211-11.234-36.676 2.547-51.994a.744.744 0 0 1 .798-.209l33.164 11.215a.75.75 0 0 1 .327 1.202c-8.815 10.178-9.229 22.396-1.164 34.402a.749.749 0 0 1-.524 1.162l-34.425 4.551a1.094 1.094 0 0 1-.099.005zm2.711-50.957c-12.867 14.578-13.699 32.089-2.344 49.402l32.779-4.333c-7.58-11.964-7.151-24.091 1.218-34.365z" fill="#5c0b86"/><path d="m187.74 169.373-13.93 17.791c28.213 8.902 60.761 12.105 90.773 7.501l-13.47-19.709c-21.026 3.09-43.745.729-63.373-5.583z" fill="#fff"/><path d="M236.224 197.523c-20.913 0-42.426-3.267-62.639-9.645a.751.751 0 0 1-.365-1.178l13.93-17.791a.745.745 0 0 1 .82-.251c20.395 6.559 42.781 8.532 63.035 5.554a.751.751 0 0 1 .728.319l13.47 19.709a.75.75 0 0 1-.505 1.164c-9.236 1.419-18.792 2.119-28.474 2.119zm-61.154-10.752c28.677 8.878 59.908 11.471 88.219 7.329l-12.531-18.335c-20.188 2.889-42.431.932-62.749-5.519zm76.125-95.322 13.009-15.976c-26.854-9.127-58.145-13.107-87.763-9.781l13.075 19.132c20.755-2.455 42.766.257 61.679 6.625z" fill="#5c0b86"/><path d="M251.195 92.199a.757.757 0 0 1-.239-.039c-19.626-6.608-41.414-8.948-61.351-6.592a.746.746 0 0 1-.707-.321l-13.075-19.132a.75.75 0 0 1 .536-1.169c28.697-3.223 59.98.264 88.088 9.817a.75.75 0 0 1 .34 1.184l-13.009 15.976a.76.76 0 0 1-.583.276zm-46.122-9.025c15.377 0 31.208 2.525 45.868 7.399l11.999-14.735c-27.231-9.087-57.381-12.461-85.172-9.537l12.113 17.724c4.971-.57 10.057-.851 15.192-.851z" fill="#5c0b86"/><path d="m189.516 84.823 12.964 18.969c11.965-1.486 24.703.031 35.662 3.685l13.053-16.029c-18.913-6.367-40.924-9.079-61.679-6.625z" fill="#fff"/><path d="M238.142 108.228a.75.75 0 0 1-.237-.039c-11.33-3.778-23.878-5.075-35.332-3.653a.748.748 0 0 1-.712-.321l-12.964-18.97a.75.75 0 0 1 .532-1.168c20.153-2.383 42.173-.018 62.006 6.66a.752.752 0 0 1 .342 1.185l-13.053 16.029a.75.75 0 0 1-.582.277zm-26.295-5.754c8.721 0 17.694 1.407 26.039 4.129l12.041-14.786c-18.951-6.214-39.839-8.474-59.089-6.39l12.004 17.565a77.3 77.3 0 0 1 9.005-.518zm8.295 27.883c-.414 0-.755-.336-.755-.75s.331-.75.745-.75h.01a.75.75 0 0 1 0 1.5z" fill="#5c0b86"/><path d="M176.562 115.264c-4.841 5.735-5.408 12.916-.498 20.176l44.058-5.833z" fill="#fff"/><path d="M176.064 136.19a.75.75 0 0 1-.621-.33c-4.948-7.315-4.754-14.801.546-21.08a.751.751 0 0 1 .808-.229l43.56 14.343a.75.75 0 0 1-.136 1.456l-44.058 5.833a.66.66 0 0 1-.099.007zm.751-20.053c-4.424 5.529-4.561 12.064-.385 18.498l40.343-5.341z" fill="#5c0b86"/><path d="M220.142 130.357c-.414 0-.755-.336-.755-.75s.331-.75.745-.75h.01a.75.75 0 0 1 0 1.5z" fill="#5c0b86"/><path d="M220.142 130.357c-.414 0-.755-.336-.755-.75s.331-.75.745-.75h.01a.75.75 0 0 1 0 1.5z" fill="#5c0b86"/><path d="m220.122 129.607-44.058 5.833.004.007c4.927 7.278 14.367 13.177 25.597 16.826z" fill="#fff"/><path d="M201.665 153.023a.75.75 0 0 1-.232-.037c-11.903-3.868-21.132-9.948-25.986-17.119a.755.755 0 0 1 .519-1.171l44.058-5.833a.752.752 0 0 1 .68 1.217l-18.457 22.666a.748.748 0 0 1-.582.277zm-24.267-17.003c4.787 6.387 13.235 11.8 24.011 15.379l16.938-20.801z" fill="#5c0b86"/><path d="m220.122 129.607-18.457 22.666c11.197 3.639 24.174 5.041 36.233 3.345z" fill="#ba72e2"/><path d="M227.374 157.088c-8.679 0-17.605-1.393-25.94-4.102a.753.753 0 0 1-.35-1.187l18.457-22.666a.72.72 0 0 1 .613-.276c.236.01.454.131.588.326l17.776 26.011a.75.75 0 0 1-.515 1.166 76.394 76.394 0 0 1-10.629.728zm-24.431-5.197c10.901 3.376 22.757 4.483 33.648 3.142l-16.521-24.174z" fill="#ba72e2"/><path d="m220.122 129.607-17.642-25.814c-12.077 1.5-21.108 5.772-25.918 11.472z" fill="#5c0b86"/><path d="M220.122 130.357a.73.73 0 0 1-.234-.038l-43.56-14.343a.751.751 0 0 1-.338-1.196c5.139-6.089 14.515-10.255 26.399-11.732a.749.749 0 0 1 .712.321l17.642 25.814a.751.751 0 0 1-.621 1.174zm-42.239-15.447 40.37 13.292-16.134-23.607c-10.732 1.403-19.268 5.044-24.236 10.315z" fill="#5c0b86"/><path d="m142.768 139.855-.004-.007-34.425 4.551.009.013c12.465 18.691 36.714 33.68 65.463 42.751l13.93-17.791c-19.741-6.348-36.356-16.693-44.973-29.517z" fill="#ba72e2"/><path d="M173.81 187.913a.74.74 0 0 1-.226-.035c-30.342-9.573-53.732-24.862-65.862-43.05-.144-.215-.17-.497-.063-.732s.324-.407.58-.441l34.425-4.551a.745.745 0 0 1 .727.335c8.229 12.244 24.06 22.621 44.578 29.22a.752.752 0 0 1 .361 1.177l-13.93 17.791a.751.751 0 0 1-.59.286zm-64.168-42.93c12.051 17.372 34.67 32.003 63.898 41.309l12.949-16.537c-20.135-6.648-35.744-16.948-44.087-29.102z" fill="#ba72e2"/><path d="m326.063 164.49-31.536-10.384c-7.694 10.056-22.729 17.809-43.414 20.85l13.47 19.709c29.466-4.52 50.724-15.734 61.48-30.175z" fill="#5c0b86"/><path d="M264.584 195.415a.751.751 0 0 1-.619-.327l-13.47-19.709a.75.75 0 0 1 .51-1.165c19.758-2.904 35.003-10.207 42.927-20.562a.75.75 0 0 1 .83-.257l31.536 10.384a.748.748 0 0 1 .366 1.16c-11.368 15.262-33.375 26.083-61.967 30.468a.87.87 0 0 1-.113.008zm-12.178-19.898 12.53 18.334c27.45-4.289 48.648-14.553 59.892-28.979l-30.033-9.889c-8.084 10.237-23.079 17.499-42.389 20.534z" fill="#5c0b86"/><path d="m176.562 115.264-32.579-10.727c-8.644 9.981-9.794 22.546-1.219 35.311l33.301-4.409c-4.912-7.26-4.344-14.44.497-20.175z" fill="#ba72e2"/><path d="M142.763 140.598a.749.749 0 0 1-.622-.332c-8.477-12.62-8.024-25.483 1.275-36.22a.753.753 0 0 1 .802-.221l32.579 10.727a.751.751 0 0 1 .338 1.196c-4.827 5.719-4.987 12.563-.449 19.271a.751.751 0 0 1-.523 1.165l-33.301 4.408a.822.822 0 0 1-.099.006zm1.464-35.191c-8.408 9.992-8.797 21.904-1.097 33.636l31.665-4.191c-4.068-6.661-3.89-13.409.508-19.213z" fill="#ba72e2"/><g fill="#86d1fd"><path d="M237.898 155.617c-12.059 1.697-25.036.294-36.233-3.345l-13.925 17.1c19.628 6.312 42.347 8.673 63.373 5.583z"/><path d="M232.055 177.066c-14.889 0-30.205-2.368-44.544-6.979a.751.751 0 0 1-.352-1.188l13.925-17.1a.744.744 0 0 1 .813-.24c11.585 3.765 24.334 4.943 35.896 3.315a.753.753 0 0 1 .724.319l13.216 19.338a.75.75 0 0 1-.51 1.165c-6.229.917-12.658 1.369-19.168 1.37zm-43.037-8.074c19.712 6.167 41.205 8.072 60.796 5.391l-12.273-17.958c-11.498 1.54-24.105.38-35.617-3.28z"/><path d="m176.069 135.447-.004-.007-33.301 4.409.004.007c8.618 12.824 25.232 23.169 44.972 29.518l13.925-17.1c-11.23-3.651-20.67-9.549-25.596-16.827z"/><path d="M187.74 170.123a.75.75 0 0 1-.229-.036c-20.839-6.702-36.95-17.29-45.365-29.813a.755.755 0 0 1 .52-1.169l33.301-4.408a.752.752 0 0 1 .698.293l.026.037c4.668 6.896 13.62 12.768 25.207 16.533a.753.753 0 0 1 .35 1.187l-13.925 17.1a.757.757 0 0 1-.583.276zm-43.662-29.692c8.334 11.715 23.677 21.645 43.405 28.071l12.915-15.86c-11.196-3.809-19.917-9.599-24.69-16.398zm58.402-36.639-12.964-18.969c-21.091 2.494-36.98 9.839-45.533 19.714l32.579 10.727c4.811-5.7 13.842-9.971 25.918-11.472z"/><path d="M176.562 116.014a.73.73 0 0 1-.234-.038l-32.579-10.727a.75.75 0 0 1-.332-1.204c9.038-10.436 25.379-17.527 46.012-19.968a.741.741 0 0 1 .707.321l12.964 18.97a.748.748 0 0 1-.527 1.168c-11.509 1.43-20.543 5.412-25.438 11.211a.747.747 0 0 1-.573.267zm-31.257-11.831 31.016 10.212c5.023-5.673 13.792-9.618 24.852-11.186l-12.02-17.588c-19.48 2.377-34.979 8.945-43.848 18.562z"/></g><path d="m263.074 123.92 31.061-4.112c-8.393-12.083-24.135-22.029-42.941-28.36l-13.053 16.029c10.924 3.644 20.078 9.41 24.933 16.443z" fill="#ba72e2"/><path d="M263.074 124.67a.751.751 0 0 1-.617-.324c-4.608-6.675-13.328-12.414-24.553-16.157a.75.75 0 0 1-.344-1.185l13.053-16.029a.754.754 0 0 1 .821-.237c19.714 6.637 35.097 16.809 43.317 28.643a.75.75 0 0 1-.518 1.171l-31.061 4.112a.793.793 0 0 1-.098.006zm-23.67-17.554c10.833 3.779 19.317 9.427 24.023 16.001l29.372-3.888c-8.13-11.045-22.741-20.558-41.351-26.903z" fill="#ba72e2"/></svg></g><g transform="translate(135.0 1713.0) rotate(0.0 640.5 298.5) scale(3.027309593806422 3.0194824900362134)"><svg width="423.148" height="197.716" viewBox="0 0 423.148 197.716"><path d="M341.315 39.6c4.547-2.852 12.126-3.003 14.021-2.816 1.895.188 27.728 25.209 26.035 25.488-2.274.375-9.172 3.17-14.098 7.171-2.456 1.997-26.993-29.194-25.958-29.843z" fill="#BA72E2"/><path d="M366.987 70.285c-.227 0-.495-.052-.812-.189-3.089-1.326-11.249-11.024-14.614-15.132-3.025-3.693-10.902-13.623-11.025-15.208a.837.837 0 0 1 .38-.791c4.583-2.875 12.23-3.151 14.493-2.926 1.494.148 10.408 8.648 14.171 12.296 5.733 5.557 12.576 12.463 12.62 13.809a.842.842 0 0 1-.707.87c-2.178.36-9.004 3.161-13.748 7.014a1.179 1.179 0 0 1-.758.257zm-24.815-30.321c2.025 4.215 21.775 28.265 24.734 28.813 4.488-3.61 10.556-6.254 13.466-7.045-2.974-4.078-23.01-23.452-25.185-24.215-1.898-.182-8.762.066-13.015 2.447z" fill="#5C0B86"/><path d="m1.724 67.019 76.227 123.93c2.828 4.598 8.304 6.895 13.606 5.706l326.899-73.309c3.909-.877 5.284-5.696 2.415-8.47L309.225 6.926c-5.174-5.003-12.507-7.157-19.598-5.757L6.09 57.159c-4.518.892-6.763 5.963-4.366 9.86z" fill="#5C0B86"/><path d="M88.753 197.716c-4.604 0-8.97-2.356-11.441-6.374L1.085 67.412a7.179 7.179 0 0 1-.471-6.722 7.37 7.37 0 0 1 5.33-4.267L289.482.433c7.337-1.449 14.911.777 20.265 5.953l111.646 107.951c1.542 1.492 2.118 3.611 1.54 5.67-.583 2.074-2.195 3.596-4.312 4.071L91.72 197.387c-.989.222-1.984.329-2.967.329zM293.917 1.499c-1.378 0-2.766.133-4.144.406L6.235 57.895c-1.921.379-3.469 1.617-4.247 3.396a5.698 5.698 0 0 0 .374 5.335l76.227 123.93c2.664 4.33 7.806 6.487 12.803 5.367l326.899-73.309c1.57-.352 2.765-1.479 3.197-3.013.427-1.519.001-3.083-1.139-4.186L308.703 7.465a21.27 21.27 0 0 0-14.786-5.966z" fill="#5C0B86"/><g fill="#BA72E2"><path d="M72.91 133.191c-12.533 0-22.729-6.343-22.729-14.139s10.196-14.139 22.729-14.139 22.729 6.343 22.729 14.139-10.196 14.139-22.729 14.139zm0-26.779c-11.706 0-21.229 5.67-21.229 12.639s9.523 12.639 21.229 12.639 21.229-5.67 21.229-12.639-9.523-12.639-21.229-12.639z"/><path d="M72.91 126.371c-6.467 0-11.534-3.215-11.534-7.319s5.066-7.319 11.534-7.319 11.534 3.215 11.534 7.319-5.067 7.319-11.534 7.319zm0-13.139c-5.439 0-10.034 2.665-10.034 5.819s4.595 5.819 10.034 5.819 10.034-2.665 10.034-5.819-4.595-5.819-10.034-5.819zm-25.153-6.216a.745.745 0 0 1-.633-.347L30.073 79.875c-1.723-2.706-2.022-5.962-.821-8.933 1.212-3 3.725-5.158 6.894-5.919 6.876-1.653 14.061 1.208 17.872 7.12l17.148 26.602a.75.75 0 0 1-.597 1.156c-8.659.378-16.813 2.919-22.369 6.972a.762.762 0 0 1-.443.143zM40.052 66.06c-1.18 0-2.373.138-3.556.422-2.691.647-4.825 2.478-5.854 5.023a8.205 8.205 0 0 0 .696 7.565l16.628 26.129c5.536-3.809 13.003-6.172 21.24-6.725l-16.45-25.518c-2.81-4.361-7.64-6.896-12.704-6.896zm63.215 114.533a16.533 16.533 0 0 1-13.978-7.671l-21.444-33.696a.75.75 0 0 1 .695-1.15 53.58 53.58 0 0 0 4.372.184c7.313 0 14.473-1.532 20.161-4.314a.75.75 0 0 1 .96.267l19.879 30.838c1.723 2.672 2.051 5.902.9 8.861-1.162 2.988-3.619 5.171-6.741 5.99l-.524.137a16.898 16.898 0 0 1-4.28.554zm-33.359-40.919 20.646 32.442c3.532 5.55 10.21 8.149 16.611 6.471l.524-.137c2.652-.695 4.738-2.548 5.724-5.082a8.214 8.214 0 0 0-.763-7.504l-19.521-30.282c-5.853 2.735-12.827 4.179-20.218 4.179a53.766 53.766 0 0 1-3.003-.087z"/><path d="M81.461 159.977a.75.75 0 0 1-.163-1.482l24.291-5.447a.75.75 0 0 1 .328 1.464l-24.291 5.447a.772.772 0 0 1-.165.018zM37.938 91.588a.75.75 0 0 1-.163-1.482l23.797-5.337a.75.75 0 1 1 .328 1.464L38.103 91.57a.772.772 0 0 1-.165.018z"/></g></svg></g><g transform="translate(174.0 111.0) rotate(0.0 960.0 781.5) scale(3.035683511020954 3.0387277393265415)"><svg width="632.477" height="514.36" viewBox="0 0 632.477 514.36"><clipPath id="a"><path d="M-741.163 14.061h561.989V268.61h-561.989z"/></clipPath><g clip-path="url(#a)"><path d="m-407.638 39.111 93.838 77.275a9.141 9.141 0 0 0 8.306 1.728L54.469 15.765c3.724-1.059 4.619-5.88 1.52-8.183l-92.167-68.478a8.682 8.682 0 0 0-7.42-1.412L-406.7 34.854c-1.938.518-2.482 2.985-.938 4.257z" fill="#5C0B86"/><path d="M-406.586 14.157s-1.587 19.489-1.889 22.543c-.085.856.065 1.775.837 2.411l93.838 77.275a9.141 9.141 0 0 0 8.306 1.728L54.469 15.765c1.939-.551 3.111-2.123 3.352-3.828.038-.269.77-7.441.77-7.441z" fill="#5C0B86"/><path d="m-405.857 16.23 93.89 90.472a9.14 9.14 0 0 0 8.793 2.209L55.184 8.764c3.588-1.003 4.618-5.552 1.806-7.976l-92.347-79.623a8.68 8.68 0 0 0-7.82-1.825L-404.75 12.094c-1.87.48-2.491 2.801-1.107 4.136z" fill="#5C0B86"/><g fill="#BA72E2"><path d="M30.52 7.227c-.45 0-.89-.172-1.221-.492L5.606-16.147a1.72 1.72 0 0 1-.479-1.67 1.73 1.73 0 0 1 1.216-1.253l10.125-2.884a1.749 1.749 0 0 1 1.659.385l5.407 4.888.018.017L42.098 1.247c.451.436.631 1.059.48 1.666a1.727 1.727 0 0 1-1.211 1.254l-10.36 2.99c-.161.047-.324.07-.487.07zM16.949-20.52a.237.237 0 0 0-.07.01L6.754-17.627a.234.234 0 0 0-.172.174.223.223 0 0 0 .066.226L30.342 5.656a.258.258 0 0 0 .249.061l10.36-2.99a.235.235 0 0 0 .171-.175.223.223 0 0 0-.066-.226L22.518-15.576l-5.398-4.879a.254.254 0 0 0-.171-.065zm-5.76 33.327c-.45 0-.89-.172-1.221-.491L-.885 1.834A1.719 1.719 0 0 1-1.364.165 1.73 1.73 0 0 1-.148-1.088l10.391-2.96a1.764 1.764 0 0 1 1.701.424L22.765 6.827c.452.436.631 1.059.48 1.666a1.727 1.727 0 0 1-1.211 1.254l-10.36 2.99c-.16.047-.323.07-.485.07zm-.464-15.423a.248.248 0 0 0-.071.01L.263.354a.234.234 0 0 0-.172.174.223.223 0 0 0 .066.226L11.01 11.236a.259.259 0 0 0 .249.061l10.36-2.99a.235.235 0 0 0 .171-.175.226.226 0 0 0-.066-.226L10.902-2.545a.256.256 0 0 0-.177-.071zm-.277-.711h.01zm-20.669 22.313c-.458 0-.905-.179-1.238-.51L-22.13 7.862a1.721 1.721 0 0 1-.458-1.664 1.727 1.727 0 0 1 1.213-1.24l12.227-3.483a1.761 1.761 0 0 1 1.701.425l10.88 10.508c.451.436.631 1.059.48 1.666a1.726 1.726 0 0 1-1.211 1.254l-12.436 3.589c-.16.046-.325.069-.487.069zm1.555-16.078a.253.253 0 0 0-.071.01l-12.227 3.483a.235.235 0 0 0-.171.173.222.222 0 0 0 .063.225l10.67 10.614a.255.255 0 0 0 .252.063l12.436-3.589a.235.235 0 0 0 .171-.175.223.223 0 0 0-.066-.226L-8.489 2.979a.253.253 0 0 0-.177-.071zm-.276-.712h.01z"/><path d="m23.03-18.502-5.407-4.888a1.007 1.007 0 0 0-.95-.22L6.548-20.725a.987.987 0 0 0-.422 1.661L29.821 3.818c.258.249.632.342.978.242l10.36-2.99a.987.987 0 0 0 .418-1.66zM10.448-5.705.057-2.745a.987.987 0 0 0-.422 1.661L10.489 9.398c.258.249.632.342.978.242l10.36-2.99a.987.987 0 0 0 .418-1.66L11.423-5.462a1.01 1.01 0 0 0-.975-.243zM-8.942-.181l-12.226 3.483a.987.987 0 0 0-.432 1.651l10.671 10.614c.258.257.637.353.988.252L2.495 12.23a.987.987 0 0 0 .418-1.66L-7.968.062a1.005 1.005 0 0 0-.974-.243z"/></g></g><path d="m214.855 460.365-113.697-12.559L.75 436.715l33.4-24.317 210.263 23.226zM51.15 396.719c-.438-7.88-.593-12.485 3.762-22.07 4.385-9.651 14.996-26.169 40.119-35.366 21.134-7.737 6.674 5.485 0 7.133-6.5 1.605-17.377 9.663-22.183 15.181-7.866 9.032-14.165 13.716-14.498 34.354-.139 8.652-6.845 7.151-7.2.768z" fill="#BA72E2"/><path d="M54.959 402.726c-2.06 0-4.341-2.075-4.558-5.966-.456-8.194-.493-12.913 3.829-22.422 5.2-11.446 16.456-26.942 40.544-35.76 8.702-3.186 10.764-2.603 11.559-1.888.262.236.669.768.441 1.676-.717 2.866-7.711 7.827-11.562 8.777-6.196 1.53-16.991 9.427-21.798 14.946-.814.935-1.612 1.824-2.389 2.689-6.752 7.522-11.631 12.957-11.925 31.185-.08 4.928-2.16 6.725-4.081 6.763h-.06zm49.405-65.113c-1.169 0-3.697.405-9.075 2.374-23.601 8.64-34.612 23.787-39.694 34.972-4.369 9.616-4.116 14.172-3.696 21.718.157 2.822 1.703 4.549 3.059 4.549h.031c1.166-.023 2.548-1.422 2.61-5.287.303-18.788 5.601-24.69 12.309-32.163.771-.859 1.564-1.743 2.374-2.672 5.051-5.8 16.011-13.798 22.569-15.417 3.557-.878 9.186-5.106 10.316-7.308.212-.413.168-.566.167-.568-.001-.004-.16-.198-.97-.198z" fill="#5C0B86"/><path d="M118.413 404.274c0-8.447 26.147-45.47 26.147-45.47l7.818-1.877s-27.523 41.716-27.523 47.347-6.442 0-6.442 0z" fill="#BA72E2"/><path d="M123.194 407.523c-2.082 0-4.7-2.183-5.274-2.685a.748.748 0 0 1-.256-.565c0-8.586 25.211-44.383 26.284-45.903a.753.753 0 0 1 .438-.297l7.818-1.877a.752.752 0 0 1 .802 1.143c-11.014 16.693-27.399 42.968-27.399 46.934 0 1.594-.481 2.62-1.429 3.051a2.36 2.36 0 0 1-.984.199zm-4.017-3.585c1.36 1.116 3.512 2.415 4.379 2.021.478-.217.549-1.149.549-1.685 0-5.247 21.095-37.769 26.605-46.176l-5.701 1.369c-8.886 12.604-25.29 37.51-25.832 44.471z" fill="#5C0B86"/><path d="M133.506 386.916c8.07-13.616 18.873-29.99 18.873-29.99l-7.818 1.877s-9.654 13.673-17.23 26.298c2.096.007 4.463.403 6.175 1.815z" fill="#5C0B86"/><path d="M133.506 387.666a.752.752 0 0 1-.477-.171c-1.312-1.082-3.23-1.635-5.701-1.644a.75.75 0 0 1-.641-1.136c7.504-12.503 17.164-26.207 17.26-26.344a.753.753 0 0 1 .438-.297l7.818-1.877a.752.752 0 0 1 .802 1.143c-.108.164-10.885 16.515-18.854 29.959a.747.747 0 0 1-.645.367zm-4.88-3.261c1.854.153 3.413.629 4.655 1.422 6.47-10.867 14.59-23.381 17.433-27.73l-5.703 1.369c-1.257 1.792-9.556 13.681-16.385 24.939z" fill="#5C0B86"/><path d="M214.855 493.025.75 469.375v-32.66l214.105 23.65z" fill="#BA72E2"/><path d="M214.855 493.775a.587.587 0 0 1-.083-.005L.667 470.12a.75.75 0 0 1-.667-.745v-32.66a.752.752 0 0 1 .833-.746l214.105 23.65a.75.75 0 0 1 .667.745v32.66a.752.752 0 0 1-.75.751zM1.5 468.703l212.605 23.484v-31.151L1.5 437.552z" fill="#5C0B86"/><path d="M214.855 461.115a.587.587 0 0 1-.083-.005L.667 437.46a.751.751 0 0 1-.359-1.352l33.4-24.317a.745.745 0 0 1 .524-.139l210.264 23.226a.75.75 0 0 1 .399 1.321l-29.558 24.741a.748.748 0 0 1-.482.175zM2.756 436.182l211.863 23.403 27.965-23.408-208.228-23.002z" fill="#5C0B86"/><path d="m173.975 427.843-98 17.181v32.66L.75 469.375v-32.66l33.4-24.317z" fill="#5C0B86"/><path d="M75.975 478.434a.587.587 0 0 1-.083-.005L.667 470.12a.75.75 0 0 1-.667-.745v-32.66c0-.24.115-.465.309-.606l33.4-24.317a.745.745 0 0 1 .524-.139l139.825 15.445a.75.75 0 0 1 .047 1.485l-97.379 17.072v32.03a.752.752 0 0 1-.751.749zM1.5 468.703l73.725 8.144v-31.822a.75.75 0 0 1 .621-.739l92.825-16.274-134.315-14.837L1.5 437.096z" fill="#5C0B86"/><ellipse cx="189.958" cy="442.574" fill="#5C0B86" rx="27.55" ry="8.157"/><path d="M189.958 451.481c-18.382 0-28.3-4.589-28.3-8.907s9.918-8.907 28.3-8.907 28.3 4.589 28.3 8.907-9.918 8.907-28.3 8.907zm0-16.314c-15.794 0-26.8 3.904-26.8 7.407s11.006 7.407 26.8 7.407 26.8-3.904 26.8-7.407c0-3.504-11.006-7.407-26.8-7.407z" fill="#5C0B86"/><path d="M164.017 445.324c3.812-3.152 13.985-5.407 25.941-5.407s22.129 2.255 25.941 5.407c1.039-.859 1.609-1.785 1.609-2.75 0-4.505-12.335-8.157-27.55-8.157-15.216 0-27.55 3.652-27.55 8.157 0 .965.569 1.89 1.609 2.75z" fill="#BA72E2"/><path d="M215.899 446.074a.749.749 0 0 1-.478-.172c-3.788-3.131-14.021-5.235-25.463-5.235-11.443 0-21.676 2.104-25.463 5.235a.751.751 0 0 1-.956 0c-1.249-1.032-1.881-2.152-1.881-3.328 0-4.318 9.918-8.907 28.3-8.907s28.3 4.589 28.3 8.907c0 1.176-.633 2.295-1.881 3.328a.754.754 0 0 1-.478.172zm-25.941-10.907c-15.794 0-26.8 3.904-26.8 7.407 0 .58.302 1.175.899 1.774 4.407-3.162 14.426-5.181 25.901-5.181s21.494 2.019 25.901 5.181c.597-.6.899-1.195.899-1.774 0-3.504-11.006-7.407-26.8-7.407z" fill="#5C0B86"/><ellipse cx="122.582" cy="435.113" fill="#5C0B86" rx="27.55" ry="8.157"/><path d="M122.582 444.02c-18.382 0-28.3-4.589-28.3-8.907s9.918-8.907 28.3-8.907c18.381 0 28.3 4.589 28.3 8.907s-9.919 8.907-28.3 8.907zm0-16.314c-15.794 0-26.8 3.904-26.8 7.407s11.006 7.407 26.8 7.407c15.793 0 26.8-3.904 26.8-7.407s-11.007-7.407-26.8-7.407z" fill="#5C0B86"/><path d="M96.641 437.864c3.812-3.152 13.985-5.407 25.941-5.407s22.129 2.255 25.941 5.407c1.039-.859 1.609-1.785 1.609-2.75 0-4.505-12.335-8.157-27.55-8.157-15.216 0-27.55 3.652-27.55 8.157-.001.965.569 1.89 1.609 2.75z" fill="#BA72E2"/><path d="M148.522 438.614a.749.749 0 0 1-.478-.172c-3.787-3.131-14.02-5.235-25.462-5.235-11.443 0-21.676 2.104-25.463 5.235a.751.751 0 0 1-.956 0c-1.249-1.032-1.881-2.152-1.881-3.328 0-4.318 9.918-8.907 28.3-8.907 18.381 0 28.3 4.589 28.3 8.907 0 1.176-.633 2.296-1.881 3.328a.755.755 0 0 1-.479.172zm-25.94-6.907c11.475 0 21.494 2.019 25.901 5.181.597-.6.899-1.195.899-1.774 0-3.503-11.006-7.407-26.8-7.407s-26.8 3.904-26.8 7.407c0 .58.302 1.175.899 1.774 4.407-3.162 14.425-5.181 25.901-5.181z" fill="#5C0B86"/><ellipse cx="55.205" cy="427.653" fill="#5C0B86" rx="27.55" ry="8.157"/><path d="M55.205 436.56c-18.382 0-28.3-4.589-28.3-8.907s9.918-8.907 28.3-8.907 28.3 4.589 28.3 8.907-9.918 8.907-28.3 8.907zm0-16.314c-15.794 0-26.8 3.904-26.8 7.407s11.006 7.407 26.8 7.407 26.8-3.904 26.8-7.407-11.006-7.407-26.8-7.407z" fill="#5C0B86"/><path d="M29.265 430.403c3.812-3.152 13.985-5.407 25.941-5.407s22.129 2.255 25.941 5.407c1.039-.859 1.609-1.785 1.609-2.75 0-4.505-12.335-8.157-27.55-8.157-15.216 0-27.55 3.652-27.55 8.157-.001.965.569 1.891 1.609 2.75z" fill="#BA72E2"/><path d="M81.146 431.153a.749.749 0 0 1-.478-.172c-3.787-3.131-14.02-5.235-25.463-5.235-11.442 0-21.675 2.104-25.462 5.235a.751.751 0 0 1-.956 0c-1.249-1.032-1.882-2.152-1.882-3.328 0-4.318 9.918-8.907 28.3-8.907s28.3 4.589 28.3 8.907c0 1.176-.633 2.296-1.881 3.328a.745.745 0 0 1-.478.172zm-25.941-10.907c-15.794 0-26.8 3.904-26.8 7.407 0 .58.302 1.175.899 1.774 4.407-3.162 14.426-5.181 25.901-5.181 11.476 0 21.494 2.019 25.901 5.181.597-.6.899-1.195.899-1.774.001-3.503-11.006-7.407-26.8-7.407z" fill="#5C0B86"/><path d="M55.205 435.81c8.327 0 15.785-1.095 20.837-2.824-.461-5.897-16.556-24.852-16.556-27.257v-9.777H49.445v9.965c0 4.693-15.663 22.111-15.663 26.864 5.051 1.847 12.769 3.029 21.423 3.029z" fill="#BA72E2"/><path d="M55.205 436.56c-8.436 0-16.338-1.121-21.681-3.076a.75.75 0 0 1-.492-.704c0-2.622 3.889-8.12 8.006-13.94 3.589-5.073 7.656-10.823 7.656-12.923v-9.965a.75.75 0 0 1 .75-.75h10.042a.75.75 0 0 1 .75.75v9.777c.079.84 3.033 4.972 5.639 8.617 4.979 6.964 10.623 14.857 10.914 18.582a.75.75 0 0 1-.505.768c-5.318 1.82-13.002 2.864-21.079 2.864zm-20.613-4.289c5.171 1.776 12.635 2.789 20.613 2.789 7.621 0 14.859-.94 20-2.587-.804-3.626-6.402-11.455-10.55-17.255-4.296-6.008-5.919-8.383-5.919-9.49v-9.027h-8.542v9.215c0 2.577-3.853 8.023-7.932 13.79-3.366 4.76-7.151 10.11-7.67 12.565z" fill="#5C0B86"/><path d="M122.582 443.27c8.327 0 15.785-1.095 20.837-2.824-.461-5.897-16.556-24.852-16.556-27.257v-9.777h-10.042v9.965c0 4.693-15.663 22.111-15.663 26.864 5.051 1.847 12.769 3.029 21.424 3.029z" fill="#BA72E2"/><path d="M122.582 444.02c-8.436 0-16.338-1.121-21.682-3.076a.75.75 0 0 1-.492-.704c0-2.622 3.889-8.12 8.007-13.94 3.588-5.073 7.656-10.823 7.656-12.923v-9.965a.75.75 0 0 1 .75-.75h10.042a.75.75 0 0 1 .75.75v9.778c.079.84 3.033 4.972 5.639 8.617 4.979 6.964 10.623 14.857 10.914 18.582a.75.75 0 0 1-.505.768c-5.319 1.819-13.003 2.863-21.079 2.863zm-20.614-4.288c5.171 1.776 12.635 2.789 20.614 2.789 7.62 0 14.858-.94 20-2.587-.804-3.626-6.402-11.455-10.55-17.255-4.296-6.008-5.919-8.382-5.919-9.489v-9.028h-8.542v9.215c0 2.577-3.853 8.023-7.932 13.79-3.367 4.759-7.152 10.11-7.671 12.565z" fill="#5C0B86"/><path d="m244.413 435.624-29.558 24.741v32.66l29.558-24.741z" fill="#BA72E2"/><path d="M214.855 493.775a.75.75 0 0 1-.75-.75v-32.66c0-.222.098-.433.269-.575l29.558-24.741a.749.749 0 0 1 1.232.576v32.66a.747.747 0 0 1-.269.575l-29.558 24.74a.753.753 0 0 1-.482.175zm.75-33.06v30.704l28.058-23.486V437.23z" fill="#5C0B86"/><path d="M71.942 445.791a.865.865 0 0 1-.088-.005L.663 437.46a.751.751 0 0 1-.355-1.352l13.404-9.759a.751.751 0 0 1 .883 1.213l-11.854 8.63 69.286 8.103a.75.75 0 0 1-.085 1.496z" fill="#BA72E2"/><path d="M253.943 455.978v-2.379l191.912-19.165 55.362 49.579v2.38L301.311 513.61z" fill="#5C0B86"/><path d="M301.311 514.36a.75.75 0 0 1-.58-.274l-47.368-57.632a.752.752 0 0 1-.17-.476v-2.38a.75.75 0 0 1 .675-.746l191.912-19.164a.749.749 0 0 1 .575.188l55.362 49.579c.159.142.25.345.25.559v2.38a.75.75 0 0 1-.649.743l-199.906 27.218a1.12 1.12 0 0 1-.101.005zm-46.618-58.651 46.932 57.101 198.842-27.073v-1.39L445.6 435.213l-190.907 19.064z" fill="#5C0B86"/><path d="m253.943 453.599 191.912-21.545 55.362 51.959-199.906 27.218z" fill="#BA72E2"/><path d="M301.311 511.981a.75.75 0 0 1-.58-.274l-47.368-57.632a.75.75 0 0 1 .496-1.221l191.912-21.544a.749.749 0 0 1 .597.198l55.362 51.959a.75.75 0 0 1-.412 1.29l-199.906 27.218a.843.843 0 0 1-.101.006zM255.4 454.19l46.225 56.241 197.931-26.949-53.961-50.644z" fill="#5C0B86"/><path d="m377.58 464.324 23.993-27.298-140.218 15.74 68.478 23.929z" fill="#5C0B86"/><path d="M329.833 477.445a.756.756 0 0 1-.248-.042l-68.478-23.928a.75.75 0 0 1 .164-1.453l140.218-15.741a.75.75 0 0 1 .647 1.24l-23.992 27.299a.751.751 0 0 1-.375.231l-47.748 12.371a.8.8 0 0 1-.188.023zm-65.123-24.3 65.155 22.767 47.304-12.256 22.56-25.669zm112.87 11.179h.01z" fill="#5C0B86"/><path d="M154.121 374.649c4.397 8.767 4.049 11.019 8.975 21.124 2.921 5.992 9.877 8.955 14.4 10.159 10.296 2.742 19.884 5.586 29.99 4.38 10.105-1.206 23.568-9.135 41.505-10.887s45.979-2.252 58.358-.751c12.379 1.502 39.411 2.503 45.221-7.758 5.811-10.261-13.744 3.373-26.526 1.104-5.337-.947-14.653-1.604-37.137-1.104-22.484.501-35.874-.125-49.263 2.941s-29.779 11.106-39.063 10.396c-11.72-.896-25.485-4.327-29.843-10.396-7.103-9.893-8.084-23.212-11.621-24.964-7.146-3.54-8.249-.729-4.996 5.756z" fill="#BA72E2"/><path d="M202.592 411.347c-7.792 0-15.355-2.028-23.282-4.154l-2.007-.537c-3.364-.896-11.548-3.717-14.881-10.555-2.498-5.124-3.638-8.212-4.74-11.199-1.063-2.882-2.068-5.605-4.231-9.918-1.974-3.936-2.338-6.448-1.113-7.679 1.169-1.176 3.497-.877 7.113.915 1.933.958 3.029 4.302 4.545 8.931 1.618 4.94 3.632 11.088 7.352 16.268 4.118 5.735 17.678 9.198 29.291 10.086 5.569.425 13.817-2.402 22.559-5.394 5.453-1.867 11.091-3.797 16.279-4.985 10.587-2.424 21.281-2.559 36.083-2.745 4.083-.051 8.497-.107 13.332-.215 24.418-.544 32.751.31 37.284 1.115 5.779 1.025 13.23-1.381 18.674-3.138 4.988-1.61 7.998-2.581 9.15-1.168.871 1.069.043 2.865-.775 4.31-7.061 12.468-42.003 8.614-45.964 8.133-11.786-1.43-39.523-1.071-58.195.753-10.354 1.011-19.106 4.064-26.828 6.758-5.558 1.939-10.358 3.613-14.661 4.127a42.02 42.02 0 0 1-4.985.291zm-47.801-37.035c2.201 4.388 3.219 7.148 4.298 10.071 1.089 2.952 2.216 6.004 4.681 11.061 3.062 6.282 10.754 8.921 13.918 9.763l2.009.538c9.46 2.537 18.395 4.932 27.699 3.822 4.14-.494 8.869-2.144 14.344-4.054 7.801-2.721 16.643-5.806 27.177-6.834 18.757-1.832 46.65-2.189 58.521-.749 14.004 1.699 39.133 2.056 44.478-7.383 1.239-2.187.921-2.619.918-2.623-.505-.619-4.563.692-7.526 1.648-5.594 1.805-13.254 4.278-19.396 3.187-4.465-.793-12.705-1.633-36.989-1.092-4.839.108-9.258.163-13.346.215-14.708.185-25.336.319-35.767 2.707-5.111 1.17-10.712 3.088-16.128 4.942-8.893 3.044-17.293 5.919-23.159 5.471-11.083-.847-25.694-4.159-30.395-10.706-3.854-5.368-5.908-11.638-7.559-16.675-1.296-3.958-2.416-7.376-3.786-8.054-4.087-2.025-5.154-1.431-5.384-1.201-.247.247-.881 1.414 1.392 5.946z" fill="#5C0B86"/><path d="M166.438 386.063c-3.45-8.014-4.664-15.855-7.321-17.171-7.146-3.539-8.249-.729-4.996 5.756 4.108 8.192 4.076 10.699 8.073 19.236.29-3.671 1.408-6.422 4.244-7.821z" fill="#5C0B86"/><path d="M162.193 394.635a.75.75 0 0 1-.679-.432c-1.887-4.031-2.875-6.709-3.831-9.297-1.064-2.883-2.07-5.607-4.233-9.92-1.974-3.936-2.338-6.448-1.113-7.679 1.169-1.176 3.497-.877 7.113.915 1.933.958 3.029 4.302 4.545 8.932.862 2.631 1.839 5.614 3.131 8.614a.75.75 0 0 1-.357.969c-2.345 1.157-3.525 3.38-3.829 7.208a.751.751 0 0 1-.747.69zm-7.878-26.533c-.568 0-.817.164-.915.262-.248.25-.882 1.416 1.391 5.949 2.201 4.388 3.22 7.15 4.299 10.073.75 2.03 1.519 4.116 2.734 6.874.597-2.599 1.79-4.395 3.658-5.528-1.187-2.846-2.1-5.634-2.913-8.113-1.297-3.958-2.417-7.376-3.786-8.055-2.348-1.163-3.7-1.462-4.468-1.462zm85.328 25.755c-2.579.59-5.271 1.368-8 2.229.399 2.215 1.244 4.353 2.251 6.278 3.643-1.025 7.516-1.922 11.642-2.517-.99-2.232-1.092-4.673-.761-6.989a80.254 80.254 0 0 0-5.132.999z" fill="#5C0B86"/><path d="M233.894 403.114a.751.751 0 0 1-.665-.402c-1.169-2.235-1.951-4.42-2.324-6.493a.75.75 0 0 1 .513-.848c3.148-.994 5.709-1.707 8.058-2.245a82.176 82.176 0 0 1 5.178-1.009.75.75 0 0 1 .863.847c-.358 2.505-.121 4.718.705 6.579.095.215.084.461-.029.667s-.317.346-.549.379c-3.686.531-7.462 1.348-11.546 2.497a.76.76 0 0 1-.204.028zm-1.383-6.514c.347 1.564.941 3.199 1.772 4.877 3.582-.986 6.937-1.72 10.213-2.232-.559-1.641-.753-3.478-.581-5.482-1.408.245-2.76.517-4.105.826-2.147.491-4.481 1.133-7.299 2.011zm7.132-2.743h.01z" fill="#5C0B86"/><path d="M456.906 342.24c.58 7.897 5.305 39.416-7.832 49.927-15.88 12.706-25.263 10.672-42.947 15.221s-31.832 23.805-54.821 28.059c-22.99 4.255-44.716-13.248-68.463-17.503-15.787-2.828-40.421-3.504-44.968-18.019-4.547-14.516-4.295-29.031-15.663-32.034s-20.463-2.753-10.358 2.753 11.874.25 14.905 13.014c3.032 12.764 1.263 20.772 10.611 28.781s27.032 11.262 40.168 13.014c13.137 1.752 35.116 10.081 46.484 14.676s33.6 2.827 45.726-3.179 22.989-20.756 39.663-22.759 36.884-6.906 46.989-18.418 10.611-33.387 7.326-53.532c-2.833-17.387-7.325-6.884-6.82-.001z" fill="#BA72E2"/><g fill="#5C0B86"><path d="M340.871 443.457c-6.583 0-12.715-.848-17.13-2.633-9.386-3.793-32.686-12.812-46.302-14.628-12.794-1.706-30.918-4.93-40.557-13.188-7.05-6.04-7.978-12.154-9.152-19.895-.419-2.759-.893-5.886-1.7-9.282-1.945-8.188-3.178-8.523-6.84-9.519-1.831-.498-4.338-1.18-7.695-3.009-3.782-2.061-5.177-3.49-4.665-4.779 1.189-2.99 13.181.011 15.573.643 8.945 2.363 11.018 11.377 13.419 21.814.803 3.488 1.632 7.096 2.769 10.721 3.634 11.601 20.669 14.028 35.698 16.169 3.083.439 5.994.854 8.687 1.336 9.273 1.661 18.294 5.348 27.019 8.913 14.042 5.738 27.302 11.158 41.176 8.591 12.527-2.318 22.31-9.088 31.77-15.634 7.686-5.318 14.945-10.341 23-12.414 4.857-1.25 9.177-2.021 12.989-2.701 10.215-1.823 18.283-3.263 29.677-12.38 11.451-9.162 8.924-35.033 7.845-46.081-.126-1.293-.232-2.378-.293-3.205-.286-3.894.989-9.983 3.563-10.287 2.066-.245 3.581 2.968 4.746 10.112 2.341 14.363 4.48 40.496-7.503 54.148-10.517 11.982-31.616 16.765-47.463 18.668-10.463 1.256-18.542 7.593-26.354 13.72-4.438 3.481-8.631 6.769-13.065 8.966-7.632 3.778-18.966 5.833-29.212 5.834zm-132.659-76.353c.038 0 .273.851 4 2.882 3.203 1.745 5.514 2.374 7.371 2.879 4.275 1.163 5.858 2.004 7.905 10.62.821 3.456 1.301 6.616 1.724 9.403 1.172 7.723 2.019 13.304 8.645 18.981 9.337 7.999 27.175 11.159 39.78 12.84 13.786 1.838 37.228 10.909 46.667 14.724 10.965 4.432 32.889 2.898 45.112-3.156 4.296-2.128 8.43-5.37 12.806-8.802 7.975-6.255 16.222-12.723 27.102-14.029 15.587-1.872 36.311-6.543 46.515-18.168 4.969-5.661 12.505-20.063 7.149-52.917-1.437-8.814-3.04-8.866-3.09-8.863-1.023.121-2.547 4.546-2.243 8.688.06.818.165 1.891.29 3.169 1.103 11.29 3.685 37.728-8.4 47.398-11.692 9.355-19.927 10.825-30.352 12.685-3.97.709-8.076 1.441-12.878 2.677-7.796 2.006-14.948 6.955-22.521 12.195-9.59 6.636-19.507 13.498-32.351 15.875-14.306 2.647-27.765-2.853-42.016-8.677-8.652-3.536-17.599-7.192-26.716-8.825-2.666-.478-5.564-.891-8.633-1.328-15.469-2.204-33.001-4.702-36.918-17.205-1.153-3.681-1.99-7.317-2.798-10.834-2.387-10.374-4.271-18.568-12.34-20.7-8.606-2.273-13.306-2.102-13.81-1.512-.001 0-.001 0 0 0z"/><path d="M222.212 367.891c-11.368-3.003-20.463-2.753-10.358 2.753 9.195 5.01 11.488 1.114 14.11 9.989 1.607-.318 4.272.44 8.338 5.135-2.111-8.791-4.532-15.88-12.09-17.877z"/><path d="M234.303 386.518a.749.749 0 0 1-.567-.259c-4.117-4.754-6.543-5.104-7.625-4.89a.752.752 0 0 1-.865-.523c-1.569-5.31-2.792-5.643-6.058-6.533-1.83-.499-4.336-1.182-7.692-3.01-3.782-2.061-5.177-3.49-4.665-4.779 1.189-2.99 13.181.011 15.573.643 8.09 2.137 10.589 9.936 12.628 18.427a.75.75 0 0 1-.729.924zm-7.667-6.7c1.822 0 3.912 1.123 6.241 3.351-1.88-7.095-4.383-12.842-10.857-14.553-8.606-2.273-13.306-2.102-13.81-1.512.017-.013.178.798 4.002 2.881 3.201 1.744 5.512 2.374 7.369 2.88 3.543.965 5.247 1.642 6.919 6.955l.136-.002zm91.576-69.112V464.87l93.474-11.512V299.193zm41.668 129.423c-14.511 0-26.274-14.658-26.274-32.74s11.763-32.74 26.274-32.74 26.274 14.658 26.274 32.74c0 18.081-11.763 32.74-26.274 32.74z"/><path d="M318.212 465.62a.75.75 0 0 1-.75-.75V310.706c0-.379.282-.698.658-.744l93.474-11.512a.747.747 0 0 1 .842.745v154.164a.749.749 0 0 1-.658.744l-93.474 11.512a.963.963 0 0 1-.092.005zm.75-154.251v152.653l91.974-11.328V300.041zm40.919 129.51c-14.901 0-27.024-15.024-27.024-33.49s12.123-33.49 27.024-33.49 27.023 15.024 27.023 33.49-12.123 33.49-27.023 33.49zm0-65.48c-14.074 0-25.524 14.351-25.524 31.99s11.45 31.99 25.524 31.99 25.523-14.351 25.523-31.99c0-17.64-11.45-31.99-25.523-31.99z"/><path d="m329.833 476.695-11.621-11.639V314.85l11.621 7.681z"/><path d="M329.833 477.445a.75.75 0 0 1-.531-.22l-11.621-11.639a.748.748 0 0 1-.219-.53V314.85a.752.752 0 0 1 1.164-.626l11.621 7.68a.75.75 0 0 1 .336.626v154.164a.75.75 0 0 1-.75.751zm-10.871-12.699 10.121 10.136V322.934l-10.121-6.689z"/></g><path d="M329.833 322.531v154.164l93.474-11.512V311.018zm47.747 120.851c-14.511 0-26.274-14.658-26.274-32.74s11.763-32.74 26.274-32.74 26.274 14.658 26.274 32.74-11.763 32.74-26.274 32.74z" fill="#BA72E2"/><path d="M329.833 477.445a.75.75 0 0 1-.75-.75V322.531c0-.379.282-.698.658-.744l93.474-11.512a.75.75 0 0 1 .842.745v154.164a.749.749 0 0 1-.658.744l-93.474 11.512a.963.963 0 0 1-.092.005zm.75-154.251v152.653l91.974-11.328V311.866zm46.997 120.938c-14.901 0-27.024-15.024-27.024-33.49s12.123-33.49 27.024-33.49 27.023 15.024 27.023 33.49-12.122 33.49-27.023 33.49zm0-65.48c-14.074 0-25.524 14.351-25.524 31.99s11.45 31.99 25.524 31.99 25.523-14.351 25.523-31.99c.001-17.639-11.449-31.99-25.523-31.99z" fill="#5C0B86"/><path d="M435.938 342.241c-5.81-3.878-6.083-3.429-3.863 7.741 1.442 7.258-19.753 24.436-34.032 31.925-14.514 7.612-36.24 24.513-46.25 35.007a38.224 38.224 0 0 0 2.132 7.99c9.03-8.841 36.02-27.303 42.35-31.047 21.474-12.701 33.6-23.212 39.663-30.971 5.687-7.276 9.576-14.255 0-20.645z" fill="#BA72E2"/><path d="M353.925 425.654a.751.751 0 0 1-.699-.478 39.18 39.18 0 0 1-2.174-8.147.75.75 0 0 1 .199-.633c9.727-10.198 31.656-27.398 46.444-35.153 7.26-3.808 15.981-9.918 22.761-15.945 7.506-6.674 11.473-12.203 10.883-15.169-1.42-7.146-1.8-9.725-.496-10.597 1.075-.719 2.575.127 5.511 2.086 3.586 2.393 5.561 4.995 6.037 7.956.694 4.319-1.841 8.631-5.862 13.776-5.019 6.422-16.01 17.041-39.872 31.154-6.477 3.831-33.191 22.11-42.207 30.937a.758.758 0 0 1-.525.213zm-1.332-8.491a37.907 37.907 0 0 0 1.639 6.411c9.796-9.158 35.335-26.62 41.661-30.362 23.66-13.995 34.515-24.466 39.454-30.787 3.27-4.184 6.207-8.608 5.563-12.614-.406-2.526-2.169-4.798-5.389-6.946-1.001-.668-3.349-2.231-3.861-2.078-.531.588.48 5.68 1.15 9.049 1.639 8.249-21.354 25.883-34.419 32.735-14.533 7.622-36.026 24.448-45.798 34.592z" fill="#5C0B86"/><path d="M435.938 342.241c-5.81-3.878-6.083-3.429-3.863 7.741.231 1.163-.125 2.582-.934 4.174 3.52-.263 5.749 2.398 6.268 6.789 4.802-6.577 7.25-12.884-1.471-18.704z" fill="#5C0B86"/><path d="M437.409 361.694a.75.75 0 0 1-.744-.662c-.488-4.119-2.488-6.354-5.468-6.129a.75.75 0 0 1-.725-1.088c.764-1.501 1.055-2.742.867-3.688-1.42-7.146-1.8-9.725-.496-10.597 1.075-.719 2.575.127 5.511 2.086 3.53 2.356 5.497 4.912 6.013 7.816.754 4.248-1.777 8.426-4.352 11.954a.75.75 0 0 1-.606.308zm-5.111-8.272c2.719.284 4.688 2.293 5.528 5.627 1.908-2.831 3.624-6.2 3.064-9.354-.44-2.48-2.197-4.714-5.369-6.831-1.001-.668-3.349-2.231-3.861-2.078-.531.588.48 5.68 1.15 9.049.204 1.023.031 2.226-.512 3.587z" fill="#5C0B86"/><path d="M456.401 395.773c10.105-11.512 10.611-33.387 7.326-53.532-2.834-17.386-7.326-6.884-6.821 0 .58 7.897 5.305 39.416-7.832 49.927-15.88 12.706-25.263 10.672-42.947 15.221-15.691 4.037-28.602 19.643-47.371 26.083 1.707 2.186 3.658 4.073 5.797 5.598 1.871-.633 3.62-1.34 5.196-2.12 12.126-6.007 22.99-20.756 39.663-22.759 16.673-2.002 36.884-6.906 46.989-18.418z" fill="#BA72E2"/><path d="M364.552 439.82a.758.758 0 0 1-.436-.139c-2.192-1.563-4.194-3.497-5.952-5.747a.75.75 0 0 1 .347-1.171c9.19-3.154 16.935-8.51 24.424-13.689 7.688-5.316 14.948-10.338 23.004-12.411 4.857-1.25 9.177-2.021 12.988-2.701 10.215-1.823 18.283-3.263 29.677-12.38 11.451-9.162 8.924-35.033 7.845-46.081-.126-1.293-.232-2.378-.293-3.205-.286-3.894.989-9.983 3.563-10.287 2.066-.244 3.581 2.968 4.746 10.112 2.341 14.363 4.48 40.496-7.503 54.148-10.518 11.982-31.616 16.765-47.463 18.668-10.463 1.256-18.542 7.593-26.354 13.72-4.438 3.481-8.631 6.769-13.065 8.966-1.564.775-3.343 1.501-5.289 2.159a.776.776 0 0 1-.239.038zm-4.545-5.995a27.069 27.069 0 0 0 4.67 4.409c1.739-.603 3.332-1.26 4.738-1.957 4.296-2.128 8.43-5.37 12.806-8.802 7.975-6.255 16.222-12.723 27.102-14.029 15.587-1.872 36.311-6.543 46.515-18.168l.563.495-.563-.495c4.969-5.661 12.505-20.063 7.149-52.917-1.437-8.816-3.063-8.867-3.089-8.863-1.024.121-2.547 4.546-2.243 8.688.06.818.165 1.891.29 3.169 1.103 11.29 3.685 37.728-8.4 47.398-11.692 9.355-19.926 10.825-30.351 12.685-3.97.709-8.076 1.441-12.878 2.677-7.797 2.006-14.951 6.953-22.524 12.192-7.302 5.049-14.843 10.264-23.785 13.518z" fill="#5C0B86"/><path d="M456.401 395.773c10.105-11.512 10.611-33.387 7.326-53.532-2.834-17.386-7.326-6.884-6.821 0 .351 4.786 2.219 18.246.717 30.45 2.742.202 4.182 4.427 2.285 10.968-2.668 9.198-9.412 15.764-15.82 21.231 4.836-2.449 9.09-5.445 12.313-9.117z" fill="#5C0B86"/><path d="M444.089 405.639a.75.75 0 0 1-.487-1.32c6.579-5.612 13.021-12.025 15.586-20.869 1.146-3.949 1.116-7.333-.079-9.052-.411-.591-.929-.914-1.541-.959a.753.753 0 0 1-.689-.84c1.235-10.03.152-21.141-.429-27.11-.125-1.287-.23-2.368-.291-3.193-.286-3.894.989-9.983 3.563-10.287 2.066-.244 3.581 2.968 4.746 10.112 2.341 14.363 4.48 40.496-7.503 54.148-3.087 3.517-7.305 6.643-12.538 9.291a.768.768 0 0 1-.338.079zm14.36-33.55c.742.234 1.386.726 1.891 1.452 1.472 2.118 1.577 5.882.288 10.326-1.925 6.636-5.893 11.917-10.484 16.505 2.203-1.585 4.107-3.287 5.693-5.094 4.969-5.661 12.505-20.063 7.149-52.917-1.437-8.816-3.063-8.867-3.089-8.863-1.024.121-2.547 4.546-2.243 8.688.06.816.164 1.885.288 3.157.574 5.89 1.631 16.74.507 26.746zm-2.048 23.684h.01z" fill="#5C0B86"/><path d="M63.8 40.394 600.654.75l31.073 327.349-534.315 58.562z" fill="#BA72E2"/><path d="M97.412 387.411a.751.751 0 0 1-.746-.678L63.054 40.466a.75.75 0 0 1 .692-.821L600.598.002a.752.752 0 0 1 .802.677l31.074 327.349a.749.749 0 0 1-.665.816L97.493 387.407a.732.732 0 0 1-.081.004zM64.621 41.085l33.464 344.748 532.826-58.399L599.976 1.552z" fill="#5C0B86"/><path d="m76.064 51.304 513.979-39.292 29.053 305.826-509.305 56.811z" fill="#86D1FD"/><path d="M109.791 375.399a.749.749 0 0 1-.746-.672L75.318 51.382a.752.752 0 0 1 .689-.825l513.979-39.292a.752.752 0 0 1 .804.677l29.053 305.826a.749.749 0 0 1-.664.816l-509.305 56.811c-.028.002-.055.004-.083.004zM76.89 51.993l33.568 321.827 507.821-56.645-28.913-304.359z" fill="#5C0B86"/><path d="m613.439 318.469 5.657-.631-29.053-305.826-5.332.408zM63.8 40.394l-9.083 5.154 32.589 341.113h10.106z" fill="#5C0B86"/><path d="M97.412 387.411H87.306a.75.75 0 0 1-.747-.679L53.97 45.619a.751.751 0 0 1 .376-.724l9.083-5.154a.752.752 0 0 1 1.117.58l33.611 346.268a.75.75 0 0 1-.745.822zm-9.424-1.5h8.598L63.166 41.617 55.51 45.96z" fill="#5C0B86"/><path d="M92.657 387.411h-5.35a.75.75 0 0 1-.747-.679l-10.4-108.857a.75.75 0 1 1 1.493-.143l10.335 108.179h4.668a.75.75 0 0 1 .001 1.5z" fill="#BA72E2"/><path d="m119.517 196.584-38.259 23.661-2.674-27.552z" fill="#5C0B86"/><path d="M117.306 115.998s10.232 79.022 10.232 81.462-41.937 3.566-51.474 4.505-30.758 3.191-33.032 3.942-5.305-42.045-6.821-49.741-1.895-32.284-2.084-33.411c-.189-1.126 82.99-8.222 83.179-6.757z" fill="#fff"/><path d="M42.972 206.667a.971.971 0 0 1-.53-.162c-1.463-.949-2.547-9.228-4.866-32.073-.839-8.262-1.563-15.397-2.1-18.122-1.136-5.769-1.631-20.662-1.897-28.663-.08-2.409-.149-4.49-.191-4.77a.85.85 0 0 1 .292-.745c1.886-1.518 81.009-8.03 83.828-6.898a.826.826 0 0 1 .543.666c.418 3.228 10.238 79.098 10.238 81.558 0 1.847-5.09 2.685-36.906 4.33-6.657.344-12.407.642-15.245.921-12.085 1.189-30.89 3.254-32.87 3.908a.898.898 0 0 1-.296.05zm-8.055-83.416c.04.738.086 2.111.161 4.347.265 7.959.757 22.773 1.87 28.423.55 2.794 1.278 9.961 2.121 18.26 1.154 11.371 2.879 28.356 4.119 30.808 3.895-.906 25.296-3.132 32.804-3.871 2.872-.283 8.638-.581 15.314-.926 12.424-.642 33.037-1.708 35.47-3.069-.32-4.237-6.687-53.89-10.149-80.639-6.066-.493-75.096 5.144-81.71 6.667zm81.646-7.157v.001-.001z" fill="#5C0B86"/><path d="M108.148 160.295s-4.376-30.196-6.539-43.854c-24.142 1.562-67.619 5.5-67.482 6.314.19 1.126.568 25.715 2.084 33.411.581 2.951 1.386 11.065 2.284 19.905 5.579-1.855 15.531-4.993 24.052-6.766 12.633-2.628 45.601-9.01 45.601-9.01z" fill="#5C0B86"/><path d="M17.454 77.519s3.221 30.783 4.547 50.679 1.326 39.792 1.326 39.792l81.474-9.76s-.947-31.909-2.842-49.741-2.653-30.971-2.653-30.971H17.454z" fill="#fff"/><path d="M23.327 168.741a.752.752 0 0 1-.75-.75c0-.199-.015-20.101-1.325-39.743-1.31-19.654-4.513-50.343-4.545-50.651a.748.748 0 0 1 .746-.828h81.853a.75.75 0 0 1 .749.707c.008.131.779 13.327 2.65 30.934 1.876 17.656 2.836 49.478 2.846 49.798a.75.75 0 0 1-.66.767l-81.474 9.76a.68.68 0 0 1-.09.006zm-5.042-90.472c.521 5.049 3.273 32.011 4.464 49.879 1.159 17.395 1.307 34.99 1.325 38.997l79.955-9.578c-.151-4.739-1.1-32.84-2.816-48.998-1.63-15.333-2.427-27.332-2.613-30.3zm489.716 238.293-1.718 13.86-2.641.294-.939 11.524 13.809-1.513z" fill="#5C0B86"/><path d="M508.001 314.85c1.142-.036 23.495-1.58 39.6-3.832s30.148-2.82 31.095-3.621 1.911 22.199 3.237 34.775 3.529 31.349 3.719 32.476c.19 1.126-24.977 5.443-41.461 7.133-15.644 1.603-22.572 1.458-28.232 1.877-1.001-5.756-1.868-22.642-3.979-33.974-2.329-12.507-3.764-26.422-3.979-34.834z" fill="#fff"/><path d="M515.959 384.408a.749.749 0 0 1-.738-.622c-.405-2.326-.787-6.441-1.23-11.205-.662-7.121-1.485-15.983-2.748-22.76-2.481-13.32-3.792-27.152-3.992-34.952a.751.751 0 0 1 .727-.769c.945-.03 23.343-1.563 39.52-3.825 8.195-1.146 15.9-1.861 21.527-2.383 4.447-.413 8.647-.802 9.244-1.107.215-.182.532-.203.792-.094.801.338 1.012.99 2.189 17.637.444 6.282.903 12.779 1.429 17.766 1.337 12.683 3.526 31.325 3.712 32.43a.982.982 0 0 1-.17.662c-1.35 1.772-28.967 6.01-41.954 7.341-10.873 1.114-17.595 1.388-22.503 1.587-2.161.088-4.028.164-5.75.291a.338.338 0 0 1-.055.003zm-7.187-68.851c.257 7.853 1.555 21.156 3.945 33.99 1.274 6.844 2.102 15.744 2.767 22.895.399 4.3.75 8.066 1.106 10.42 1.553-.102 3.221-.169 5.113-.246 4.889-.199 11.584-.471 22.411-1.581 15.623-1.601 37.739-5.387 40.736-6.7-.41-3.097-2.411-20.211-3.664-32.084-.528-5.013-.988-11.522-1.434-17.817-.467-6.609-.99-14.011-1.419-16.106-1.165.291-3.641.545-9.17 1.058-5.612.521-13.298 1.234-21.458 2.375-14.784 2.068-34.771 3.529-38.933 3.796z" fill="#5C0B86"/></svg></g><g transform="translate(1653.0 1560.0) rotate(0.0 606.0 376.5) scale(3.0272678907286177 3.034222646664168)"><svg width="400.361" height="248.169" viewBox="0 0 400.361 248.169"><path d="M173.388.75c-5.417 4.715-46.472 34.274-66.289 47.515S69.586 80.049 46.281 94.913 3.825 121.801.75 124.556c7.915 4.635 78.195 38.601 102.652 50.728 45.302 22.463 151.261 70.683 154.337 72.105 3.076 1.423 40.471-48.75 55.16-64.363s86.712-90.609 86.712-90.609z" fill="#fff"/><path d="M257.786 248.146a.842.842 0 0 1-.361-.075c-.28-.129-1.41-.646-3.269-1.495-70.868-32.369-124.525-57.449-151.087-70.62-7.952-3.943-20.934-10.285-34.677-17C39.023 144.608 5.736 128.345.371 125.203a.748.748 0 0 1-.121-1.206c2.601-2.33 15.861-10.769 34.215-22.448 3.647-2.321 7.471-4.754 11.414-7.269 12.58-8.024 23.508-17.112 34.077-25.902 9.056-7.531 17.609-14.645 26.728-20.738C126.422 34.452 167.561 4.828 172.897.183a.75.75 0 0 1 .774-.129l226.224 91.667a.75.75 0 0 1 .26 1.215c-.72.75-72.188 75.172-86.707 90.604-6.074 6.456-16.15 18.974-25.895 31.08-20.396 25.336-27.366 33.526-29.767 33.526zM2.078 124.443c7.534 4.126 39.028 19.513 66.973 33.166 13.746 6.716 26.729 13.059 34.685 17.004 26.548 13.164 80.19 38.236 151.043 70.599 1.661.758 2.742 1.252 3.155 1.442 2.514-.755 16.881-18.604 28.448-32.974 9.762-12.128 19.857-24.669 25.971-31.167 13.709-14.571 78.157-81.7 85.95-89.816L173.527 1.616c-6.601 5.513-46.627 34.319-66.012 47.272-9.053 6.049-17.577 13.139-26.602 20.644-10.603 8.82-21.569 17.939-34.229 26.014-3.943 2.515-7.767 4.949-11.415 7.27-16.182 10.297-29.238 18.606-33.191 21.627z" fill="#5c0b86"/><path d="m163.23 82.517-22.329-22.095 6.325-4.898 37.057 6.42zm24.511-30.128a.75.75 0 0 1-.628-.34L174.515 32.68a.75.75 0 0 1 .708-1.155l29.25 3.096a.75.75 0 0 1 .446 1.283l-16.652 16.272a.76.76 0 0 1-.526.213zm-11.11-19.206 11.24 17.281 14.858-14.518z" fill="#ba72e2"/><g fill="#5c0b86"><path d="M258.698 213.231a.751.751 0 0 1-.546-.235l-65.604-69.558a.752.752 0 0 1-.113-.875.755.755 0 0 1 .797-.377l105.539 19.807a.75.75 0 0 1-.276 1.474l-103.274-19.382 64.023 67.881a.75.75 0 0 1-.546 1.265z"/><path d="M248.642 213.538a.75.75 0 0 1-.568-1.239l48.042-55.932a.751.751 0 0 1 1.138.978l-48.042 55.932a.753.753 0 0 1-.57.261zm-44.268-54.221a.75.75 0 0 1-.551-1.258l12.522-13.591a.75.75 0 0 1 1.103 1.017l-12.522 13.591a.754.754 0 0 1-.552.241zm32.76 31.051a.75.75 0 0 1-.539-1.271l31.432-32.531a.75.75 0 1 1 1.078 1.042l-31.432 32.531a.748.748 0 0 1-.539.229z"/></g><path d="m146.155 137.607 15.816-15.455 21.683 3.762 12.633-12.344-89.693-15.539-15.31 11.855 54.046 53.478 13.442-13.136z" fill="#ba72e2"/><path d="M280.646 112.399a.75.75 0 0 1-.516-1.294l31.243-29.645a.75.75 0 1 1 1.032 1.088l-31.243 29.645a.746.746 0 0 1-.516.206zm22.438 5.961a.75.75 0 0 1-.543-1.269l25.688-26.914a.75.75 0 0 1 1.085 1.037l-25.688 26.914a.747.747 0 0 1-.542.232z" fill="#5c0b86"/></svg></g><g transform="translate(2868.0 1188.0) rotate(-6.095861544596055 -547.5 289.5) scale(-3.039910274063874 3.0166934122501723)"><svg width="360.208" height="191.932" viewBox="0 0 360.208 191.932"><g fill="#5C0B86"><path d="M354.029 128.77 80.98 190.806a15.088 15.088 0 0 1-16.633-7.57L1.534 66.364A6.509 6.509 0 0 1 .75 63.18c.044-2.957.004-4.8.004-4.8l266.32-52.604c5-.978 10.114 1.029 13.114 5.146l79.255 106.556s.006 3.054.014 4.439c.018 3.105-2.053 6.086-5.428 6.853z"/><path d="M77.66 191.928c-5.736 0-11.177-3.136-13.973-8.338L.873 66.719A7.296 7.296 0 0 1 0 63.169c.043-2.907.004-4.755.004-4.773a.751.751 0 0 1 .604-.752L266.929 5.04a13.91 13.91 0 0 1 13.866 5.44l79.251 106.55a.749.749 0 0 1 .148.446s.006 3.052.014 4.437c.021 3.659-2.452 6.779-6.013 7.589L81.146 191.537c-1.161.264-2.33.391-3.486.391zM1.514 58.994c.008.784.016 2.258-.013 4.197a5.699 5.699 0 0 0 .694 2.818L65.008 182.88c3.042 5.659 9.54 8.615 15.806 7.194l273.048-62.036a6.193 6.193 0 0 0 4.845-6.117c-.006-1.148-.012-3.44-.014-4.195L279.587 11.37a12.413 12.413 0 0 0-12.369-4.858zm352.515 69.776h.01z"/><path d="M354.029 123.989 80.98 186.024a15.088 15.088 0 0 1-16.633-7.57L1.534 61.583c-2.086-3.88.183-8.671 4.506-9.517L267.074.994c5-.978 10.114 1.029 13.114 5.146l77.928 106.95c2.949 4.047.795 9.79-4.087 10.899z"/><path d="M77.66 187.147c-5.736 0-11.177-3.136-13.973-8.338L.873 61.938c-1.108-2.062-1.169-4.457-.167-6.572s2.894-3.586 5.19-4.035L266.93.258a13.911 13.911 0 0 1 13.864 5.44l77.928 106.95c1.534 2.105 1.903 4.817.989 7.255s-2.977 4.239-5.517 4.816L81.146 186.756c-1.161.264-2.33.391-3.486.391zM269.572 1.503c-.782 0-1.57.075-2.354.228L6.185 52.802a5.739 5.739 0 0 0-4.123 3.206 5.735 5.735 0 0 0 .133 5.22L65.008 178.1c3.042 5.659 9.54 8.617 15.806 7.194l273.048-62.036a6.203 6.203 0 0 0 4.444-3.88 6.204 6.204 0 0 0-.796-5.845L279.582 6.583c-2.346-3.221-6.106-5.08-10.01-5.08zm84.457 122.486h.01z"/></g><path d="M330.083 122.241 85.032 177.916a15.088 15.088 0 0 1-16.633-7.57L12.471 66.286c-2.086-3.88.183-8.671 4.506-9.517l234.617-45.903c5-.978 10.114 1.029 13.114 5.146l69.462 95.331c2.949 4.046.795 9.789-4.087 10.898z" fill="#86D1FD"/><path d="M81.711 179.039c-5.736 0-11.177-3.136-13.973-8.338L11.81 66.641a7.221 7.221 0 0 1-.167-6.572 7.222 7.222 0 0 1 5.19-4.036L251.451 10.13a13.908 13.908 0 0 1 13.865 5.441l69.461 95.33a7.697 7.697 0 0 1 .989 7.255 7.698 7.698 0 0 1-5.516 4.815L85.198 178.648c-1.161.263-2.33.391-3.487.391zM254.093 11.375a12.2 12.2 0 0 0-2.354.228L17.122 57.505c-1.825.357-3.327 1.526-4.123 3.206s-.747 3.583.133 5.22l55.928 104.06c3.042 5.659 9.541 8.615 15.806 7.194l245.051-55.675a6.201 6.201 0 0 0 4.444-3.879 6.2 6.2 0 0 0-.796-5.845l-69.461-95.331a12.415 12.415 0 0 0-10.011-5.08z" fill="#5C0B86"/><ellipse cx="308.73" cy="61.763" fill="#BA72E2" rx="2.716" ry="3.726" transform="matrix(.8211 -.5708 .5708 .8211 19.9861 187.286)"/><path d="M77.66 187.147c-5.736 0-11.177-3.136-13.973-8.338L.873 61.938a.75.75 0 0 1 1.322-.71L65.008 178.1c3.042 5.659 9.54 8.617 15.806 7.194l273.048-62.036a.75.75 0 1 1 .332 1.462L81.146 186.756c-1.161.264-2.33.391-3.486.391z" fill="#BA72E2"/></svg></g><g transform="translate(816.0 342.0) rotate(0.0 475.5 309.0) scale(3.0224634825389964 3.035855516856858)"><svg width="314.644" height="203.567" viewBox="0 0 314.644 203.567"><defs xmlns:xlink="http://www.w3.org/1999/xlink"><clipPath id="c"><use xlink:href="#b"/></clipPath><path id="b" d="M340.326.75h291.525v173.305H340.326z" fill="#000"/></defs><use xmlns:xlink="http://www.w3.org/1999/xlink" fill="#86d1fd" xlink:href="#b"/><g clip-path="url(#c)"><path d="M301.27 63.535h197.311V251.62H301.27z" fill="#ba72e2"/><g fill="#5c0b86"><path d="M498.581 252.371H301.27a.75.75 0 0 1-.75-.75V63.535a.75.75 0 0 1 .75-.75h197.311a.75.75 0 0 1 .75.75v188.086a.75.75 0 0 1-.75.75zm-196.561-1.5h195.811V64.285H302.02z"/><path d="M498.581 85.935H301.27a.75.75 0 0 1 0-1.5h197.311a.75.75 0 0 1 0 1.5z"/><circle cx="312.264" cy="74.037" r="3.444"/></g></g><path d="m128.702 146.251 34.061-3.359 20.154 42.948 45.608-4.724-69.702-149.478-47.976 4.137-40.47 161.723 46.752-4.843z" fill="#fff"/><path d="M70.376 198.248a.753.753 0 0 1-.728-.932L110.12 35.593a.748.748 0 0 1 .663-.565l47.976-4.137a.746.746 0 0 1 .744.43l69.702 149.478a.75.75 0 0 1-.602 1.064l-45.608 4.725a.744.744 0 0 1-.756-.428l-19.929-42.468-33.007 3.254-11.446 45.892a.747.747 0 0 1-.65.564l-46.752 4.843a1.063 1.063 0 0 1-.079.003zm41.069-161.772L71.364 196.641l45.164-4.678 11.446-45.895a.75.75 0 0 1 .654-.564l34.061-3.358a.743.743 0 0 1 .753.428l19.928 42.466 44.03-4.562L158.365 32.43zm5.684 156.179h.01z" fill="#5c0b86"/><path d="m309.891 18.507-95.474 8.231-1.803-18.703L308.143 0zm2.735 28.96-95.388 8.538-.9-9.339 95.415-8.44zm2.018 21.366-95.325 8.763-.899-9.33 95.352-8.666z" fill="#ba72e2"/><g fill="#5c0b86"><path d="M209.444 28.023a.75.75 0 0 1-.063-1.498l4.981-.43a.751.751 0 0 1 .129 1.495l-4.981.43a.729.729 0 0 1-.066.003zM17.707 44.556a.75.75 0 0 1-.063-1.498l9.587-.827a.75.75 0 1 1 .129 1.495l-9.587.827a.729.729 0 0 1-.066.003zm19.174-1.653a.75.75 0 0 1-.063-1.498l9.587-.827a.75.75 0 1 1 .129 1.495l-9.588.827a.69.69 0 0 1-.065.003zm19.174-1.653a.75.75 0 0 1-.063-1.498l9.587-.827a.75.75 0 1 1 .129 1.495l-9.587.827a.763.763 0 0 1-.066.003zm19.174-1.654a.75.75 0 0 1-.063-1.498l9.587-.826a.75.75 0 1 1 .129 1.495l-9.587.826a.763.763 0 0 1-.066.003zm19.173-1.653a.75.75 0 0 1-.063-1.498l9.587-.826a.75.75 0 1 1 .129 1.495l-9.587.826a.729.729 0 0 1-.066.003zm19.174-1.653a.75.75 0 0 1-.063-1.498l9.587-.826a.75.75 0 1 1 .129 1.495l-9.587.826a.745.745 0 0 1-.066.003zm19.174-1.654a.75.75 0 0 1-.063-1.498l9.587-.826a.75.75 0 1 1 .129 1.495l-9.587.826a.763.763 0 0 1-.066.003zm19.173-1.653a.75.75 0 0 1-.063-1.498l9.587-.826a.75.75 0 1 1 .129 1.495l-9.587.826a.729.729 0 0 1-.066.003zm19.174-1.653a.75.75 0 0 1-.063-1.498l9.587-.826a.75.75 0 0 1 .129 1.495l-9.587.826a.745.745 0 0 1-.066.003zm19.174-1.654a.75.75 0 0 1-.063-1.498l9.587-.826a.75.75 0 1 1 .129 1.495l-9.587.826a.763.763 0 0 1-.066.003zM3.139 45.812a.75.75 0 0 1-.063-1.498l4.982-.43c.414-.049.776.27.812.683s-.27.776-.683.812l-4.982.43a.745.745 0 0 1-.066.003zm220.412 136.569a.75.75 0 0 1-.076-1.496l4.974-.516a.743.743 0 0 1 .823.669.75.75 0 0 1-.669.823l-4.974.516a.68.68 0 0 1-.078.004zM33.5 202.068a.75.75 0 0 1-.076-1.496l9.503-.984a.75.75 0 0 1 .154 1.492l-9.503.984a.68.68 0 0 1-.078.004zm19.006-1.969a.75.75 0 0 1-.076-1.496l9.502-.984a.746.746 0 0 1 .823.669.75.75 0 0 1-.669.823l-9.502.984a.703.703 0 0 1-.078.004zm19.005-1.969a.75.75 0 0 1-.076-1.496l9.503-.984a.75.75 0 1 1 .154 1.492l-9.503.984a.703.703 0 0 1-.078.004zm19.005-1.968a.75.75 0 0 1-.076-1.496l9.502-.984a.75.75 0 0 1 .154 1.492l-9.502.984a.68.68 0 0 1-.078.004zm19.005-1.969a.75.75 0 0 1-.076-1.496l9.503-.984a.75.75 0 0 1 .154 1.492l-9.503.984a.68.68 0 0 1-.078.004zm19.005-1.968a.75.75 0 0 1-.076-1.496l9.502-.984a.75.75 0 0 1 .154 1.492l-9.502.984a.68.68 0 0 1-.078.004zm19.005-1.969a.75.75 0 0 1-.076-1.496l9.503-.984a.75.75 0 1 1 .154 1.492l-9.503.984a.68.68 0 0 1-.078.004zm19.005-1.968a.75.75 0 0 1-.076-1.496l9.503-.984a.743.743 0 0 1 .823.669.75.75 0 0 1-.669.823l-9.503.984a.68.68 0 0 1-.078.004zm19.005-1.969a.75.75 0 0 1-.076-1.496l9.503-.984a.75.75 0 0 1 .154 1.492l-9.503.984a.68.68 0 0 1-.078.004zm19.005-1.969a.75.75 0 0 1-.076-1.496l9.502-.984c.412-.052.781.257.823.669s-.257.78-.669.823l-9.502.984a.68.68 0 0 1-.078.004zM19.025 203.567a.75.75 0 0 1-.076-1.496l4.973-.516c.413-.055.781.257.823.669s-.257.78-.669.823l-4.973.516a.69.69 0 0 1-.078.004zM1.25 27.05a.75.75 0 0 1-.745-.675L.004 21.4a.75.75 0 0 1 .671-.821.74.74 0 0 1 .821.671l.501 4.975a.75.75 0 0 1-.747.825z"/><path d="M17.507 188.501a.75.75 0 0 1-.745-.675l-1.016-10.091a.75.75 0 0 1 .671-.821c.415-.05.78.26.821.671l1.016 10.091a.75.75 0 0 1-.671.821c-.025.004-.051.004-.076.004zm-2.032-20.181a.75.75 0 0 1-.745-.675l-1.016-10.091a.75.75 0 0 1 .671-.821.745.745 0 0 1 .821.671l1.016 10.091a.75.75 0 0 1-.747.825zm-2.032-20.181a.75.75 0 0 1-.745-.675l-1.016-10.091a.75.75 0 1 1 1.492-.15l1.016 10.091a.75.75 0 0 1-.747.825zm-2.032-20.181a.75.75 0 0 1-.745-.675L9.65 117.192a.75.75 0 0 1 .671-.821.74.74 0 0 1 .821.671l1.016 10.091a.75.75 0 0 1-.747.825zm-2.032-20.182a.75.75 0 0 1-.745-.675L7.617 97.01a.75.75 0 0 1 .671-.821.743.743 0 0 1 .821.671l1.016 10.091a.75.75 0 0 1-.746.825zM7.346 87.594a.75.75 0 0 1-.745-.675l-1.016-10.09a.75.75 0 1 1 1.492-.15L8.093 86.77a.75.75 0 0 1-.747.824zm-2.032-20.18a.75.75 0 0 1-.745-.675L3.553 56.648a.75.75 0 1 1 1.492-.15l1.016 10.091a.75.75 0 0 1-.747.825zM3.282 47.232a.75.75 0 0 1-.745-.675L1.521 36.466a.75.75 0 1 1 1.492-.15l1.016 10.091a.75.75 0 0 1-.747.825zm15.743 156.335a.75.75 0 0 1-.745-.675l-.501-4.975a.75.75 0 0 1 .671-.821.737.737 0 0 1 .821.671l.501 4.975a.75.75 0 0 1-.747.825z"/></g></svg></g><g transform="translate(777.0 1914.0) rotate(0.0 226.5 51.0) scale(2.9587731215383006 2.934491786299951)"><svg width="153.104" height="34.759" viewBox="0 0 153.104 34.759"><path d="M145.661 34.664 19.119 12.712a22.026 22.026 0 0 1-6.861-2.407L.368 3.755c-.592-.326-.436-1.21.233-1.317L14.031.28a22.112 22.112 0 0 1 7.278.045l126.542 21.952c3.453.599 5.762 3.858 5.157 7.278-.604 3.421-3.894 5.708-7.347 5.109z" fill="#BA72E2"/></svg></g><g transform="translate(2178.0 1353.0) rotate(0.0 130.5 103.5) scale(3.0612963006404095 3.050038309659928)"><svg width="85.258" height="67.868" viewBox="0 0 85.258 67.868"><g><path style="fill:#5c0b86" d="M84.43 67.868a.68.68 0 0 1-.078-.004l-24.746-2.597a.75.75 0 0 1-.672-.758l.288-18.152-16.827-1.697L25.4 61.402a.754.754 0 0 1-.605.212L.672 59.083A.75.75 0 0 1 .227 57.8L59.367.213a.751.751 0 0 1 .591-.21L84.577 2.25a.75.75 0 0 1 .682.748l-.079 64.121a.753.753 0 0 1-.75.749zm-23.985-4.02 23.237 2.438.076-62.604-23.592-2.154L2.42 57.758l22.18 2.327 16.994-16.74a.74.74 0 0 1 .602-.212l17.863 1.802a.75.75 0 0 1 .675.758l-.289 18.155z"/></g></svg></g><g transform="translate(315.0 189.0) rotate(0.0 1269.0 1042.5) scale(3.0276316119096385 3.032233294357865)"><svg width="838.279" height="687.612" viewBox="0 0 838.279 687.612"><g><g><path style="fill:#5c0b86" d="M293.54 347.198a.75.75 0 0 1-.442-1.357 29.645 29.645 0 0 1 10.092-4.717.75.75 0 1 1 .365 1.455 28.12 28.12 0 0 0-9.576 4.475.74.74 0 0 1-.439.144zm32.565-8.435a.75.75 0 0 1-.111-1.492l15.894-2.418a.75.75 0 1 1 .225 1.483l-15.894 2.418a.75.75 0 0 1-.114.009zM81.296 447.205a.75.75 0 0 1-.541-1.27 35.163 35.163 0 0 1 9.325-6.93.75.75 0 1 1 .685 1.334 33.687 33.687 0 0 0-8.928 6.635.747.747 0 0 1-.541.231zm9.83 2.263a.75.75 0 0 1-.61-1.187 9.84 9.84 0 0 1 7.437-4.069c.418-.045.766.297.788.711a.75.75 0 0 1-.71.787c-2.454.126-4.865 1.446-6.294 3.444a.748.748 0 0 1-.611.314zm19.751-.726h-1.516a.75.75 0 0 1 0-1.5h1.516a.75.75 0 0 1 0 1.5zm145.511-4.505a.754.754 0 0 1-.094-.006 63.36 63.36 0 0 1-15.326-3.899.751.751 0 0 1 .548-1.397 61.843 61.843 0 0 0 14.962 3.808.75.75 0 0 1-.09 1.494zm.787 10.481a.737.737 0 0 1-.206-.029l-15.917-4.545a.75.75 0 0 1-.515-.927.748.748 0 0 1 .927-.515l15.916 4.545a.75.75 0 0 1-.205 1.471zM245.782 435.1h-22.737a.75.75 0 0 1 0-1.5h22.737a.75.75 0 0 1 0 1.5zm185.19-74.505a.751.751 0 0 1-.336-1.421 122.437 122.437 0 0 1 13.192-5.655.75.75 0 0 1 .509 1.41 121.216 121.216 0 0 0-13.03 5.587.745.745 0 0 1-.335.079zm6.559 1.496a.749.749 0 0 1-.417-1.374 13.263 13.263 0 0 1 5.891-2.146.744.744 0 0 1 .828.663.749.749 0 0 1-.663.827c-1.86.206-3.666.864-5.222 1.904a.756.756 0 0 1-.417.126zM61.475 408.434a.75.75 0 0 1-.528-1.283l7.604-7.554a.75.75 0 1 1 1.057 1.065l-7.604 7.554a.747.747 0 0 1-.529.218zm7.612 3.158a.75.75 0 0 1-.746-.84c.323-2.677 1.971-5.185 4.301-6.542a.749.749 0 1 1 .756 1.295c-1.933 1.127-3.3 3.206-3.568 5.427a.75.75 0 0 1-.743.66zm10.018 1.578a.75.75 0 0 1-.583-1.221l3.714-4.608a.75.75 0 0 1 1.168.942l-3.714 4.608a.753.753 0 0 1-.585.279zM7.857 379.854a.749.749 0 0 1-.413-1.376l5.969-3.933a.749.749 0 1 1 .825 1.252l-5.969 3.933a.746.746 0 0 1-.412.124zm14.377 55.326a.752.752 0 0 1-.272-1.45l12.066-4.702a.753.753 0 0 1 .971.427.752.752 0 0 1-.427.972l-12.066 4.702a.74.74 0 0 1-.272.051zm3.041 6.862a.75.75 0 0 1-.242-1.46l12.02-4.101a.75.75 0 0 1 .484 1.42l-12.02 4.101a.753.753 0 0 1-.242.04zm39.644-13.051-.274-.704-.09-.751 2.94-.734a.75.75 0 1 1 .363 1.455l-2.939.734zm-.274-.704h.01-.01zm119.745 2.261a.75.75 0 0 1-.305-1.435l6.822-3.03a.75.75 0 1 1 .609 1.371l-6.821 3.03a.766.766 0 0 1-.305.064zM5.497 124.405a.748.748 0 0 1-.449-.15l-3.032-2.272a.75.75 0 1 1 .9-1.199l3.032 2.272a.75.75 0 0 1-.451 1.349zm5.337-2.315a.748.748 0 0 1-.531-.22l-.757-.757a.751.751 0 0 1 1.059-1.063l.759.759a.75.75 0 0 1-.53 1.281zm23.495-41.685a.75.75 0 0 1-.689-1.045l2.274-5.306a.75.75 0 1 1 1.379.591l-2.274 5.304a.75.75 0 0 1-.69.456zM1.706 73.584h-.002a.75.75 0 0 1-.748-.752 20.079 20.079 0 0 1 1.637-7.863.75.75 0 0 1 1.377.595 18.551 18.551 0 0 0-1.513 7.271.752.752 0 0 1-.751.749zm3.065 12.127a.75.75 0 0 1-.67-1.086l2.274-4.547a.75.75 0 1 1 1.341.67l-2.274 4.549a.75.75 0 0 1-.671.414zM57.8 151.656a.75.75 0 0 1-.703-.489 7.223 7.223 0 0 0-2.714-3.452.75.75 0 0 1 .839-1.244 8.738 8.738 0 0 1 3.281 4.175.75.75 0 0 1-.703 1.01zm427.434 186.466a.749.749 0 0 1-.6-.3l-2.276-3.029a.75.75 0 1 1 1.199-.901l2.276 3.029a.75.75 0 0 1-.599 1.201zm-4.505-27.317a.744.744 0 0 1-.53-.22l-3.031-3.032a.75.75 0 1 1 1.061-1.061l3.031 3.032a.75.75 0 0 1-.531 1.281zm10.403-2.957a.75.75 0 0 1-.706-.497l-1.377-3.84a.75.75 0 1 1 1.412-.506l1.377 3.84a.75.75 0 0 1-.706 1.003zm7.845-299.376a.75.75 0 0 1-.486-1.322l8.208-6.973a.75.75 0 1 1 .971 1.143l-8.208 6.973a.742.742 0 0 1-.485.179zm12.06 6.742a.75.75 0 0 1-.412-1.377 14.684 14.684 0 0 1 7.198-2.377.75.75 0 0 1 .086 1.498c-2.302.133-4.536.87-6.462 2.133a.744.744 0 0 1-.41.123zm292.187 483.065a.75.75 0 0 1-.222-1.466l10.998-3.41a.751.751 0 0 1 .444 1.433l-10.999 3.41a.759.759 0 0 1-.221.033zm6.01 2.859a.75.75 0 0 1-.252-1.456l7.073-2.526a.75.75 0 1 1 .505 1.412l-7.074 2.526a.716.716 0 0 1-.252.044zm25.768-14.652a.75.75 0 0 1-.146-1.486l2.526-.505c.406-.085.801.183.882.589s-.182.801-.589.882l-2.526.505a.733.733 0 0 1-.147.015zm-308.715-35.874a.75.75 0 0 1-.75-.75v-4.547a.75.75 0 0 1 1.5 0v4.547a.75.75 0 0 1-.75.75zm8.573 1.526a.75.75 0 0 1-.636-.351 10.94 10.94 0 0 1-1.601-7.064.756.756 0 0 1 .832-.658.75.75 0 0 1 .658.832 9.437 9.437 0 0 0 1.381 6.092.75.75 0 0 1-.634 1.149zm259.248-52.026a.749.749 0 0 1-.575-1.232l5.065-6.053a.75.75 0 1 1 1.151.963l-5.065 6.053a.752.752 0 0 1-.576.269zM442.919 510.237a.75.75 0 0 1-.175-1.479 21.398 21.398 0 0 1 9.951-.008.751.751 0 0 1 .555.904.755.755 0 0 1-.904.555 19.83 19.83 0 0 0-9.249.008.852.852 0 0 1-.178.02zm12.631-4.551a.754.754 0 0 1-.263-.048l-4.042-1.516a.75.75 0 0 1 .526-1.404l4.043 1.516a.75.75 0 0 1-.264 1.452zm-106.655 71.25a.75.75 0 0 1-.736-.609l-1.058-5.549a.749.749 0 1 1 1.473-.281l1.058 5.549a.749.749 0 0 1-.737.89zm-30.799 66.597a.75.75 0 0 1-.18-1.477l7.61-1.896a.75.75 0 1 1 .362 1.455l-7.61 1.896a.761.761 0 0 1-.182.022zm-1.996 4.176a.75.75 0 0 1-.055-1.498l14.646-1.099c.417-.011.773.279.804.692a.75.75 0 0 1-.692.804l-14.646 1.099-.057.002zm-18.739 2.545c-.363 0-.727-.029-1.089-.089a.75.75 0 1 1 .246-1.48c1.559.261 3.255-.244 4.422-1.312a.75.75 0 1 1 1.013 1.108 6.842 6.842 0 0 1-4.592 1.773zM4.794 687.612a.748.748 0 0 1-.671-.414L.08 679.114a.751.751 0 0 1 .335-1.007.752.752 0 0 1 1.006.335l4.043 8.084a.751.751 0 0 1-.67 1.086z"/><path style="fill:#ba72e2" d="M241.827 515.779a.716.716 0 0 1-.138-.013 86.912 86.912 0 0 0-15.031-1.469.75.75 0 0 1 .008-1.5h.008a88.525 88.525 0 0 1 15.29 1.494.75.75 0 0 1-.137 1.488zm3.072 10.022a.749.749 0 0 1-.314-.069l-6.15-2.844a.75.75 0 1 1 .629-1.361l6.15 2.844a.75.75 0 0 1-.315 1.43zm-114.887 84.928a.75.75 0 0 1-.708-.997 25.92 25.92 0 0 1 3.861-7.18.75.75 0 1 1 1.193.908 24.455 24.455 0 0 0-3.638 6.766.748.748 0 0 1-.708.503zm4.098 5.59a.749.749 0 0 1-.735-.905 11.386 11.386 0 0 1 2.297-4.821.749.749 0 1 1 1.164.946 9.891 9.891 0 0 0-1.994 4.185.748.748 0 0 1-.732.595zm27.382-2.023a.69.69 0 0 1-.142-.014 9.756 9.756 0 0 1-4.432-2.108.75.75 0 0 1 .965-1.149 8.253 8.253 0 0 0 3.749 1.784.749.749 0 0 1 .595.877.749.749 0 0 1-.735.61zm-22.615 27.861c-2.576 0-5.152-.482-7.55-1.423a.749.749 0 0 1-.424-.972.748.748 0 0 1 .972-.425 19.251 19.251 0 0 0 8.821 1.232c.413-.056.779.262.819.674a.749.749 0 0 1-.675.818c-.653.065-1.308.096-1.963.096zm697.642-198.113a.75.75 0 0 1-.75-.75v-4.547a.75.75 0 0 1 1.5 0v4.547a.75.75 0 0 1-.75.75zm-2.029 14.147a.75.75 0 0 1-.749-.717 67.527 67.527 0 0 0-1.979-13.495.75.75 0 0 1 1.455-.367 68.924 68.924 0 0 1 2.024 13.796.749.749 0 0 1-.716.782l-.035.001z"/></g></g></svg></g></svg>