<svg xmlns="http://www.w3.org/2000/svg" viewBox="0 0 3000 2625" width="3000" height="2625"><g transform="translate(1425.0 885.0) rotate(0.0 573.75 343.125) scale(3.753790592461015 3.7551505069795184)"><svg width="305.691" height="182.749" viewBox="0 0 305.691 182.749"><defs xmlns:xlink="http://www.w3.org/1999/xlink"><clipPath id="b"><use xlink:href="#a"/></clipPath><path id="a" d="M6.353.75h291.525v173.305H6.353z" fill="#FDDE5F"/></defs><use xmlns:xlink="http://www.w3.org/1999/xlink" fill="#FDDE5F" xlink:href="#a"/><g clip-path="url(#b)"><path d="M132.44 24.264h197.311v188.085H132.44z" fill="#FB896F"/><g fill="#692324"><path d="M329.751 213.099H132.44a.75.75 0 0 1-.75-.75V24.264a.75.75 0 0 1 .75-.75h197.311a.75.75 0 0 1 .75.75v188.085a.75.75 0 0 1-.75.75zm-196.561-1.5h195.811V25.014H133.19z"/><path d="M329.751 46.665H132.44a.75.75 0 0 1 0-1.5h197.311a.75.75 0 0 1 0 1.5z"/><circle cx="143.434" cy="34.766" r="3.444"/><circle cx="155.743" cy="34.766" r="3.444"/><circle cx="168.052" cy="34.766" r="3.444"/></g></g><path clip-path="url(#b)" d="M176.036 141.213h-17.233V75.782h17.233zm26.482-43.692h-17.233v43.692h17.233zm26.481 14.387h-17.233v29.305h17.233zm26.481-24.542h-17.233v53.847h17.233zm26.482 15.734h-17.233v38.113h17.233z" fill="#FDDE5F"/><g clip-path="url(#b)"><path d="M-32.704 63.535h197.311V251.62H-32.704z" fill="#FB896F"/><g fill="#692324"><path d="M164.607 252.371H-32.704a.75.75 0 0 1-.75-.75V63.535a.75.75 0 0 1 .75-.75h197.311a.75.75 0 0 1 .75.75v188.086a.75.75 0 0 1-.75.75zm-196.561-1.5h195.811V64.285H-31.954z"/><path d="M164.607 85.935H-32.704a.75.75 0 0 1 0-1.5h197.311a.75.75 0 0 1 0 1.5z"/><circle cx="2.908" cy="74.037" r="3.444"/></g></g><g fill="#692324"><path clip-path="url(#b)" d="M140.561 159.629a.75.75 0 0 1-.638-.356l-18.845-30.593-16.528 24.306a.75.75 0 0 1-1.279-.064l-25.856-47.526-27.137 51.56a.751.751 0 0 1-1.198.177l-14.603-14.847-12.857 14.068a.75.75 0 0 1-1.108-1.012l13.389-14.652a.75.75 0 0 1 .54-.244c.189-.021.404.077.548.224l14.438 14.679 27.311-51.892a.751.751 0 0 1 .658-.4c.289-.044.532.148.664.392L104 151.126l16.488-24.247a.77.77 0 0 1 .637-.328c.254.006.488.14.622.356l18.719 30.389 8.509-18.436a.75.75 0 0 1 1.362.629l-9.095 19.705a.751.751 0 0 1-.636.435h-.045z"/><path d="M297.877 174.805H6.353a.75.75 0 0 1-.75-.75V.75c0-.415.335-.75.75-.75h291.525a.75.75 0 0 1 .75.75v173.306a.75.75 0 0 1-.751.749zm-290.774-1.5h290.025V1.5H7.103z"/></g></svg></g><g transform="translate(1522.5 -296.25) rotate(89.99999999999996 373.125 757.5) scale(3.7575528700906347 3.756508802380362)"><svg width="198.6" height="403.3" viewBox="0 0 198.6 403.3"><clipPath id="c"><path d="M.8.7h197.1v401.8H.8z"/></clipPath><path d="M.8.7h197.1v401.8H.8z" fill="#fff"/><path d="M49.1 403.3c-.2 0-.4-.1-.5-.2-23-22.2-35.6-59.8-29.9-89.3 3.6-18.8 14-32.2 30.1-38.8 25.7-10.5 46.6-10.1 63.4-9.8 21.4.4 35.5.6 45.3-20.7 9.3-20.1-14.6-43.6-39.8-68.5-25.1-24.8-51.1-50.5-44.8-74.4 5.3-20.1 29.9-32 56-44.6 29.4-14.2 59.8-28.9 59.8-56.2 0-.4.3-.7.8-.7s.8.3.8.8c0 28.3-30.8 43.2-60.7 57.6-25.8 12.4-50.1 24.2-55.2 43.6-6.1 23.1 19.6 48.5 44.4 73 25.6 25.3 49.8 49.2 40.1 70.2-10.3 22.2-25.5 21.9-46.7 21.5-16.7-.3-37.4-.7-62.8 9.7-19.7 8-26.8 24.9-29.2 37.7-5.6 29.1 6.8 66.1 29.5 88 .3.3.3.8 0 1.1-.2-.1-.4 0-.6 0z" fill="#FB896F"/><g clip-path="url(#c)"><path d="M124.4 365.4c-.1 0-.3 0-.4-.1l-138-85.5c-.4-.2-.5-.7-.2-1 .2-.4.7-.5 1-.2l138 85.5c.4.2.5.7.2 1-.1.2-.3.3-.6.3z" fill="#692324"/><path d="m9.435 302.424 8-12.924 97.784 60.524-8 12.925z" fill="#FB896F"/><path d="M107.2 363.7c-.1 0-.3 0-.4-.1L9.1 303.1c-.4-.2-.5-.7-.2-1l8-12.9c.1-.2.3-.3.5-.3s.4 0 .6.1l97.8 60.5c.4.2.5.7.2 1l-8 12.9c-.1.2-.3.3-.5.3h-.3zm-96.7-61.5 96.5 59.7 7.2-11.7-96.5-59.7-7.2 11.7zm86.9-.5c-.1 0-.3 0-.4-.1L-5.1 238.4c-.4-.2-.5-.7-.2-1s.7-.5 1-.2l102.1 63.2c.4.2.5.7.2 1-.2.2-.4.3-.6.3z" fill="#692324"/><path d="m18.5 261.057 8-12.925 58.5 36.21-8 12.924z" fill="#FB896F"/><path d="M77 298.1c-.1 0-.3 0-.4-.1l-58.5-36.2c-.4-.2-.5-.7-.2-1l8-12.9c.1-.2.3-.3.5-.3s.4 0 .6.1l58.5 36.2c.4.2.5.7.2 1l-8 12.9c-.1.2-.3.3-.5.3H77zm-57.4-37.2 57.2 35.4 7.2-11.7-57.2-35.4-7.2 11.7zm156.6 42.7c-.1 0-.3 0-.4-.1L28 212c-.4-.2-.5-.7-.2-1 .2-.4.7-.5 1-.2l147.8 91.5c.4.2.5.7.2 1-.1.2-.4.3-.6.3z" fill="#692324"/><path d="m61.949 241.025 8-12.924 87.326 54.05-8 12.925z" fill="#FDDE5F"/><path d="M149.2 295.9c-.1 0-.3 0-.4-.1l-87.3-54c-.4-.2-.5-.7-.2-1l8-12.9c.1-.2.3-.3.5-.3s.4 0 .6.1l87.3 54c.4.2.5.7.2 1l-8 12.9c-.1.2-.3.3-.5.3h-.2zm-86.3-55.1 86 53.3 7.2-11.7-86-53.3zm124.5 22.8c-.1 0-.3 0-.4-.1l-80.9-50.1c-.4-.2-.5-.7-.2-1s.7-.5 1-.2l80.9 50.1c.4.2.5.7.2 1-.1.2-.3.3-.6.3z" fill="#692324"/><path d="m125.162 233.353 8-12.924 83.584 51.735-8 12.925z" fill="#FDDE5F"/><path d="M208.7 285.8c-.1 0-.3 0-.4-.1L124.8 234c-.2-.1-.3-.3-.3-.5s0-.4.1-.6l8-12.9c.2-.4.7-.5 1-.2l83.6 51.7c.4.2.5.7.2 1l-8 12.9c-.1.2-.3.3-.5.3-.1.1-.1.1-.2.1zm-82.5-52.7 82.3 50.9 7.2-11.7-82.3-50.9zm54.4-20.6c-.1 0-.3 0-.4-.1L16.1 110.8c-.4-.2-.5-.7-.2-1s.7-.5 1-.2L181 211.1c.4.2.5.7.2 1-.1.3-.4.4-.6.4z" fill="#692324"/><path d="m49.486 139.587 8-12.924 104.757 64.84-8 12.924z" fill="#FB896F"/><path d="M154.3 205.2c-.1 0-.3 0-.4-.1L49.1 140.2c-.4-.2-.5-.7-.2-1l8-12.9c.1-.2.3-.3.5-.3s.4 0 .6.1L162.8 191c.4.2.5.7.2 1l-8 12.9c-.1.2-.3.3-.5.3h-.2zM50.6 139.4l103.5 64.1 7.2-11.7-103.5-64.1-7.2 11.7zm78-5.9c-.1 0-.3 0-.4-.1l-118-73.1c-.4-.2-.5-.7-.2-1s.7-.5 1-.2l118 73.1c.4.2.5.7.2 1-.1.1-.3.3-.6.3z" fill="#692324"/><path d="m17.36 72.801 8-12.925 64.368 39.841-8 12.925z" fill="#FB896F"/><path d="M81.7 113.4c-.1 0-.3 0-.4-.1L17 73.4c-.4-.2-.5-.7-.2-1l8-12.9c.1-.2.3-.3.5-.3s.4 0 .6.1L90.1 99c.2.1.3.3.3.5s0 .4-.1.6l-8 12.9c-.1.2-.3.4-.6.4zM18.4 72.5l63.1 39 7.2-11.7-63.1-39zm139.8 32.3c-.1 0-.3 0-.4-.1L81.4 57.4c-.4-.2-.5-.7-.2-1s.7-.5 1-.2l76.4 47.3c.4.2.5.7.2 1-.1.2-.4.3-.6.3z" fill="#692324"/><path d="m90.393 71.08 8-12.925 54.59 33.788-8 12.925z" fill="#FDDE5F"/><path d="M145 105.6c-.1 0-.3 0-.4-.1L90 71.7c-.2-.1-.3-.3-.3-.5s0-.4.1-.6l8-12.9c.2-.4.7-.5 1-.2l54.5 33.8c.4.2.5.7.2 1l-8 12.9c-.1.2-.3.3-.5.3.1.1 0 .1 0 .1zM91.5 70.9l53.3 33 7.2-11.7-53.3-33-7.2 11.7zM271.4 128c-.1 0-.3 0-.4-.1L101.2 22.8c-.4-.2-.5-.7-.2-1s.7-.5 1-.2l169.8 105.1c.4.2.5.7.2 1-.1.2-.4.3-.6.3z" fill="#692324"/><path d="m130.104 48.744 8-12.925 96.084 59.472-8 12.924z" fill="#FDDE5F"/><path d="M226.2 109c-.1 0-.3 0-.4-.1l-96.1-59.5c-.4-.2-.5-.7-.2-1l8-12.9c.1-.2.3-.3.5-.3s.4 0 .6.1l96.1 59.5c.2.1.3.3.3.5s0 .4-.1.6l-8 12.9c-.2.1-.4.2-.7.2zm-95-60.5 94.8 58.7 7.2-11.7-94.8-58.7zm161.2 45.6c-.1 0-.3 0-.4-.1L154 8.5c-.4-.2-.5-.7-.2-1 .2-.4.7-.5 1-.2l138 85.5c.4.2.5.7.2 1-.1.2-.4.3-.6.3z" fill="#692324"/><path d="m121.404-3.502 8-12.924 112.324 69.524-8 12.924z" fill="#FB896F"/><path d="M233.8 66.8c-.1 0-.3 0-.4-.1L121.1-2.9c-.4-.2-.5-.7-.2-1l8-12.9c.1-.2.3-.3.5-.3s.4 0 .6.1l112.3 69.5c.4.2.5.7.2 1l-8 12.9c-.1.2-.3.3-.5.3-.1.1-.1.1-.2.1zM122.5-3.7 233.6 65l7.2-11.7-111.1-68.7-7.2 11.7zm190.9 63.9c-.1 0-.3 0-.4-.1L175-25.4c-.4-.2-.5-.7-.2-1s.7-.5 1-.2l138 85.5c.4.2.5.7.2 1-.1.2-.4.3-.6.3z" fill="#692324"/><path d="m193.32-5.878 7.999-12.925 102.801 63.63-8 12.925z" fill="#fff"/><g fill="#692324"><path d="M296.2 58.5c-.1 0-.3 0-.4-.1L192.9-5.3c-.2-.1-.3-.3-.3-.5s0-.4.1-.6l8-12.9c.2-.4.7-.5 1-.2l102.8 63.7c.4.2.5.7.2 1l-8 12.9c-.1.2-.3.3-.5.3.1.1 0 .1 0 .1zM194.4-6.2 296 56.7l7.2-11.7-101.6-62.8zm139.9 32.5c-.1 0-.3 0-.4-.1l-138-85.5c-.4-.2-.5-.7-.2-1s.7-.5 1-.2l138 85.5c.4.2.5.7.2 1-.1.1-.3.3-.6.3z"/></g></g><path d="M197.8 403.3H.8c-.4 0-.8-.3-.8-.8V.7C0 .3.3 0 .8 0h197.1c.4 0 .8.3.8.8v401.8c-.1.3-.5.7-.9.7zM1.5 401.8h195.6V1.5H1.5z" fill="#692324"/></svg></g><g transform="translate(1687.5 1571.25) rotate(0.0 630.0 421.875) scale(3.75431299051887 3.7618540200008024)"><svg width="335.614" height="224.291" viewBox="0 0 335.614 224.291"><clipPath id="d"><path d="M5.582-231.516h401.779v199.04H5.582z"/></clipPath><clipPath id="e"><path d="M19.959 8.708h277.768v169.981H19.959z"/></clipPath><g clip-path="url(#d)"><path d="M122.933-165.284s257.407 57.62 263.772 59.5C373.64-81.015 343.609 9.449 322.959 51.312 252.519 34.119-31.098-44.53-31.098-44.53z" fill="#FB896F"/><path d="M322.959 52.062a.773.773 0 0 1-.178-.021c-69.646-17-351.244-95.062-354.08-95.849a.749.749 0 0 1-.263-1.313L122.47-165.874a.75.75 0 0 1 .627-.142c10.511 2.353 257.503 57.647 263.82 59.512a.75.75 0 0 1 .452 1.069c-6.081 11.528-16.091 37.974-26.689 65.974-12.2 32.231-26.028 68.762-37.048 91.104a.752.752 0 0 1-.673.419zM-29.467-44.856c21.849 6.054 284.023 78.65 352.019 95.297 10.945-22.324 24.635-58.492 36.725-90.432 10.367-27.388 20.172-53.292 26.329-65.303-17.28-4.277-251.951-56.82-262.489-59.179z" fill="#692324"/></g><g clip-path="url(#d)"><path d="M380.809 78.695-23.941-.611l132.34-142.309 288.766 47.594S382.35 18.373 380.809 78.695z" fill="#fff"/><path d="M380.81 79.445a.78.78 0 0 1-.144-.014L-24.085.125a.749.749 0 0 1-.405-1.246L107.849-143.43a.745.745 0 0 1 .671-.229l288.766 47.594a.75.75 0 0 1 .622.837c-.148 1.137-14.827 114.351-16.349 173.943a.749.749 0 0 1-.749.73zM-22.474-1.088l402.557 78.877c1.576-57.383 14.99-162.745 16.245-172.492l-287.655-47.411z" fill="#692324"/></g><g clip-path="url(#e)"><circle cx="96.189" cy="128.103" fill="#fff" r="95.439"/><g fill="#692324"><path d="M96.189 224.291C43.15 224.291 0 181.141 0 128.103s43.15-96.189 96.188-96.189 96.188 43.15 96.188 96.189-43.149 96.188-96.187 96.188zm0-190.877C43.977 33.414 1.5 75.891 1.5 128.103c0 52.211 42.477 94.688 94.688 94.688s94.688-42.477 94.688-94.688c.001-52.212-42.476-94.689-94.687-94.689z"/><path d="M181.395 85.123c-13.581-26.869-39.474-46.449-70.278-51.289l-14.928 94.269z"/><path d="M96.189 128.853a.753.753 0 0 1-.741-.867l14.928-94.269a.755.755 0 0 1 .857-.624c30.407 4.777 56.886 24.101 70.831 51.691a.75.75 0 0 1-.332 1.008l-85.206 42.98a.747.747 0 0 1-.337.081zm15.551-94.159-14.582 92.079 83.226-41.981c-13.701-26.58-39.269-45.241-68.644-50.098z"/></g><path d="m96.188 128.103 92.782-22.346a94.793 94.793 0 0 0-7.575-20.634z" fill="#FDDE5F"/><path d="M96.188 128.853a.751.751 0 0 1-.338-1.42l85.206-42.98a.749.749 0 0 1 1.007.331 95.695 95.695 0 0 1 7.636 20.797.75.75 0 0 1-.554.904l-92.782 22.346a.7.7 0 0 1-.175.022zm84.873-42.722-78.758 39.728 85.761-20.655a94.311 94.311 0 0 0-7.003-19.073z" fill="#692324"/><path d="M191.627 128.103c0-7.699-.936-15.175-2.657-22.346l-92.782 22.346 22.201 92.815c41.998-10.011 73.238-47.753 73.238-92.815z" fill="#FB896F"/><path d="M118.389 221.668a.752.752 0 0 1-.729-.576l-22.201-92.815a.75.75 0 0 1 .554-.904l92.782-22.346a.748.748 0 0 1 .905.555 96.675 96.675 0 0 1 2.677 22.521c0 22.07-7.273 42.825-21.034 60.021-13.355 16.689-32.1 28.594-52.78 33.524a.808.808 0 0 1-.174.02zm-21.297-93.012 21.851 91.355c20.068-4.956 38.238-16.592 51.228-32.825 13.546-16.927 20.706-37.357 20.706-59.083 0-7.174-.829-14.384-2.464-21.44z" fill="#692324"/></g><path clip-path="url(#e)" d="M96.188 128.853a.755.755 0 0 1-.309-.067L8.932 89.377a.751.751 0 0 1 .619-1.367l86.947 39.409a.751.751 0 0 1-.31 1.434z" fill="#692324"/><path d="M297.727 179.439H19.959a.75.75 0 0 1-.75-.75V8.708a.75.75 0 0 1 .75-.75h277.769a.75.75 0 0 1 .75.75v169.981a.751.751 0 0 1-.751.75zm-277.018-1.5h276.269V9.458H20.709z" fill="#692324"/><path d="M201.853.75h73.895v35.231h-73.895z" fill="#FB896F"/><path d="M275.748 36.731h-73.895a.75.75 0 0 1-.75-.75V.75a.75.75 0 0 1 .75-.75h73.895a.75.75 0 0 1 .75.75v35.231a.75.75 0 0 1-.75.75zm-73.144-1.5h72.395V1.5h-72.395z" fill="#692324"/><path d="M238.801 117.718h96.063v35.231h-96.063z" fill="#FB896F"/><g fill="#692324"><path d="M334.864 153.7h-96.063a.75.75 0 0 1-.75-.75v-35.231a.75.75 0 0 1 .75-.75h96.063a.75.75 0 0 1 .75.75v35.231a.75.75 0 0 1-.75.75zm-95.313-1.5h94.563v-33.731h-94.563zM151.612 51.177a.75.75 0 0 1-.626-1.162l21.062-32.061a.751.751 0 0 1 .627-.338h29.179a.75.75 0 0 1 0 1.5H173.08l-20.84 31.723a.75.75 0 0 1-.628.338z"/><path d="M188.786 152.054a.748.748 0 0 1-.228-1.464l50.015-15.97a.749.749 0 1 1 .456 1.428l-50.015 15.97a.724.724 0 0 1-.228.036zm84.436-90.301h-42.947a.75.75 0 0 1 0-1.5h42.947a.75.75 0 0 1 0 1.5zm0 14.142h-27.79a.75.75 0 0 1 0-1.5h27.79a.75.75 0 0 1 0 1.5zm-13.895-62.464h-38.653a.75.75 0 0 1 0-1.5h38.653a.75.75 0 0 1 0 1.5zM240.001 24.8H222.19a.75.75 0 0 1 0-1.5h17.811a.75.75 0 0 1 0 1.5zm37.263 111.284H255.79a.75.75 0 0 1 0-1.5h21.474a.75.75 0 0 1 0 1.5zm48.505 0h-36.884a.75.75 0 0 1 0-1.5h36.884a.75.75 0 0 1 0 1.5z"/></g></svg></g><g transform="translate(52.5 277.5) rotate(0.0 898.125 1125.0) scale(3.753832200304695 3.7536660805386597)"><svg width="478.511" height="599.414" viewBox="0 0 478.511 599.414"><path d="m242.199 598.664 113.124-32.047v-3.331l-254.378 25.327v3.331z" fill="#fb896f"/><path d="M242.199 599.414h-.036l-141.253-6.72a.75.75 0 0 1-.714-.749v-3.331a.75.75 0 0 1 .676-.746L355.25 562.54a.748.748 0 0 1 .825.746v3.331c0 .335-.223.63-.545.722l-113.125 32.047a.746.746 0 0 1-.205.028zm-140.503-8.186 140.417 6.681 112.461-31.859v-1.936l-252.878 25.178z" fill="#692324"/><path d="m242.199 595.333 113.124-32.047-141.253-6.72-113.125 32.047z" fill="#fb896f"/><path d="M242.199 596.083h-.036l-141.253-6.72a.75.75 0 0 1-.168-1.471l113.125-32.047a.76.76 0 0 1 .24-.027l141.253 6.72a.749.749 0 0 1 .168 1.471l-113.125 32.047a.746.746 0 0 1-.205.028zm-136.628-8 136.542 6.496 108.585-30.762-136.542-6.496z" fill="#692324"/><path d="m118.642 589.455-17.697-.842 5.356-180.248 17.564 5.298z" fill="#fb896f"/><path d="M118.642 590.205h-.036l-17.697-.842a.75.75 0 0 1-.714-.771l5.355-180.249a.75.75 0 0 1 .966-.696l17.564 5.299a.752.752 0 0 1 .533.741l-5.223 175.792a.75.75 0 0 1-.749.728zm-16.925-2.306 16.198.771 5.184-174.454-16.077-4.85-5.305 178.534z" fill="#692324"/><path d="m231.767 557.408-113.125 32.047 5.223-175.792 112.968-26.748z" fill="#fb896f"/><path d="M118.642 590.205a.75.75 0 0 1-.75-.773l5.223-175.792a.752.752 0 0 1 .577-.708l112.967-26.748a.754.754 0 0 1 .647.149c.181.147.283.37.275.604l-5.066 170.493a.75.75 0 0 1-.545.699l-113.125 32.047a.75.75 0 0 1-.205.028zm5.956-175.945-5.175 174.194 111.611-31.618 5.021-168.966-111.456 26.39zm107.169 143.148h.01z" fill="#692324"/><path d="M234.164 476.712 120.85 515.141l-16.811-30.648 2.262-76.128 129.603 9.784z" fill="#692324"/><path d="M19.658.842S1.697 7.012 1.485 7.098a1.169 1.169 0 0 0-.696 1.38L119.89 466.685a3.507 3.507 0 0 0 3.835 2.597l340.396-43.101a8.169 8.169 0 0 0 2.294-.64l10.651-4.731a1.17 1.17 0 0 0 .653-1.378z" fill="#fb896f"/><g fill="#692324"><path d="M123.285 470.061a4.268 4.268 0 0 1-4.121-3.187L.062 8.667a1.928 1.928 0 0 1 1.141-2.264c.214-.087 13.993-4.821 18.21-6.27a.754.754 0 0 1 .75.156L478.225 418.88c.104.095.18.218.217.355a1.91 1.91 0 0 1-1.071 2.263l-10.651 4.73a8.933 8.933 0 0 1-2.503.698L123.82 470.027a4.376 4.376 0 0 1-.534.034zM19.48 1.696A8113.21 8113.21 0 0 0 1.753 7.798a.416.416 0 0 0-.238.492l119.102 458.208a2.763 2.763 0 0 0 3.015 2.042l340.396-43.101a7.44 7.44 0 0 0 2.084-.581l10.65-4.73a.421.421 0 0 0 .245-.328z"/><path d="m476.648 420.573-334.729 42.45a3.507 3.507 0 0 1-3.836-2.597L18.981 2.214A1.169 1.169 0 0 1 20.38.782l363.978 85.625a3.507 3.507 0 0 1 2.579 2.485l90.691 330.21a1.168 1.168 0 0 1-.98 1.469z"/><path d="M141.479 463.801a4.27 4.27 0 0 1-4.122-3.186L18.255 2.403c-.17-.656.01-1.338.484-1.824a1.9 1.9 0 0 1 1.812-.527L384.53 85.677a4.254 4.254 0 0 1 3.13 3.017l90.691 330.21a1.919 1.919 0 0 1-1.608 2.412l-334.729 42.45a4.376 4.376 0 0 1-.534.034zM20.108 1.5a.417.417 0 0 0-.295.127.41.41 0 0 0-.106.398L138.81 460.237a2.77 2.77 0 0 0 3.016 2.042l334.729-42.45a.41.41 0 0 0 .295-.184c.04-.059.1-.183.056-.344l-90.691-330.21a2.757 2.757 0 0 0-2.028-1.954L20.208 1.512a.454.454 0 0 0-.1-.012zm456.54 419.073h.01z"/></g><path d="m28.477 8.692 352.866 83.011a3.507 3.507 0 0 1 2.579 2.485l87.823 319.768a1.168 1.168 0 0 1-.98 1.469l-324.48 41.151a3.507 3.507 0 0 1-3.836-2.597L27.077 10.124a1.169 1.169 0 0 1 1.399-1.432z" fill="#fdde5f"/><path d="M442.548 307.65 383.922 94.189a3.507 3.507 0 0 0-2.579-2.485L81.968 21.276 442.547 307.65z" fill="#fff"/><path d="M145.843 457.355a4.27 4.27 0 0 1-4.121-3.186L26.352 10.313a1.905 1.905 0 0 1 .484-1.824 1.903 1.903 0 0 1 1.813-.527l352.866 83.011a4.252 4.252 0 0 1 3.13 3.017l87.823 319.768a1.92 1.92 0 0 1-1.608 2.412l-324.48 41.15a4.392 4.392 0 0 1-.535.034zM28.204 9.41a.413.413 0 0 0-.295.127.408.408 0 0 0-.105.398l115.371 443.856a2.765 2.765 0 0 0 3.016 2.042l324.48-41.15a.412.412 0 0 0 .295-.183c.04-.06.1-.184.056-.344L383.199 94.388a2.756 2.756 0 0 0-2.028-1.954L28.305 9.422a.462.462 0 0 0-.101-.012z" fill="#692324"/></svg></g><g transform="translate(315.0 502.5) rotate(0.0 705.0 673.125) scale(3.7540235944376557 3.75846964329087)"><svg width="375.597" height="358.191" viewBox="0 0 375.597 358.191"><path d="M77.879 283.497c-2.758 0-5.605-2.692-6.521-6.192L.254 5.693C-.258 3.739.015 2.019 1.002.975c.792-.836 1.95-1.15 3.267-.882l93.674 19.024c2.445.496 5.015 3.345 5.851 6.486l66.3 249.051c.524 1.967.304 3.855-.587 5.049a3.085 3.085 0 0 1-2.423 1.27l-89.085 2.522-.12.002zM3.379 1.501c-.443 0-.92.117-1.287.505-.614.649-.759 1.886-.387 3.308l71.104 271.612c.735 2.807 3.091 5.111 5.147 5.071l89.086-2.522.021.75-.021-.75c.518-.015.943-.239 1.263-.667.61-.818.74-2.261.34-3.767l-66.3-249.052c-.679-2.548-2.831-5.022-4.701-5.402L3.97 1.563a3.017 3.017 0 0 0-.591-.063z" fill="#692324"/><path d="m185.574 349.802-87.835 8.374c-2.386.227-5.007-2.182-5.845-5.382l-8.448-32.271c-.835-3.19.446-5.885 2.851-6.02l88.56-4.982c2.04-.115 4.317 2.16 5.095 5.08l7.866 29.546c.78 2.929-.222 5.46-2.244 5.653z" fill="#fb896f"/><path d="M213.972 347.834c-2.22 0-4.536-2.313-5.369-5.429l-53.441-200.002c-.518-1.938-.298-3.654.604-4.709.61-.715 1.489-1.053 2.477-.948l166.53 17.47c1.762.185 3.656 2.379 4.404 5.103l46.118 167.8c.501 1.826.375 3.533-.337 4.565-.394.571-.941.905-1.582.966l-159.105 15.169a3.302 3.302 0 0 1-.298.014zm-56.077-209.606c-.407 0-.739.147-.99.44-.559.654-.671 1.936-.294 3.347l53.441 200.002c.663 2.483 2.527 4.457 4.075 4.31l159.105-15.169c.122-.012.306-.058.49-.325.341-.495.579-1.661.124-3.316l-46.117-167.8c-.614-2.234-2.134-3.905-3.114-4.008l-166.53-17.47a1.785 1.785 0 0 0-.191-.01zm215.409 193.676h.01z" fill="#692324"/><path d="m190.587 83.078-52.762-8.466-6.38-23.878 53.015 9.608z" fill="#fb896f"/><path d="m248.908 92.436-46.881-7.523-6.072-22.488 47.112 8.539z" fill="#fdde5f"/><path d="M281.238 111.567a.687.687 0 0 1-.11-.008l-139.189-20.4a.75.75 0 1 1 .218-1.484l139.189 20.4a.75.75 0 0 1-.108 1.492zm20.199-49.606c-.05 0-.1-.005-.15-.015l-71.495-14.52a.749.749 0 1 1 .299-1.469l71.495 14.52a.749.749 0 0 1-.149 1.485zm18.612 67.72a.851.851 0 0 1-.1-.006L146.064 106.56a.75.75 0 0 1 .197-1.487l173.885 23.115a.75.75 0 0 1-.098 1.493z" fill="#692324"/><path d="m324.94 191.275-92.981-6.032-3.384-12.528 93.247 7.194z" fill="#fff"/><path d="m324.94 192.025-.048-.001-92.98-6.032a.751.751 0 0 1-.676-.553l-3.384-12.528c-.063-.235-.009-.487.146-.674s.396-.285.635-.269l93.247 7.194a.75.75 0 0 1 .666.549l3.118 11.366a.75.75 0 0 1-.724.948zm-92.396-7.496 91.395 5.93-2.7-9.843-91.663-7.071 2.967 10.984z" fill="#692324"/><path d="m225.68 184.835-42.264-2.742-3.519-13.134 42.381 3.27z" fill="#fb896f"/><path d="m225.68 185.586-.048-.001-42.263-2.742a.75.75 0 0 1-.676-.554l-3.52-13.134a.75.75 0 0 1 .147-.673.729.729 0 0 1 .635-.269l42.381 3.27a.752.752 0 0 1 .667.552l3.402 12.606a.75.75 0 0 1-.725.945zm-41.678-4.206 40.681 2.639-2.991-11.083-40.796-3.148zm110.24 7.903-62.283-4.04-3.384-12.528 62.46 4.819z" fill="#692324"/><path d="m294.242 190.033-.048-.001-62.283-4.041a.751.751 0 0 1-.676-.553l-3.384-12.528c-.063-.235-.009-.487.146-.674s.396-.292.635-.269l62.46 4.819a.75.75 0 0 1 .666.55l3.207 11.75a.749.749 0 0 1-.724.947zm-61.699-5.504 60.698 3.938-2.791-10.226-60.875-4.696 2.967 10.984z" fill="#692324"/><path d="m331.932 216.768-92.382-3.422-3.392-12.56 92.649 4.59z" fill="#fff"/><path d="M331.932 217.518h-.028l-92.381-3.422a.75.75 0 0 1-.696-.554l-3.393-12.56a.753.753 0 0 1 .14-.667.768.768 0 0 1 .621-.278l92.649 4.589a.748.748 0 0 1 .686.551l3.125 11.393a.751.751 0 0 1-.723.948zm-91.801-4.901 90.808 3.364-2.71-9.883-91.077-4.511 2.979 11.031z" fill="#692324"/><path d="m233.311 213.115-41.999-1.556-3.529-13.169 42.118 2.086z" fill="#fb896f"/><path d="M233.312 213.865h-.028l-41.999-1.556a.75.75 0 0 1-.697-.555l-3.529-13.169c-.062-.232-.009-.479.141-.666s.384-.282.621-.278l42.118 2.086a.75.75 0 0 1 .687.554l3.411 12.639a.75.75 0 0 1-.724.945zm-41.418-3.035 40.429 1.498-3.003-11.129-40.545-2.008 3.12 11.64zm89.911 4.081-42.255-1.565-3.392-12.56 42.375 2.099z" fill="#692324"/><path d="M281.805 215.661h-.028l-42.254-1.565a.75.75 0 0 1-.696-.554l-3.393-12.56a.753.753 0 0 1 .14-.667.768.768 0 0 1 .621-.278l42.375 2.099a.75.75 0 0 1 .687.552l3.271 12.026a.749.749 0 0 1-.723.947zm-41.674-3.044 40.683 1.507-2.861-10.517-40.802-2.021 2.979 11.031z" fill="#692324"/><path d="m338.94 242.32-91.778-.799-3.402-12.592 92.048 1.972z" fill="#fff"/><path d="M338.94 243.07h-.006l-91.778-.798a.75.75 0 0 1-.718-.554l-3.401-12.592c-.062-.229-.012-.472.134-.658s.367-.294.606-.288l92.048 1.972c.332.007.62.231.707.552l3.132 11.419a.747.747 0 0 1-.723.948zm-91.203-2.293 90.217.785-2.721-9.922-90.487-1.938 2.992 11.076z" fill="#692324"/><path d="m240.962 241.467-41.733-.363-3.538-13.204 41.852.896z" fill="#fb896f"/><path d="M240.962 242.217h-.006l-41.733-.363a.75.75 0 0 1-.718-.556l-3.539-13.205a.752.752 0 0 1 .74-.944l41.852.896a.75.75 0 0 1 .708.555l3.419 12.671a.749.749 0 0 1-.724.946zm-41.156-1.858 40.175.35-3.016-11.175-40.292-.863 3.132 11.688zm131 1.89-83.644-.728-3.402-12.592 83.89 1.797z" fill="#692324"/><path d="M330.806 242.999h-.006l-83.645-.728a.75.75 0 0 1-.718-.554l-3.401-12.592c-.062-.229-.012-.472.134-.658s.367-.294.606-.288l83.89 1.797a.75.75 0 0 1 .707.552l3.156 11.523a.748.748 0 0 1-.723.948zm-83.069-2.223 82.083.714-2.747-10.026-82.329-1.763 2.992 11.076z" fill="#692324"/><path d="m345.965 267.931-91.173 1.838-3.41-12.625 91.444-.658z" fill="#fff"/><path d="M254.792 270.519a.75.75 0 0 1-.724-.554l-3.41-12.624a.747.747 0 0 1 .127-.649.746.746 0 0 1 .592-.296l91.444-.659h.005a.75.75 0 0 1 .723.552l3.139 11.445a.748.748 0 0 1-.708.948l-91.173 1.837zm-2.433-12.631 3.004 11.119 89.624-1.806-2.732-9.961z" fill="#692324"/><path d="m248.633 269.893-41.465.835-3.548-13.24 41.585-.299z" fill="#fb896f"/><path d="M207.168 271.479a.752.752 0 0 1-.725-.556l-3.548-13.24a.75.75 0 0 1 .719-.944l41.585-.299h.005a.75.75 0 0 1 .724.555l3.428 12.704a.753.753 0 0 1-.709.946l-41.465.836h-.015zm-2.573-13.247 3.145 11.735 39.918-.805-3.027-11.219-40.037.289zm124.613 10.037-74.416 1.5-3.41-12.625 74.636-.537z" fill="#692324"/><path d="M254.792 270.519a.75.75 0 0 1-.724-.554l-3.41-12.624a.748.748 0 0 1 .719-.945l74.636-.538a.758.758 0 0 1 .729.552l3.19 11.662a.749.749 0 0 1-.708.948l-74.416 1.5h-.015zm-2.433-12.631 3.004 11.119 72.867-1.468-2.784-10.178z" fill="#692324"/><path d="m353.006 293.602-90.564 4.486-3.419-12.656 90.836-3.302z" fill="#fff"/><path d="M262.442 298.839a.75.75 0 0 1-.724-.554l-3.419-12.657a.749.749 0 0 1 .697-.945l90.836-3.302c.37-.027.658.216.751.551l3.146 11.472a.748.748 0 0 1-.686.947l-90.563 4.486h-.038zm-2.448-12.691 3.015 11.163 89.026-4.41-2.742-9.999z" fill="#692324"/><path d="m256.324 298.391-41.197 2.041-3.557-13.275 41.317-1.502z" fill="#fb896f"/><g fill="#692324"><path d="M215.127 301.182a.75.75 0 0 1-.724-.556l-3.558-13.276a.75.75 0 0 1 .698-.944l41.317-1.501a.746.746 0 0 1 .751.554l3.437 12.736a.75.75 0 0 1-.687.945l-41.196 2.041h-.038zm-2.589-13.311 3.157 11.782 39.662-1.965-3.04-11.262-39.78 1.446zm71.885 9.128-21.981 1.089-3.419-12.656 22.046-.802z"/><path d="M262.442 298.839a.75.75 0 0 1-.724-.554l-3.419-12.657a.749.749 0 0 1 .697-.945l22.045-.801a.744.744 0 0 1 .751.553l3.354 12.369a.75.75 0 0 1-.687.945l-21.98 1.089h-.038zm-2.448-12.691 3.015 11.163 20.446-1.013-2.954-10.895-20.507.746zM33.436 73.178l-1.892-.279-3.002-11.442-2.498.752-.524-1.999 3.93-1.338.241.038zm9.698-4.271c.533 2.026.634 3.509.304 4.449-.331.941-1.113 1.321-2.345 1.139-1.214-.179-2.263-.818-3.145-1.918s-1.593-2.643-2.128-4.626l-.644-2.453c-.535-2.037-.632-3.517-.29-4.439s1.134-1.281 2.377-1.083c1.231.196 2.277.835 3.139 1.918.862 1.082 1.559 2.608 2.092 4.576l.641 2.438zm-2.56-2.919c-.348-1.324-.748-2.318-1.198-2.979-.45-.663-.988-1.043-1.617-1.142-.613-.097-.988.124-1.123.665s-.047 1.432.263 2.673l.842 3.207c.347 1.323.753 2.33 1.218 3.022s1.01 1.084 1.638 1.177c.602.09.966-.143 1.097-.698s.036-1.467-.283-2.738l-.838-3.187zm11.425 4.271c.53 2.011.633 3.483.311 4.417-.324.935-1.093 1.313-2.306 1.134-1.196-.176-2.231-.81-3.102-1.901s-1.575-2.622-2.107-4.59l-.64-2.434c-.532-2.022-.631-3.492-.297-4.407s1.113-1.274 2.338-1.079c1.213.193 2.244.827 3.095 1.9.852 1.074 1.541 2.587 2.071 4.541l.637 2.42zm-2.528-2.896c-.346-1.315-.742-2.3-1.187-2.957s-.976-1.034-1.595-1.132c-.604-.095-.973.125-1.104.662s-.043 1.422.266 2.654l.837 3.183c.345 1.313.747 2.312 1.206 2.999s.997 1.075 1.616 1.167c.593.088.951-.143 1.078-.695s.032-1.457-.285-2.718l-.833-3.164zm15.047 4.804c.525 1.99.631 3.447.319 4.372-.314.926-1.064 1.301-2.252 1.126-1.171-.173-2.185-.798-3.041-1.877s-1.55-2.593-2.077-4.54l-.635-2.409c-.527-2.001-.629-3.455-.305-4.362s1.085-1.263 2.284-1.072c1.187.189 2.199.814 3.035 1.876.837 1.061 1.517 2.558 2.042 4.492l.632 2.394zm-2.483-2.862c-.343-1.301-.734-2.276-1.171-2.925-.438-.65-.958-1.022-1.564-1.117-.591-.093-.951.125-1.078.657s-.037 1.408.269 2.626l.83 3.149c.342 1.299.739 2.287 1.191 2.967s.979 1.062 1.585 1.153c.58.086.93-.144 1.052-.689s.026-1.442-.289-2.69l-.826-3.13zm4.279 2.145-1.255-6.868 5.74.913.523 1.98-4.249-.669.575 3.249c.399-.29.909-.386 1.53-.29 1.015.158 1.916.699 2.7 1.622.782.923 1.36 2.092 1.734 3.507.369 1.397.353 2.462-.051 3.196-.403.736-1.149 1.024-2.238.864-.976-.144-1.882-.622-2.717-1.435s-1.435-1.814-1.8-2.999l1.73.261c.245.68.566 1.222.965 1.624.397.402.84.639 1.329.712.547.082.906-.107 1.078-.565.171-.458.142-1.123-.088-1.991-.221-.838-.565-1.527-1.03-2.066-.466-.54-.995-.855-1.586-.946-.323-.05-.583-.037-.779.039s-.385.254-.565.536l-1.548-.674zm15.179 3.306c.519 1.962.629 3.398.33 4.311-.3.914-1.027 1.285-2.18 1.115-1.137-.168-2.124-.782-2.96-1.844-.837-1.063-1.516-2.554-2.037-4.472l-.627-2.374c-.521-1.972-.627-3.406-.317-4.301s1.046-1.248 2.211-1.063c1.153.183 2.137.798 2.954 1.843s1.484 2.52 2.003 4.425l.624 2.36zm-2.423-2.817c-.339-1.282-.723-2.243-1.15-2.881-.428-.64-.935-1.005-1.523-1.098-.574-.091-.922.126-1.043.65s-.029 1.388.274 2.589l.821 3.104c.338 1.28.728 2.254 1.169 2.923s.955 1.045 1.543 1.133c.563.084.902-.144 1.018-.682s.018-1.422-.293-2.652l-.816-3.085zm13.663 5.368 1.275.193.479 1.807-1.274-.191.797 3.007-1.713-.253-.798-3.012-4.462-.67-.416-1.388 2.034-8.466 1.774.282 2.304 8.69zm-4.414-.67 2.699.41-1.497-5.648-.049.277-1.153 4.962zm13.21 1.174c.512 1.928.626 3.34.343 4.238-.284.899-.983 1.267-2.097 1.103-1.098-.162-2.053-.763-2.865-1.805s-1.476-2.507-1.99-4.392l-.619-2.332c-.514-1.937-.624-3.347-.33-4.229s1.002-1.23 2.126-1.051c1.113.177 2.066.779 2.859 1.804.794 1.025 1.446 2.474 1.957 4.346l.616 2.319zm-2.353-2.764c-.334-1.26-.71-2.203-1.126-2.83-.416-.628-.907-.986-1.475-1.076-.554-.087-.889.126-1.002.642s-.02 1.365.279 2.546l.809 3.05c.334 1.258.715 2.214 1.144 2.871s.927 1.025 1.495 1.11c.544.081.869-.144.978-.674s.01-1.399-.297-2.607zm10.371 3.986c.509 1.914.624 3.316.348 4.209-.278.894-.966 1.259-2.064 1.097-1.082-.16-2.025-.756-2.828-1.79s-1.461-2.488-1.971-4.36l-.615-2.316c-.511-1.924-.623-3.324-.335-4.2s.985-1.223 2.092-1.047c1.097.175 2.038.771 2.822 1.788.785 1.017 1.431 2.455 1.939 4.315l.612 2.302zm-2.325-2.742c-.332-1.251-.705-2.188-1.116-2.81-.412-.623-.896-.978-1.456-1.067-.546-.086-.875.126-.986.639s-.017 1.356.281 2.528l.804 3.028c.332 1.249.709 2.199 1.134 2.85s.916 1.017 1.476 1.101c.536.08.856-.144.962-.67s.006-1.389-.299-2.589zM24.844 36.008c-.163-.621-.457-1.162-.882-1.625s-1.052-.923-1.881-1.381c-.831-.46-1.492-.867-1.978-1.219-1.624-1.166-2.673-2.648-3.145-4.446-.319-1.217-.281-2.162.114-2.835s1.087-.986 2.076-.939l-.627-2.391 1.421.268.633 2.41c1.075.374 2.011 1.06 2.805 2.058.793.996 1.377 2.208 1.753 3.636l-2.138-.391c-.242-.92-.598-1.675-1.07-2.265-.474-.591-.996-.94-1.57-1.046-.568-.105-.963.003-1.183.324-.221.322-.238.837-.052 1.547a3.66 3.66 0 0 0 .879 1.619c.417.442 1.051.903 1.897 1.384.846.48 1.523.906 2.03 1.276s.956.769 1.35 1.198c.392.428.731.901 1.018 1.418.288.517.517 1.103.689 1.76.324 1.232.282 2.177-.124 2.837-.408.66-1.138.965-2.192.915l.562 2.14-1.408-.243-.559-2.132c-1.214-.365-2.252-1.043-3.116-2.034-.863-.992-1.487-2.215-1.869-3.669l2.167.386c.242.924.618 1.672 1.127 2.244.508.571 1.105.917 1.791 1.037.673.118 1.132.007 1.377-.333s.281-.842.106-1.507zm10.199 1.81a3.765 3.765 0 0 0-.872-1.611c-.419-.458-1.036-.914-1.853-1.367-.817-.455-1.468-.858-1.947-1.207-1.599-1.154-2.634-2.623-3.102-4.405-.317-1.207-.282-2.145.104-2.813s1.065-.98 2.037-.935l-.623-2.371 1.397.264.628 2.39c1.058.37 1.979 1.048 2.762 2.037.783.987 1.36 2.188 1.732 3.605l-2.102-.384c-.24-.912-.592-1.661-1.058-2.246-.467-.586-.982-.931-1.546-1.035-.559-.103-.946.004-1.161.323-.217.32-.232.831-.047 1.535.166.631.455 1.166.868 1.605.411.437 1.035.894 1.868 1.37s1.499.896 1.999 1.262c.499.366.941.762 1.33 1.186.387.424.721.892 1.004 1.405a7.5 7.5 0 0 1 .682 1.745c.321 1.222.284 2.16-.114 2.815-.399.656-1.115.959-2.151.911l.558 2.122-1.384-.238-.556-2.114c-1.194-.36-2.216-1.031-3.068-2.013-.851-.982-1.468-2.195-1.846-3.637l2.131.379c.241.916.612 1.657 1.114 2.224.5.565 1.089.908 1.763 1.026.662.116 1.112.005 1.353-.333.239-.337.274-.835.1-1.495zm10.026 1.779A3.76 3.76 0 0 0 44.208 38c-.413-.454-1.021-.905-1.825-1.354-.805-.45-1.445-.848-1.917-1.194-1.575-1.142-2.596-2.598-3.061-4.366-.315-1.197-.283-2.127.094-2.791s1.044-.974 2-.931l-.619-2.351 1.374.259.624 2.37c1.041.365 1.948 1.037 2.72 2.017.772.978 1.342 2.169 1.713 3.574l-2.067-.378c-.238-.905-.587-1.647-1.046-2.226-.461-.58-.967-.922-1.522-1.024-.55-.102-.93.006-1.141.322-.212.317-.226.825-.042 1.523.165.626.45 1.156.858 1.591.406.433 1.019.885 1.84 1.356s1.476.887 1.968 1.249c.491.363.927.754 1.31 1.175.381.42.711.884.991 1.392.281.508.505 1.084.675 1.73.319 1.212.285 2.142-.104 2.793-.39.651-1.094.953-2.112.907l.554 2.105-1.361-.235-.552-2.096c-1.174-.356-2.181-1.02-3.021-1.992-.839-.973-1.448-2.175-1.825-3.605l2.095.373c.239.908.606 1.643 1.101 2.205.493.56 1.072.899 1.735 1.016.651.114 1.093.004 1.328-.332.234-.335.267-.829.094-1.483z"/></g><path d="m70.69 136.88-22.801-2.224-4.711-17.954 22.874 2.567z" fill="#fb896f"/><path d="m81.918 179.508-22.625-1.389-4.73-18.026 22.698 1.736zm11.272 42.794-22.448-.548-4.748-18.097 22.521.897z" fill="#fff"/><path d="m104.505 265.262-22.269.3-4.767-18.169 22.343.052zm13.492-131.235a.697.697 0 0 1-.079-.004l-38.522-4.042a.75.75 0 0 1-.668-.824.764.764 0 0 1 .824-.668l38.522 4.042a.75.75 0 0 1-.077 1.496zm10.831 40.783c-.018 0-.035 0-.053-.002l-38.221-2.635c-.413-.028-.725-.386-.696-.8s.391-.731.8-.696l38.221 2.635a.749.749 0 0 1-.051 1.498zm10.871 40.935h-.024l-37.917-1.219a.75.75 0 0 1-.726-.773c.014-.414.397-.734.773-.726l37.917 1.219a.75.75 0 0 1-.023 1.499zm-26.698 41.295a.75.75 0 0 1-.004-1.5l37.61-.208c.43-.041.752.331.754.746s-.332.752-.746.754l-37.61.208z" fill="#692324"/></svg></g><g transform="translate(198.75 247.5) rotate(0.0 1316.25 1078.125) scale(3.7569573283858997 3.7604638995465645)"><svg width="700.7" height="573.4" viewBox="0 0 700.7 573.4"><path d="M109.3 514.6c-.1 0-.2 0-.3-.1-.4-.2-.6-.6-.4-1 3.1-7.2 7-14.1 11.6-20.4.2-.3.7-.4 1-.2.3.2.4.7.2 1-4.6 6.2-8.4 13-11.5 20.1 0 .5-.3.6-.6.6zm14.6-16.7c-.1 0-.3 0-.4-.1-.4-.2-.5-.7-.2-1l4-6.6c.2-.4.7-.5 1-.2.4.2.5.7.2 1l-4 6.6c-.1.2-.4.3-.6.3z" style="fill:#fb896f"/><path d="M5 52.9c-.3 0-.7-.2-.7-.6L0 32.9c-.1-.4.2-.8.6-.9.4-.1.8.2.9.6L5.8 52c.1.4-.2.8-.6.9H5zm5.3 3.9c-.4 0-.7-.3-.7-.6-.5-3.4-1.3-6.8-2.3-10.1-.1-.4.1-.8.5-.9.4-.1.8.1.9.5 1 3.4 1.8 6.8 2.3 10.3.1.4-.2.8-.6.8h-.1zm350.8 136c-.3 0-.6-.2-.7-.5l-9.1-32.9c-.1-.4.1-.8.5-.9.4-.1.8.1.9.5l9.1 32.9c.1.4-.1.8-.5.9h-.2zm6.2 14.9c-.3 0-.6-.2-.7-.6l-1.3-5.7c-.1-.4.2-.8.6-.9.4-.1.8.2.9.6l1.3 5.7c.1.4-.2.8-.6.9-.1-.1-.2 0-.2 0zM73.6 374.4c-.2 0-.5-.1-.6-.3l-5.3-7.6c-.2-.3-.2-.8.2-1 .3-.2.8-.2 1 .2l5.3 7.6c.2.3.2.8-.2 1-.1 0-.2.1-.4.1zM91.9 469c-.1 0-.3 0-.4-.1-2.2-1.3-3.9-3.5-4.4-6-.1-.4.2-.8.6-.9.4-.1.8.2.9.6.5 2.1 1.8 3.9 3.7 5 .4.2.5.7.3 1-.2.2-.4.4-.7.4zm115.4-269.2c-4-.1-8-.6-11.8-1.6-.4-.1-.6-.5-.5-.9s.5-.6.9-.5c3.7.9 7.6 1.4 11.5 1.5.4 0 .7.3.7.8-.1.4-.4.7-.8.7zm1-4.2c-.1 0-.1 0 0 0l-4.9-.5c-.4 0-.7-.4-.7-.8s.4-.7.8-.7l4.8.5c.4 0 .7.4.7.8s-.4.7-.7.7z" style="fill:#692324"/><path d="M267.1 201.8c-.2 0-.4-.1-.5-.2l-3.5-3.8c-.3-.3-.3-.8 0-1.1.3-.3.8-.3 1.1 0l3.5 3.8c.3.3.3.8 0 1.1-.2.2-.4.2-.6.2zm41.7 31.4c-.2 0-.3 0-.4-.1-4.8-3.5-9.5-7.3-13.7-11.4-.3-.3-.3-.8 0-1.1.3-.3.8-.3 1.1 0 4.2 4.1 8.8 7.9 13.5 11.3.3.2.4.7.2 1-.2.2-.5.3-.7.3zm5.8.7c-.1 0-.3 0-.4-.1-2.5-1.8-4.6-3.9-6.3-6.5-.2-.3-.1-.8.2-1 .3-.2.8-.1 1 .2 1.6 2.4 3.6 4.4 5.9 6.1.3.2.4.7.2 1-.1.2-.3.3-.6.3zM91.8 54.3h-.2c-2.3-.5-4.5-1.5-6.3-2.9-.3-.2-.4-.7-.2-1 .2-.3.7-.4 1-.2 1.7 1.3 3.7 2.2 5.8 2.6.4.1.7.5.6.9 0 .4-.4.6-.7.6zm2-1.3c-.1 0-.3 0-.4-.1l-4.5-2.8c-.4-.2-.5-.7-.2-1 .2-.4.7-.5 1-.2l4.5 2.8c.4.2.5.7.2 1-.1.2-.3.3-.6.3z" style="fill:#fdde5f"/><path d="M91.3 72c-.2 0-.4-.1-.5-.2-3.4-3.1-7.1-6-11-8.6-.3-.2-.4-.7-.2-1 .2-.3.7-.4 1-.2 3.9 2.6 7.7 5.5 11.2 8.7.3.3.3.8.1 1.1-.2.1-.4.2-.6.2z" style="fill:#fff"/><path d="M147.7 573.4c-.3 0-.6-.2-.7-.5-.1-.4.1-.8.5-1l29.5-10.3c.4-.1.8.1 1 .5.1.4-.1.8-.5 1L148 573.4h-.3zm17.5-10.9c-.3 0-.6-.2-.7-.5-.2-.4 0-.8.4-1l7.6-3c.4-.2.8 0 1 .4.2.4 0 .8-.4 1l-7.6 3c-.1.1-.2.1-.3.1zm23.9 7.2c-.3 0-.6-.2-.7-.5-.2-.4 0-.8.4-1 2.2-.9 4.6-1.6 7-1.9.4-.1.8.2.9.6.1.4-.2.8-.6.9-2.3.3-4.5 1-6.6 1.8-.2.1-.3.1-.4.1zm298.2-101.5h-.1c-.4-.1-.7-.5-.6-.9l3.4-17.1c.1-.4.5-.7.9-.6.4.1.7.5.6.9l-3.4 17.1c-.1.3-.4.6-.8.6zm-4.2-3.8h-.1c-.4-.1-.7-.4-.6-.9l1.1-7.2c.1-.4.5-.7.9-.6.4.1.7.4.6.9l-1.1 7.2c-.1.3-.4.6-.8.6zm90.2 12.1c-.1 0-.2 0-.3-.1-3.4-1.7-6.8-3.6-9.9-5.8-.3-.2-.4-.7-.2-1 .2-.3.7-.4 1-.2 3.1 2.1 6.3 4 9.7 5.7.4.2.5.6.4 1-.1.2-.4.4-.7.4zm2.7-2.3c-.1 0-.2 0-.4-.1l-4.2-2.3c-.4-.2-.5-.7-.3-1 .2-.4.7-.5 1-.3l4.2 2.3c.4.2.5.7.3 1-.1.3-.3.4-.6.4zm75.4-75c-.2 0-.5-.1-.6-.3-.2-.3-.1-.8.2-1l3.8-2.6c.3-.2.8-.1 1 .2.2.3.1.8-.2 1l-3.8 2.6c-.1.1-.2.1-.4.1zm45.5 38.3c-.4 0-.7-.3-.8-.7-.1-6.4 0-13 .4-19.4 0-.4.4-.7.8-.7s.7.4.7.8c-.4 6.4-.5 12.9-.4 19.3 0 .3-.3.7-.7.7zm2.6 12.1c-.4 0-.7-.3-.7-.7-.2-2.8 0-5.7.4-8.5.1-.4.4-.7.9-.6.4.1.7.4.6.9-.4 2.7-.5 5.4-.4 8.2 0 .3-.3.7-.8.7.1 0 0 0 0 0zm-96.6-211.5c-.3 0-.6-.2-.7-.5-.9-2.1-2.1-4.1-3.7-5.9-.3-.3-.2-.8.1-1.1.3-.3.8-.2 1.1.1 1.6 1.9 3 4 3.9 6.3.2.4 0 .8-.4 1-.1.1-.2.1-.3.1zm3.4-.7c-.3 0-.5-.1-.7-.4l-2.3-4.2c-.2-.4-.1-.8.3-1 .4-.2.8-.1 1 .3l2.3 4.2c.2.4.1.8-.3 1 0 .1-.2.1-.3.1zm-30.1-49c-4.4 0-8.8-.7-13-2.1-.4-.1-.6-.6-.5-.9.1-.4.6-.6.9-.5 4.2 1.4 8.6 2.1 13.1 2 .4 0 .7.3.8.7 0 .4-.3.8-.7.8h-.6zm-123 41.7-14.5-1.1c-.4 0-.7-.4-.7-.8s.4-.7.8-.7l14.4 1.1c.4 0 .7.4.7.8s-.3.7-.7.7zm19.7 104.3c-.2 0-.4-.1-.5-.2-.3-.3-.3-.8 0-1.1l6.8-7.2c.3-.3.8-.3 1.1 0 .3.3.3.8 0 1.1l-6.8 7.2c-.2.1-.4.2-.6.2zm6.8 2.2c-.2 0-.3 0-.4-.1-.3-.2-.4-.7-.2-1 .8-1.1 1.8-2 3-2.8.3-.2.8-.1 1 .2.2.4.1.8-.2 1-1 .6-1.9 1.4-2.6 2.4-.2.2-.4.3-.6.3zm151.2-123.8c-.4 0-.8-.3-.8-.8v-24.6c0-.4.3-.8.8-.8s.8.3.8.8V212c0 .4-.3.8-.8.8zm-1.1 15.9c-.4 0-.8-.3-.8-.8v-5.3c0-.4.3-.8.8-.8s.8.3.8.8v5.3c0 .4-.4.8-.8.8z" style="fill:#692324"/><path d="M580.4 39.5c-.3 0-.6-.2-.7-.5-1.7-5.1-5-9.7-9.2-12.9-.3-.3-.4-.7-.1-1.1.3-.3.7-.4 1.1-.1 4.5 3.5 7.9 8.3 9.7 13.6.1.4-.1.8-.5 1-.1-.1-.2 0-.3 0zm4.1-7.2c-.3 0-.5-.1-.6-.4-1-1.6-1.6-3.4-1.8-5.3 0-.4.3-.8.7-.8.4 0 .8.3.8.7.2 1.6.7 3.3 1.6 4.7.2.4.1.8-.3 1-.1.1-.2.1-.4.1zM267.6 5c-.3 0-.5-.1-.6-.4-.2-.4-.1-.8.2-1l5.6-3.5c.4-.2.8-.1 1 .2.2.4.1.8-.2 1L268 4.9c-.1.1-.3.1-.4.1zm3.1 8.2c-.2 0-.4-.1-.6-.3-.3-.3-.2-.8.1-1.1 2.8-2.4 5.9-4.4 9.3-5.7.4-.1.8 0 1 .4.1.4 0 .8-.4 1-3.3 1.3-6.3 3.1-8.9 5.4-.2.2-.3.3-.5.3zm216.6 125.6c-.2 0-.4-.1-.5-.2-.3-.3-.3-.8 0-1.1 2-2.1 4.4-3.8 7-5 .4-.2.8 0 1 .4.2.4 0 .8-.4 1-2.4 1.1-4.7 2.7-6.5 4.7-.2.1-.4.2-.6.2z" style="fill:#fb896f"/><path d="M207 468.4c-.3 0-.6-.2-.7-.6-.1-.4.1-.8.5-.9 14.4-3.9 29.2-6.2 44.1-7 .4 0 .8.3.8.7 0 .4-.3.8-.7.8-14.8.8-29.5 3.1-43.8 7h-.2zm4.6 5.6c-.3 0-.6-.2-.7-.5-.1-.4.1-.8.5-1 5.5-1.9 11.1-3.4 16.8-4.6.4-.1.8.2.9.6.1.4-.2.8-.6.9-5.6 1.1-11.2 2.7-16.6 4.5-.2.1-.2.1-.3.1zm178.3 27.2c-.1 0-.2 0-.3-.1-.4-.2-.5-.6-.3-1l7.9-16c.2-.4.6-.5 1-.3s.5.6.3 1l-7.9 16c-.2.3-.4.4-.7.4zm6.2 6.2h-.3c-.4-.1-.6-.6-.4-1l1.5-4.1c.1-.4.6-.6 1-.4.4.1.6.6.4 1l-1.5 4.1c-.1.2-.4.4-.7.4z" style="fill:#692324"/></svg></g></svg>