<svg xmlns="http://www.w3.org/2000/svg" viewBox="0 0 2769 2999" width="2769" height="2999"><g transform="translate(793.8461538461538 23.076923076923073) rotate(0.0 611.5384615384614 776.5384615384614) scale(2.309718759056385 2.3091333716092106)"><svg width="529.535" height="672.58" viewBox="0 0 529.535 672.58"><path d="M166.715 294.263c-4.598-10.501 1.662-22.575 12.855-25.625 5.735-1.563 2.646-19.107 18.562-23.818 14.95-4.425 29.698-.336 37.555 9.011s5.219 51.448-14.827 61.679c-20.046 10.232-50.078-11.959-54.145-21.247z" fill="#005E4C"/><path d="M209.218 319.638c-4.467 0-9.301-.907-14.379-2.72-13.86-4.95-26.669-15.596-29.498-22.054-2.29-5.23-2.17-11.228.33-16.456 2.634-5.508 7.556-9.597 13.505-11.218 1.37-.373 2.205-2.99 3.172-6.02 1.97-6.172 4.667-14.624 15.359-17.79 14.924-4.416 30.647-.606 39.129 9.484 4.526 5.384 5.781 20.095 2.918 34.218-1.728 8.526-6.391 23.73-18.212 29.763-3.647 1.863-7.798 2.793-12.324 2.793zm-41.129-25.977c2.226 5.083 14.146 15.57 27.759 20.432 6.573 2.348 16.13 4.267 24.33.081 7.815-3.989 13.879-14.081 16.636-27.687 2.654-13.096 1.654-27.017-2.275-31.691-7.725-9.19-22.184-12.622-35.981-8.538-9.169 2.714-11.488 9.983-13.352 15.825-1.233 3.864-2.298 7.2-5.241 8.002-5.107 1.392-9.33 4.897-11.587 9.618-2.155 4.506-2.257 9.463-.289 13.958z" fill="#005E4C"/><path d="M20.339 247.224c-5.993 4.766-2.877 14.776 2.689 20.033 5.567 5.258 13.108 8.679 16.923 15.318-7.459-1.692-16.21-1.122-21.459 4.442s-3.64 16.893 3.841 18.486c-10.006 7.021-14.1 21.353-9.312 32.6s17.955 18.23 29.952 15.885c.972 15.277 10.107 29.795 23.458 37.284l12.624-10.984c1.365-1.187 3.003-2.456 4.782-2.128 2.792.514 3.389 4.277 2.906 7.075-1.075 6.218-4.176 11.877-6.127 17.878s-2.608 13.013.907 18.253 12.426 6.766 15.974 1.548c-1.711 5.308.273 11.596 4.721 14.96 4.448 3.365 11.038 3.563 15.68.473 1.975-1.315 3.665-3.178 5.943-3.842 3.055-.891 6.223.602 9.237 1.624 14.166 4.8 31.318-1.956 38.405-15.127 4.499 13.563 18.758 23.205 33.022 22.328 14.263-.877 27.234-12.192 30.038-26.205 2.884 5.462 10.688 6.586 16.315 4.038s55.701 3.621 59.401-1.325c11.113-14.859 2.023-45.368-17.44-58.767-3.588-7.156-11.866-9.507-15.779-1.106-4.295 9.221-10.079 18.527-16.787 14.506s.616-17.882-4.562-19.668c-5.178-1.785-13.262-28.749-29.178-35.73-15.916-6.982-59.041-24.413-73.984-30.729s-24.29-31.074-23.532-42.947c.758-11.874-1.01-24.61-14.653-25.947-13.642-1.337-26.021-1.59-24-10.684 2.021-9.095 20.211-9.91 17.684-20.365-2.526-10.456-16.168-18.312-19.453-24.742-3.284-6.43-2.526-19.567 1.516-23.861s16.421-8.45 25.011-7.257c8.589 1.194 19.958-1.333 17.432-13.206-2.526-11.874-16.168-16.674-16.168-16.674s11.621-19.2-1.01-21.726c-12.632-2.526-20.968 4.8-24.505 4.8s-21.726-13.692-33.095-5.33-7.579 29.33-6.063 37.414-17.956-7.453-27.032 3.341c-13.895 16.526 29.052 49.528 17.684 51.549s-3.284 23.678-7.578 24.941c-.569.167-1.998-.407-4.037-1.519l2.5 3.645c-12.909-1.552-26.949 6.091-30.813 18.505-3.867 12.413 4.973 27.763 17.922 28.943z" fill="#005E4C"/><path d="M202.687 444.885c-13.268.001-26.104-8.416-31.503-20.512-8.168 11.973-24.798 17.847-38.589 13.176-.464-.157-.932-.326-1.402-.495-2.473-.89-4.81-1.729-6.934-1.11-1.274.372-2.409 1.268-3.61 2.217-.611.483-1.243.982-1.921 1.433-5.153 3.432-12.479 3.211-17.417-.525-3.803-2.877-5.985-7.685-5.919-12.434-1.353.663-2.936 1.011-4.593 1.009-4.183-.013-8.313-2.149-10.523-5.443-4.145-6.179-2.879-14.043-1.088-19.553.726-2.232 1.612-4.43 2.469-6.554 1.517-3.763 2.95-7.317 3.607-11.115.34-1.967.035-5.025-1.699-5.344-1.12-.205-2.408.813-3.525 1.785l-12.625 10.983a1.497 1.497 0 0 1-1.718.176c-13.235-7.424-22.552-21.757-24.085-36.854-12.208 1.564-25.132-5.668-29.971-17.037-4.702-11.046-1.299-24.891 7.698-32.742-2.207-1.265-3.886-3.443-4.768-6.271-1.499-4.805-.361-10.306 2.831-13.689 4.254-4.51 11.271-6.478 19.22-5.514-2.214-2.583-5.07-4.68-8.049-6.868-2.226-1.635-4.527-3.325-6.574-5.259-4.034-3.81-6.605-9.63-6.399-14.484.091-2.138.694-4.041 1.769-5.625-5.07-1.261-9.68-4.611-12.94-9.49-4.253-6.365-5.542-14.183-3.446-20.914 3.652-11.733 16.113-19.964 29.259-19.762l-.75-1.094a1.501 1.501 0 0 1 1.956-2.166c1.726.941 2.546 1.234 2.89 1.324.476-.881.316-4.26.209-6.538-.335-7.126-.795-16.887 7.536-18.368.447-.079.647-.204.672-.269.599-1.511-4.053-7.758-7.45-12.319-8.746-11.743-20.724-27.825-11.791-38.45 5.783-6.878 15.152-4.264 21.352-2.535 1.959.547 4.611 1.285 5.407 1.076a2.43 2.43 0 0 0-.053-.641c-1.533-8.174-5.605-29.886 6.648-38.899 9.141-6.722 21.749-.612 29.282 3.039 1.824.884 4.095 1.984 4.703 2 .759 0 2.312-.695 3.957-1.431 4.619-2.066 11.6-5.188 20.841-3.34 3.103.621 5.225 2.184 6.309 4.646 2.463 5.597-1.589 14.305-3.456 17.808 3.872 1.742 13.341 6.964 15.499 17.104.96 4.512.17 8.171-2.348 10.876-3.924 4.216-11.229 4.897-16.758 4.128-8.099-1.123-20.008 2.865-23.711 6.799-3.584 3.808-4.297 16.229-1.272 22.151 1.166 2.282 4 4.986 7.002 7.847 5.123 4.885 10.929 10.421 12.573 17.224 1.654 6.848-4.125 10.195-9.224 13.148-3.954 2.29-7.689 4.453-8.454 7.895-.359 1.614-.185 2.875.531 3.857 2.321 3.181 10.238 3.908 18.62 4.678 1.162.107 2.342.215 3.532.332 17.65 1.73 16.411 21.153 16.003 27.536-.697 10.914 8.162 35.359 22.619 41.47 5.782 2.444 16.001 6.641 26.82 11.085 17.538 7.204 37.416 15.368 47.182 19.652 10.469 4.592 17.519 17.132 22.667 26.288 2.351 4.182 5.015 8.921 6.397 9.397 3.513 1.211 3.144 5.511 2.786 9.668-.357 4.16-.727 8.461 2.058 10.13 1.257.754 2.477.936 3.728.552 4.921-1.508 9.442-11.215 10.928-14.404 1.844-3.959 4.782-6.167 8.271-6.217 3.855-.046 7.752 2.655 10.029 6.937 11.208 7.86 19.612 21.601 21.971 35.959 1.626 9.897.031 18.679-4.492 24.726-2.345 3.135-13.404 2.966-36.328 1.88-10.119-.479-21.589-1.021-23.656-.087-5.148 2.333-12.156 1.852-16.242-2.039-4.08 13.244-16.728 23.481-30.638 24.336-.637.045-1.275.064-1.91.064zm-31.206-25.384a1.501 1.501 0 0 1 1.424 1.027c4.308 12.984 17.875 22.148 31.506 21.303 13.654-.839 25.975-11.588 28.66-25.002a1.5 1.5 0 0 1 2.797-.406c2.518 4.77 9.462 5.594 14.37 3.372 2.593-1.174 11.203-.832 25.035-.177 11.904.564 31.829 1.508 33.789-.687 4.024-5.381 5.421-13.351 3.928-22.436-2.219-13.506-10.471-26.927-21.023-34.191a1.496 1.496 0 0 1-.49-.563c-1.719-3.429-4.62-5.63-7.407-5.63h-.076c-2.31.033-4.245 1.584-5.595 4.484-4.483 9.624-8.54 14.71-12.768 16.006-2.081.638-4.149.353-6.15-.847-4.391-2.633-3.899-8.359-3.503-12.96.259-3.012.527-6.126-.776-6.576-2.351-.811-4.372-4.248-8.034-10.763-4.94-8.787-11.706-20.822-21.257-25.011-9.734-4.27-29.594-12.427-47.117-19.625-10.827-4.447-21.053-8.647-26.849-11.096-15.157-6.407-25.278-31.366-24.445-44.425.998-15.631-3.229-23.372-13.302-24.359a558.457 558.457 0 0 0-3.513-.33c-9.471-.869-17.649-1.621-20.769-5.897-1.236-1.695-1.585-3.806-1.036-6.276 1.051-4.728 5.539-7.327 9.879-9.84 5.562-3.221 8.864-5.491 7.812-9.847-1.437-5.946-6.904-11.159-11.727-15.758-3.33-3.175-6.206-5.917-7.604-8.654-3.594-7.036-2.641-20.897 1.759-25.572 4.286-4.554 16.973-9.013 26.309-7.715 4.78.664 11.009.173 14.149-3.201 1.812-1.947 2.354-4.708 1.609-8.207-2.317-10.889-15.072-15.526-15.201-15.572a1.501 1.501 0 0 1-.784-2.19c1.838-3.043 6.164-11.951 4.129-16.568-.676-1.535-2.034-2.488-4.15-2.911-8.303-1.661-14.757 1.227-19.028 3.137-2.196.982-3.783 1.692-5.183 1.692-1.21 0-2.805-.747-6.01-2.3-6.924-3.356-18.514-8.972-26.196-3.322-10.735 7.896-6.778 28.996-5.478 35.929.282 1.505.009 2.649-.813 3.403-1.605 1.473-4.412.689-8.295-.395-5.785-1.614-13.708-3.825-18.25 1.576-7.404 8.807 3.753 23.788 11.901 34.727 5.946 7.984 8.995 12.286 7.833 15.217-.31.783-1.071 1.785-2.936 2.117-5.313.945-5.445 7.197-5.065 15.273.232 4.926.416 8.816-2.353 9.63a2.275 2.275 0 0 1-.584.092 1.503 1.503 0 0 1-1.557 2.083c-12.844-1.545-25.673 6.125-29.202 17.462-1.829 5.875-.679 12.737 3.076 18.356 3.353 5.017 8.292 8.169 13.552 8.649a1.502 1.502 0 0 1 .798 2.668c-1.674 1.332-2.575 3.214-2.676 5.593-.171 4.035 2.023 8.928 5.461 12.176 1.913 1.806 4.138 3.441 6.29 5.021 4.075 2.993 8.288 6.087 10.904 10.64a1.502 1.502 0 0 1-1.633 2.211c-8.382-1.902-15.875-.404-20.035 4.008-2.433 2.579-3.317 6.994-2.149 10.737.517 1.658 1.882 4.544 5.211 5.252a1.501 1.501 0 0 1 .549 2.695c-9.455 6.634-13.318 20.156-8.793 30.784 4.524 10.628 16.946 17.215 28.284 15a1.499 1.499 0 0 1 1.785 1.377c.913 14.354 9.425 28.189 21.784 35.545l11.816-10.281c1.188-1.033 3.396-2.96 6.038-2.472 3.585.66 4.782 4.929 4.112 8.806-.711 4.113-2.271 7.983-3.781 11.726-.838 2.078-1.704 4.227-2.398 6.36-1.585 4.876-2.747 11.776.727 16.954 1.645 2.451 4.876 4.104 8.041 4.114 1.407.039 3.917-.325 5.446-2.575a1.5 1.5 0 0 1 2.669 1.304c-1.521 4.718.245 10.313 4.198 13.304s9.817 3.168 13.944.42c.576-.384 1.133-.824 1.724-1.29 1.374-1.086 2.795-2.208 4.63-2.743 3.063-.893 6.105.201 8.789 1.167.453.163.903.325 1.35.476 13.452 4.559 29.873-1.909 36.603-14.417a1.507 1.507 0 0 1 1.321-.786z" fill="#005E4C"/><path d="M202.117 219.449c-12.671 10.682-47.634 9.79-49.441-6.334-2.274-20.284 14.205-22.916 14.205-22.916s-2.082-52.514 28.237-52.514c17.053 0 15.916 32.427 15.916 32.427s14.4 8.508 8.337 25.102c-2.939 8.041-11.57 19.443-17.254 24.235z" fill="#005E4C"/><path d="M177.646 228.03c-5.569 0-11.062-.863-15.636-2.686-6.487-2.586-10.23-6.757-10.825-12.062-1.797-16.031 7.842-22.678 14.166-24.295-.084-6.185.32-32.633 12.807-45.625 4.578-4.763 10.284-7.178 16.959-7.178 3.709 0 6.918 1.375 9.536 4.086 7.644 7.917 7.938 25.014 7.896 29.054 3.019 2.15 13.807 11.138 8.229 26.404-3.007 8.229-11.823 19.916-17.696 24.867-5.669 4.781-15.669 7.435-25.436 7.435zm17.471-88.846c-5.826 0-10.803 2.104-14.793 6.253-13.012 13.532-11.958 44.392-11.945 44.702a1.5 1.5 0 0 1-1.262 1.54c-.611.101-15.031 2.708-12.951 21.268.585 5.225 5.193 8.109 8.955 9.609 11.509 4.589 29.991 2.521 38.029-4.255 5.585-4.708 13.961-15.802 16.812-23.603 5.548-15.187-7.15-22.973-7.694-23.298a1.503 1.503 0 0 1-.733-1.342c.007-.197.592-19.806-7.042-27.708-2.059-2.129-4.472-3.166-7.376-3.166z" fill="#005E4C"/><path d="M213.761 312.776c-2.248 8.502-35.238 20.285-55.346 20.285-15.166 0-27.879-8.021-19.088-19.7 8.792-11.679 33.454-19.097 33.454-19.097s-6.842-12.256 6.79-12.329c9.696-.053 36.085 23.675 34.19 30.841z" fill="#37FFB0"/><path d="M158.415 334.56c-10.748 0-19.56-3.744-22.45-9.537-1.327-2.659-2.028-6.997 2.164-12.565 7.747-10.291 26.814-17.202 32.577-19.107-.871-2.162-1.952-6.029-.19-9.049 1.483-2.542 4.526-3.843 9.046-3.868h.039c8.086 0 24.389 13.501 31.456 22.629 3.423 4.42 4.781 7.723 4.154 10.096-2.569 9.716-37.067 21.401-56.796 21.401zm21.186-51.126h-.022c-3.38.018-5.557.817-6.468 2.375-1.391 2.374.237 6.382.981 7.726a1.501 1.501 0 0 1-.879 2.166c-.242.073-24.295 7.415-32.688 18.563-2.624 3.486-3.255 6.656-1.876 9.421 2.351 4.711 10.294 7.876 19.766 7.876 21.077 0 52.016-12.057 53.896-19.168.268-1.012-.544-3.512-3.626-7.493-8.575-11.075-23.635-21.466-29.084-21.466zM491.96 409.813c4.295-5.857-11.368-19.911-7.832-29.764 3.537-9.853-12.582-13.642-12.582-13.642s8.034-13.137.961-20.884c-7.074-7.747-18.948 4.968-18.948 4.968s-4.042-9.095-13.895-8.59-3.537 8.084-1.516 14.724-8.337 8.265-13.137 8.518-7.074-8.337-14.905-7.079-5.305 10.414-5.305 10.414l-34.466 3.38-26.924 34.929s60.632 9.136 66.442 3.026c5.811-6.109 18.442-1.722 20.429 3.583s-9.061 26.021.001 30.063 14.18-6.063 18.307-5.558.926 11.874 9.744 13.137 10.382-19.2 13.211-25.263 10.813 2.526 10.813 2.526 3.284 14.653 10.352 11.368c7.069-3.283-5.045-23.999-.75-29.856zm-64.169-8.59c-7.326 2.826-14.4 0-15.829-4.735-.718-2.378 2.692-12.902-3.876-11.639s-4.547 9.814-9.095 9.454-15.13-20.57-5.67-19.812c2.961.237 10.976 5.558 10.976 5.558s15.246-7.074 19.875-1.516c4.63 5.558-1.851 6.522 0 10.461s10.946 9.403 3.619 12.229z" fill="#005E4C"/><path d="M459.138 452.597c-.329 0-.667-.024-1.016-.074-6.246-.895-7.477-6.184-8.291-9.684-.368-1.581-.784-3.372-1.422-3.45-.925-.11-2.474 1.065-3.986 2.202-3.458 2.6-8.195 6.161-14.75 3.237-6.908-3.082-4.334-13.236-2.267-21.395.953-3.757 2.032-8.016 1.471-9.512-.827-2.207-4.394-4.472-8.298-5.267-4.023-.82-7.536-.021-9.639 2.191-6.043 6.354-57.498-1.032-67.753-2.576a1.5 1.5 0 0 1-.964-2.399l26.924-34.929c.252-.328.63-.537 1.042-.577l32.843-3.221c-.228-1.837-.264-4.79 1.258-7.159 1.191-1.854 3.068-2.999 5.578-3.402 5.217-.838 8.306 2.076 10.783 4.418 1.543 1.458 2.88 2.734 4.281 2.644 4.22-.222 9.752-1.345 11.458-3.779.56-.798.662-1.689.322-2.804-.437-1.437-1.108-2.968-1.758-4.449-1.582-3.609-3.077-7.019-1.499-9.574.996-1.613 3.001-2.476 6.131-2.636 7.965-.407 12.463 4.779 14.32 7.653 2.496-2.289 7.834-6.536 13.071-6.536h.054c2.568.014 4.782 1.021 6.581 2.991 6.226 6.819 2.16 16.958.143 20.971 3.045.985 8.952 3.388 11.332 7.769 1.228 2.26 1.379 4.718.451 7.304-1.618 4.508 1.625 10.541 4.486 15.863 2.961 5.51 5.759 10.714 3.144 14.281-1.561 2.128-.051 7.989 1.281 13.161 1.884 7.312 3.833 14.875-1.106 17.169-1.758.816-3.551.821-5.187.016-4.483-2.208-6.655-9.938-7.164-12.001-1.547-1.568-4.805-4.216-6.713-3.914-.361.057-.896.251-1.375 1.278-.72 1.543-1.409 4.335-2.139 7.291-1.981 8.034-4.663 18.899-11.627 18.899zm-10.867-16.215c.167 0 .334.01.503.031 2.72.333 3.36 3.085 3.979 5.747.925 3.976 1.882 6.833 5.795 7.394 5.04.733 7.504-9.274 9.306-16.572.799-3.236 1.489-6.032 2.333-7.84 1-2.143 2.525-2.8 3.628-2.974 4.157-.651 9.093 4.521 9.643 5.113.181.194.307.434.365.692.536 2.377 2.597 8.875 5.662 10.383.828.406 1.652.392 2.595-.046 2.675-1.243.971-7.861-.534-13.701-1.644-6.381-3.197-12.408-.795-15.683 1.496-2.04-.977-6.639-3.367-11.086-3.158-5.874-6.736-12.532-4.667-18.297.635-1.77.55-3.358-.262-4.854-2.556-4.715-11.166-6.8-11.252-6.821a1.501 1.501 0 0 1-.936-2.241c.074-.122 7.357-12.275 1.133-19.092-1.228-1.345-2.662-2.004-4.382-2.013-4.749-.003-10.536 5.04-12.361 6.995a1.506 1.506 0 0 1-1.345.456 1.497 1.497 0 0 1-1.122-.87c-.149-.33-3.772-8.142-12.447-7.701-1.985.102-3.311.534-3.732 1.216-.751 1.216.548 4.179 1.694 6.793.684 1.561 1.392 3.174 1.88 4.78.604 1.985.35 3.852-.736 5.4-2.844 4.057-10.568 4.885-13.757 5.053-2.695.128-4.626-1.689-6.499-3.46-2.308-2.18-4.485-4.242-8.247-3.636-1.65.265-2.803.937-3.524 2.053-1.622 2.51-.583 6.445-.572 6.484a1.504 1.504 0 0 1-1.3 1.888l-33.82 3.316-24.967 32.39c24.739 3.6 59.092 6.797 62.606 3.102 2.831-2.977 7.356-4.094 12.412-3.063 5.07 1.033 9.293 3.908 10.509 7.155.89 2.375-.109 6.314-1.373 11.301-1.792 7.068-4.021 15.865.58 17.917 4.942 2.205 8.545-.505 11.726-2.895 1.994-1.502 3.74-2.814 5.648-2.814zm-26.376-32.526c-2.254 0-4.417-.468-6.327-1.401-2.551-1.248-4.342-3.213-5.042-5.534-.282-.935-.16-2.276-.006-3.975.187-2.061.5-5.509-.522-6.435-.304-.275-.853-.339-1.628-.19-2.682.516-3.497 2.616-4.359 4.84-.846 2.18-1.904 4.902-5.137 4.636-3.329-.263-6.983-6.142-8.617-9.574-1.405-2.952-3.449-8.358-1.349-11.407.651-.945 1.964-2.033 4.534-1.821 2.819.226 8.708 3.872 10.992 5.349 3.519-1.529 16.152-6.463 20.892-.771 3.37 4.045 1.804 6.574.768 8.247-.753 1.218-.963 1.683-.563 2.536.45.957 1.579 2.2 2.67 3.402 2.169 2.389 4.413 4.859 3.803 7.432-.354 1.493-1.555 2.616-3.672 3.432-2.135.824-4.325 1.234-6.437 1.234zm-12.785-20.613c1.161 0 2.133.35 2.901 1.044 2.132 1.93 1.78 5.812 1.497 8.93-.094 1.035-.223 2.453-.109 2.836.457 1.513 1.695 2.829 3.488 3.706 2.908 1.422 6.782 1.446 10.365.064 1.062-.41 1.73-.893 1.833-1.325.245-1.034-1.691-3.167-3.105-4.724-1.298-1.429-2.523-2.778-3.165-4.143-1.126-2.397-.055-4.127.727-5.391.913-1.474 1.464-2.364-.522-4.748-3.172-3.807-14.407.209-18.092 1.917a1.501 1.501 0 0 1-1.46-.111c-2.975-1.975-8.393-5.163-10.266-5.312-1.38-.111-1.714.374-1.824.533-.712 1.034-.498 4.037 1.587 8.416 2.4 5.04 5.276 7.805 6.145 7.874.857.064 1.187-.367 2.104-2.731.961-2.478 2.277-5.872 6.59-6.701.458-.09.894-.134 1.306-.134z" fill="#005E4C"/><path d="m350.865 561.857-.126 50.108-75.655 10.61 14.013-83.368z" fill="#3FB19A"/><path d="M275.084 624.075a1.5 1.5 0 0 1-1.479-1.749l14.012-83.369a1.499 1.499 0 0 1 1.996-1.159l61.769 22.65c.592.217.985.781.983 1.412l-.126 50.108a1.498 1.498 0 0 1-1.292 1.481l-75.654 10.61c-.07.011-.139.016-.209.016zm15.192-82.838-13.374 79.569 72.339-10.146.121-47.756z" fill="#005E4C"/><path d="M250.065 538.07c28.042 31.832 66.731 38.762 100.8 36 28.042-2.274 26.526-18.189 40.926-49.642s24.632-104.968 25.011-114.442-35.621-15.682-35.621-15.682 0-5.918-6.821-7.812c-6.821-1.895-21.221 3.804-36.758 3.411-29.937-.758-66.316-3.798-113.677 6.442-54.173 11.712-53.231 3.096-81.421 8.577-9.745 1.895-11.016 25.207-7.007 40.686 6.063 23.414 25.263 32.021 33.853 32.021 12.632 50.964 51.032 69.663 51.032 69.663l-.505 25.263s-47.495 8.589-47.495 47.481v51.045" fill="#3FB19A"/><path d="M172.381 672.58a1.5 1.5 0 0 1-1.5-1.5v-51.045c0-36.135 39.994-46.982 47.519-48.7l.463-23.151c-5.77-3.166-38.849-23.083-50.694-69.106-8.979-.721-27.986-9.394-34.125-33.095-3.132-12.097-3.243-29.573 1.996-37.878 1.648-2.613 3.727-4.181 6.178-4.657 11.63-2.261 18.263-2.157 25.939-2.035 11.019.175 23.502.372 55.451-6.536 41.336-8.937 74.933-7.782 101.929-6.856 4.152.143 8.183.281 12.104.38 7.646.197 14.967-1.109 21.423-2.259 6.689-1.191 11.974-2.131 15.698-1.097 5.309 1.475 7.308 5.345 7.794 7.977 8.148 1.478 36.136 7.271 35.746 17.023-.413 10.325-10.747 83.556-25.146 115.006-3.162 6.906-5.555 13.068-7.667 18.505-7.555 19.448-11.716 30.161-34.502 32.008-29.758 2.414-71.617-1.961-102.047-36.503a1.5 1.5 0 1 1 2.251-1.983c29.608 33.609 70.478 37.855 99.554 35.497 20.912-1.695 24.6-11.189 31.947-30.104 2.127-5.475 4.538-11.681 7.736-18.667 14.242-31.107 24.466-103.645 24.875-113.877.226-5.625-19.967-11.657-34.376-14.145a1.5 1.5 0 0 1-1.245-1.478c-.003-.185-.138-4.815-5.723-6.367-3.067-.853-8.305.08-14.369 1.16-6.597 1.175-14.078 2.502-22.025 2.305-3.929-.1-7.969-.238-12.13-.381-26.829-.922-60.222-2.068-101.192 6.79-32.286 6.98-44.953 6.78-56.132 6.603-7.51-.119-13.996-.221-25.319 1.98-1.606.312-3.023 1.427-4.213 3.312-4.741 7.518-4.537 24.293-1.628 35.525 5.987 23.117 24.757 30.897 32.401 30.897a1.5 1.5 0 0 1 1.456 1.139c12.303 49.64 49.855 68.491 50.233 68.676.524.256.854.794.842 1.378l-.505 25.263a1.5 1.5 0 0 1-1.232 1.446c-.462.084-46.262 8.835-46.262 46.005v51.045a1.504 1.504 0 0 1-1.503 1.5z" fill="#005E4C"/><path d="M371.623 467.979c-4.661 0-9.548-.672-12.733-1.462a1.5 1.5 0 0 1 .722-2.912c8.759 2.172 20.178 1.704 21.818-.894 2.568-4.064 1.564-11.697.758-17.831-.371-2.824-.722-5.492-.722-7.63 0-6.818-1.41-36.383-1.783-42.862a1.5 1.5 0 1 1 2.995-.171c.374 6.497 1.788 36.166 1.788 43.034 0 1.941.338 4.515.696 7.239.914 6.957 1.951 14.842-1.197 19.824-1.731 2.741-6.881 3.665-12.342 3.665zm-41.937-4.923c1.19-2.916 20.54-5.94 18.622-.865-1.516 4.009-5.306-2.729-18.622.865z" fill="#005E4C"/><path d="M346.713 465.001c-.88 0-1.823-.262-2.717-.511-2.721-.756-6.832-1.898-13.919.015a1.502 1.502 0 0 1-1.78-2.015c1.389-3.404 14.898-5.633 19.345-3.886 2.328.915 2.595 2.727 2.068 4.118-.668 1.769-1.771 2.279-2.997 2.279zm-4.387-4.024c.953.2 1.771.428 2.474.623.742.206 1.659.459 1.951.41-.003-.017.066-.117.154-.349.009-.025.017-.047.021-.065-.209-.156-1.105-.667-3.958-.633-.214.002-.428.007-.642.014zm34.571 33.007s1.988-5.305-4.432-7.451c-5.742-1.92-14.4 2.653-17.053-1.516-2.653-4.168-35.242.379-43.2 2.274 0 0 32.589.062 37.895 1.357 5.305 1.295 7.579 5.336 7.579 5.336s14.927-4.674 19.211 0z" fill="#005E4C"/><path d="M357.686 495.484a1.499 1.499 0 0 1-1.308-.765c-.079-.136-2.063-3.5-6.627-4.614-4.209-1.028-28.527-1.297-37.542-1.314a1.5 1.5 0 0 1-.344-2.959c.398-.095 40.896-7.776 44.813-1.62.921 1.449 3.333 1.253 7.196.758 2.927-.375 6.247-.802 9.066.141 2.493.833 4.208 2.202 5.097 4.068 1.251 2.626.305 5.223.264 5.332a1.5 1.5 0 0 1-2.511.487c-2.647-2.888-12.236-1.277-17.657.418a1.497 1.497 0 0 1-.447.068zm-27.819-9.487c8.701.185 17.894.534 20.596 1.194a14.19 14.19 0 0 1 7.836 5.047c3.223-.91 12.112-3.067 17.315-.888a3.636 3.636 0 0 0-.299-.909c-.531-1.089-1.65-1.925-3.327-2.486-2.168-.725-4.998-.361-7.733-.01-3.98.51-8.097 1.04-10.109-2.123-1.476-1.664-13.135-1.098-24.279.175zm-6.014 19.104c1.622 3.411 41.402 10.232 45.007 6.821-2.837 6.821-8.522 8.941-17.764 8.431-17.508-.967-27.243-15.252-27.243-15.252z" fill="#005E4C"/><path d="M353.482 521.921c-.793 0-1.616-.023-2.468-.071-16.711-.923-26.476-13.261-28.153-15.558-.211-.231-.298-.415-.361-.547a1.501 1.501 0 0 1 2.593-1.49c.004.006.03.044.078.109 1.096.973 8.409 3.278 21.105 5.292 13.876 2.201 20.596 1.879 21.572 1.161a1.486 1.486 0 0 1 1.874-.138c.583.402.796 1.165.524 1.819-2.689 6.462-7.906 9.423-16.764 9.423zm-23.849-12.658c4.343 4.008 11.688 9.048 21.546 9.593 7.442.411 11.957-.953 14.688-4.623-7.457.686-21.879-1.878-25.299-2.517-4.84-.903-8.363-1.725-10.935-2.453zm-5.779-49.027c-.582 0-1.134-.34-1.379-.907-2.928-6.803 3.811-13.246 4.099-13.517a1.5 1.5 0 0 1 2.055 2.187c-.053.05-5.492 5.278-3.397 10.144a1.5 1.5 0 0 1-1.378 2.093z" fill="#005E4C"/><path d="M229.981 671.08v-46.461c0-15.663 129.49-49.122 154.601-12.632 3.66 5.319 6.073 14.653 6.073 28.295v30.798" fill="#3FB19A"/><path d="M390.655 672.58a1.5 1.5 0 0 1-1.5-1.5v-30.798c0-15.706-3.159-23.594-5.809-27.445-16.41-23.845-80.99-16.791-121.605-4.167-20.791 6.462-30.26 12.797-30.26 15.949v46.461a1.5 1.5 0 1 1-3 0v-46.461c0-3.041 3.117-6.217 9.528-9.712 5.59-3.047 13.488-6.194 22.841-9.101 22.488-6.99 48.887-11.372 70.616-11.722 19.224-.318 44.267 2.397 54.352 17.053 4.146 6.025 6.337 16.103 6.337 29.145v30.798a1.5 1.5 0 0 1-1.5 1.5z" fill="#005E4C"/><path d="M169.349 477.628c12.632 50.964 51.031 69.663 51.031 69.663l-.505 25.263s-47.495 8.589-47.495 47.481v51.045h57.6v-46.461c0-7.721 31.47-19.763 66.389-25.622 23.169-4.883 10.202-27.728 10.202-27.728s-22.527-3.769-39.513-17.68-21.919-24.994-27.982-45.71c-4.512-15.416-13.5-74.757-16.762-111.192-52.537 11.192-51.904 2.807-79.81 8.232-9.745 1.895-11.016 25.207-7.007 40.686 6.063 23.415 25.262 32.023 33.852 32.023z" fill="#005E4C"/><path d="M229.981 672.58h-57.6a1.5 1.5 0 0 1-1.5-1.5v-51.045c0-36.135 39.994-46.982 47.519-48.7l.463-23.151c-5.77-3.166-38.849-23.083-50.694-69.106-8.979-.721-27.986-9.394-34.124-33.095-3.133-12.097-3.243-29.572 1.995-37.877 1.648-2.614 3.727-4.181 6.178-4.657 11.63-2.261 18.263-2.158 25.942-2.036 10.818.168 23.077.363 53.841-6.191a1.502 1.502 0 0 1 1.807 1.333c3.245 36.234 12.145 95.314 16.708 110.905 5.876 20.076 10.504 31.058 27.493 44.971 16.465 13.484 38.59 17.324 38.812 17.361.445.075.833.346 1.057.739.267.47 6.491 11.62 2.464 20.556-2.148 4.766-6.744 7.922-13.662 9.38-36.143 6.066-65.198 18.17-65.198 24.154v46.461a1.501 1.501 0 0 1-1.501 1.498zm-56.1-3h54.6v-44.961c0-4.514 7.086-9.53 21.061-14.909 12.812-4.931 29.79-9.375 46.58-12.192 5.867-1.238 9.751-3.82 11.484-7.665 2.929-6.5-.862-14.932-2.022-17.238-4.116-.789-23.904-5.111-39.476-17.864-16.848-13.797-22.192-24.993-28.472-46.449-4.531-15.482-13.287-73.304-16.664-109.797-29.886 6.268-42.083 6.075-52.86 5.907-7.513-.119-14-.22-25.323 1.981-1.606.312-3.023 1.427-4.212 3.312-4.742 7.518-4.537 24.294-1.628 35.525 5.986 23.117 24.757 30.897 32.4 30.897a1.5 1.5 0 0 1 1.456 1.139c12.303 49.64 49.855 68.491 50.233 68.676.524.256.854.794.842 1.378l-.505 25.263a1.5 1.5 0 0 1-1.232 1.446c-.463.084-46.263 8.835-46.263 46.005v49.546z" fill="#005E4C"/><path d="M320.423 316.386c-9.308-3.123-19.705-19.274-14.824-36.379 5.604-19.639 34.307-15.663 35.681 2.021s-11.822 37.389-20.857 34.358z" fill="#3FB19A"/><g fill="#005E4C"><path d="M322.364 318.2c-.829 0-1.638-.13-2.418-.392-5.163-1.732-10.377-6.989-13.608-13.719-3.709-7.726-4.484-16.424-2.181-24.494 3.313-11.61 13.472-14.825 21.171-14.052 7.852.79 16.661 6.249 17.448 16.369 1.057 13.603-5.938 27.679-13.311 33.429-2.429 1.893-4.843 2.859-7.101 2.859zm.797-49.765c-6.228 0-13.575 3.065-16.12 11.983-4.681 16.401 5.242 31.654 13.858 34.545 2.41.807 4.984-.636 6.72-1.989 6.603-5.149 13.131-18.4 12.165-30.831-.473-6.086-5.219-12.657-14.757-13.616-.605-.06-1.23-.092-1.866-.092z"/><path d="M274.212 311.723s2.758-21.106 12.863-31.716c10.105-10.611 23.113 3.032 23.113 3.032s14.276-14.653 25.897-3.032 2.977 32.842 2.977 32.842 14.707-12.126 22.791 8.084c8.084 20.211-8.07 37.389-23.235 49.516-15.165 12.126-40.428 18.545-40.428 18.545"/><path d="M298.19 390.494a1.501 1.501 0 0 1-.369-2.954c.25-.063 25.131-6.484 39.861-18.263 13.626-10.896 30.813-27.704 22.779-47.787-2.379-5.947-5.534-9.465-9.376-10.456-5.586-1.44-11.016 2.93-11.07 2.974a1.502 1.502 0 0 1-2.341-1.724c.083-.203 8.124-20.445-2.648-31.217-2.682-2.682-5.742-4.042-9.095-4.042h-.068c-7.647.042-14.532 6.99-14.601 7.061-.284.291-.651.434-1.082.451a1.5 1.5 0 0 1-1.076-.463c-.063-.066-6.406-6.608-13.207-6.608h-.014c-2.868.004-5.466 1.207-7.722 3.575-9.644 10.126-12.435 30.67-12.462 30.876a1.5 1.5 0 1 1-2.974-.39c.115-.882 2.94-21.716 13.265-32.557 2.846-2.989 6.179-4.505 9.904-4.506h.004c6.344 0 12.005 4.437 14.302 6.507 2.422-2.146 8.583-6.902 15.631-6.948h.104c4.176 0 7.948 1.655 11.213 4.921 5.083 5.083 7.253 12.688 6.277 21.996-.348 3.322-1.03 6.289-1.653 8.495 2.559-1.221 6.194-2.299 10.04-1.313 4.831 1.235 8.678 5.358 11.436 12.252 9.79 24.473-15.41 44.623-23.691 51.244-15.243 12.189-39.951 18.562-40.995 18.828-.125.033-.25.048-.372.048z"/><path d="M350.865 378.533c-3.789-7.579-4.531-23.343 1.895-26.779s11.253 2.457 11.253 2.457 2.565-16.974 14.103-13.943-.928 14.105-.928 14.105 17.635-1.6 21.425 5.027c3.789 6.627 0 10.795 0 10.795s2.746 12.378-7.532 12.821-46.38 13.671-46.38 13.671z"/><path d="M344.701 398.188a1.5 1.5 0 0 1-1.421-1.983l5.969-17.578c-3.498-7.688-4.714-24.178 2.804-28.196 4.437-2.374 8.482-.945 11.053.917.868-3.246 2.861-8.638 6.939-11.321 2.472-1.626 5.314-2.033 8.452-1.209 3.336.876 5.31 2.5 5.866 4.824.751 3.143-1.479 6.655-3.48 9.047 5.736-.098 15.927.54 19.032 5.968 3.446 6.027 1.339 10.351.29 11.914.296 1.872.797 7.051-1.911 10.579-1.611 2.099-4.017 3.231-7.149 3.366-9.929.427-45.569 13.449-45.928 13.581a1.521 1.521 0 0 1-.516.091zm12.133-46c-1.037 0-2.169.248-3.367.889-5.45 2.913-4.754 17.797-1.26 24.785a1.5 1.5 0 0 1 .079 1.153l-5.163 15.203c8.895-3.181 35.129-12.323 43.893-12.7 2.232-.096 3.833-.812 4.893-2.189 2.436-3.163 1.251-8.755 1.239-8.811a1.503 1.503 0 0 1 .355-1.332c.113-.13 2.971-3.51-.192-9.042-2.711-4.743-15.347-4.697-19.987-4.278a1.5 1.5 0 0 1-1.132-2.614c2.355-2.098 5.864-6.373 5.254-8.916-.279-1.164-1.527-2.044-3.71-2.618-2.311-.608-4.285-.341-6.04.814-4.83 3.178-6.186 11.815-6.199 11.902a1.5 1.5 0 0 1-2.643.726c-.129-.15-2.528-2.972-6.02-2.972zm-49.521 38.306a1.5 1.5 0 0 1-1.109-2.51c70.142-77.091 108.998-127.531 134.117-174.101 26.311-48.778 37.527-93.828 37.507-150.635a1.5 1.5 0 1 1 3 0c.021 57.338-11.304 102.814-37.866 152.06-25.243 46.799-64.221 97.412-134.539 174.695a1.494 1.494 0 0 1-1.11.491zm-9.124 0a1.5 1.5 0 0 1-1.491-1.35C283.512 258.26 144.764 174.929 117.084 159.553a1.5 1.5 0 0 1 1.457-2.623c27.909 15.503 167.806 99.544 181.143 231.913a1.5 1.5 0 0 1-1.495 1.651z"/><path d="M251.34 275.118a1.5 1.5 0 0 1-1.379-.908c-8.867-20.626-5.712-77.237-.316-119.447 5.399-42.236 16.669-98.329 30.663-117.412a1.5 1.5 0 1 1 2.419 1.774c-24.615 33.567-45.65 197.516-30.01 233.9a1.499 1.499 0 0 1-1.377 2.093z"/><path d="M260.451 101.161a1.498 1.498 0 0 1-1.399-.961c-.123-.318-12.364-32.027-21.328-50.703a1.499 1.499 0 1 1 2.704-1.298c7.719 16.082 17.834 41.718 20.661 48.961 7.046-5.886 34.853-28.475 50.792-32.092a1.501 1.501 0 0 1 .664 2.926c-17.245 3.912-50.781 32.517-51.117 32.806a1.502 1.502 0 0 1-.977.361zm-8.341 47.971c-.472 0-.936-.221-1.228-.636-.182-.258-18.247-25.818-26.212-30.525a1.5 1.5 0 1 1 1.527-2.583c8.516 5.032 26.382 30.306 27.138 31.38a1.5 1.5 0 0 1-1.225 2.364zm100.65 17.786a1.5 1.5 0 0 1-1.426-1.965c.097-.298 9.661-30.255 3.668-65.036a1.5 1.5 0 1 1 2.956-.509c6.125 35.543-3.673 66.171-3.773 66.476a1.5 1.5 0 0 1-1.425 1.034z"/><path d="M357.941 138.286a1.501 1.501 0 0 1-.772-2.787c.186-.111 18.695-11.403 25.989-33.313a1.5 1.5 0 0 1 2.847.948c-7.657 23.001-26.499 34.464-27.297 34.941-.24.143-.506.211-.767.211zm-9.501 249.318a1.5 1.5 0 0 1-1.333-2.186c12.064-23.507 60.417-66.362 117.51-58.899a1.5 1.5 0 0 1-.389 2.975c-31.464-4.109-57.97 7.537-74.662 18.034-20.035 12.599-34.421 28.797-39.791 39.261-.265.517-.79.815-1.335.815zm100.826-7.57a1.5 1.5 0 0 1-.68-2.838l52.711-26.779a1.501 1.501 0 0 1 1.359 2.675l-52.711 26.779c-.218.11-.451.163-.679.163zM307.314 68.09c-1.038-14.946 18.162-33.187 24.73-24.067s0 14.678 0 14.678 12.126.082 8.589 9.388-33.319.001-33.319.001z"/><path d="M330.172 73.709c-9.484 0-21.303-3.562-23.305-4.187a1.5 1.5 0 0 1-1.049-1.328c-.788-11.345 9.071-24.273 17.76-27.413 4.083-1.475 7.522-.635 9.684 2.366 4.726 6.562 3.256 11.603 1.615 14.358 2.219.415 5.191 1.399 6.789 3.731 1.356 1.981 1.481 4.466.372 7.387-1.462 3.839-6.255 5.086-11.866 5.086zm-21.397-6.741c11.068 3.313 28.313 6.228 30.457.589.75-1.973.737-3.484-.04-4.622-1.5-2.199-5.678-2.719-7.161-2.734a1.502 1.502 0 0 1-.956-2.645c.215-.188 5.388-4.83-.249-12.656-1.346-1.869-3.443-2.305-6.23-1.298-7.253 2.621-15.833 13.913-15.821 23.366zM289.762 77.64c-10.515-.38-3.523-26.185 8.43-23.865s-1.702 24.108-8.43 23.865z"/><path d="M289.87 79.141a4.39 4.39 0 0 1-.163-.003c-2.548-.092-4.552-1.433-5.642-3.776-2.173-4.67-.508-12.861 3.711-18.259 3.011-3.852 6.81-5.557 10.7-4.802 4.26.827 6.398 3.962 5.867 8.602-.836 7.31-8.693 18.238-14.473 18.238zm6.802-24.014c-2.89 0-5.114 2.01-6.532 3.824-3.474 4.444-5.042 11.521-3.355 15.146.616 1.323 1.607 1.992 3.031 2.043 3.551.132 10.778-8.857 11.547-15.577.466-4.073-1.75-4.985-3.458-5.316a6.464 6.464 0 0 0-1.233-.12zm-54.06-9.005c-4.207 7.788-28.8-10.157-17.179-17.736s21.09 10.496 17.179 17.736z"/><path d="M238.911 49.539c-.423 0-.864-.031-1.322-.095-6.217-.86-15.068-7.532-16.537-14.093-.743-3.32.522-6.24 3.562-8.223 4.802-3.132 10.006-2.672 14.278 1.261 5.244 4.827 7.646 13.618 5.04 18.444-.956 1.77-2.713 2.706-5.021 2.706zm-7.858-21.476c-1.451 0-3.06.444-4.8 1.579-1.999 1.304-2.742 2.957-2.273 5.055 1.148 5.132 8.999 11.081 14.021 11.776 1.68.232 2.785-.126 3.292-1.064 1.954-3.617-.241-10.954-4.432-14.811-1.426-1.313-3.4-2.535-5.808-2.535z"/><path d="M245.873 59.712c1.143 4.573-24.217 8.712-24.097-4.739s21.562-5.399 24.097 4.739z"/><path d="M234.508 65.622c-2.969 0-6.006-.497-8.541-1.715-3.759-1.806-5.727-4.9-5.691-8.947.043-4.862 2.652-7.956 7.157-8.49 7.063-.838 17.988 5.257 19.895 12.879.171.682.22 2.021-1.371 3.317-2.033 1.657-6.652 2.956-11.449 2.956zm-5.689-16.232c-.355 0-.7.019-1.032.058-3.005.356-4.48 2.168-4.511 5.538-.044 4.902 4.032 6.672 7.458 7.294 6.484 1.177 13.06-1.035 13.664-2.281-1.485-5.683-9.885-10.609-15.579-10.609zm128.141 53.269c5.4-.505 20.558-35.876 7.926-36.127-12.632-.252-13.642 18.064-13.642 18.064s-8.084-8.972-12.126-.001c-4.042 8.97 17.842 18.064 17.842 18.064z"/><path d="M356.96 104.159c-.197 0-.393-.039-.576-.115-.637-.265-15.628-6.569-18.69-14.308-.788-1.99-.769-3.928.056-5.758 1.273-2.826 3.08-4.44 5.368-4.798 2.637-.411 5.198 1 6.961 2.342 1.145-7.025 5.199-16.69 14.837-16.49 2.269.045 6.112 1.115 6.356 7.772.38 10.346-8.892 30.854-14.173 31.348a1.294 1.294 0 0 1-.139.007zm-12.898-22.052c-.164 0-.326.012-.486.037-1.221.193-2.262 1.224-3.091 3.066-.486 1.078-.486 2.197-.002 3.421 2.076 5.249 12.262 10.573 16.59 12.446 3.164-1.504 11.969-19.222 11.165-28.787-.313-3.722-1.971-4.231-3.381-4.259-4.572-.087-7.963 2.6-10.137 7.998-1.719 4.268-1.976 8.605-1.978 8.648a1.5 1.5 0 0 1-2.612.922c-.925-1.02-3.703-3.492-6.068-3.492zm39.182 24.156c4.376 5.279 22.569-8.151 12.463-15.224-10.105-7.074-17.853 8.722-12.463 15.224z"/><path d="M386.179 108.962c-1.724 0-3.135-.591-4.089-1.742-3.707-4.471-2.095-12.138 1.669-16.223 3.562-3.864 8.351-4.308 12.809-1.188 2.811 1.968 4.064 4.702 3.53 7.698-.904 5.073-6.681 9.845-11.509 11.118a9.467 9.467 0 0 1-2.41.337zm4.464-18.203c-2.153 0-3.748 1.262-4.678 2.272-2.918 3.166-4.208 9.088-1.566 12.275.782.944 2.481.668 3.425.419 3.845-1.014 8.647-4.969 9.321-8.744.331-1.858-.42-3.4-2.298-4.714-1.57-1.098-2.978-1.508-4.204-1.508zm86.917-47.683h-.003a1.5 1.5 0 0 1-1.497-1.503c.024-12.266-6.075-18.641-6.137-18.704a1.501 1.501 0 0 1 2.134-2.109c.287.29 7.03 7.244 7.003 20.819a1.5 1.5 0 0 1-1.5 1.497zm22.4-4.838c-8.489-6.811-25.504 26.548-20.668 30.579s27.91-24.768 20.668-30.579z"/><path d="M480.449 70.702c-.979 0-1.666-.356-2.117-.732-4.62-3.851 3.356-20.27 9.43-27.697 6.764-8.271 11.135-6.811 13.136-5.205 1.142.916 2.382 2.758 1.811 6.33-1.451 9.058-13.871 24.49-20.358 26.921-.73.274-1.361.383-1.902.383zm16.957-31.859c-2.632 0-5.867 3.552-7.321 5.329-7.35 8.987-11.494 22.107-9.832 23.493.063.052.402.086 1.045-.155 5.589-2.094 17.178-16.654 18.448-24.586.276-1.725.032-2.908-.725-3.516a2.514 2.514 0 0 0-1.615-.565z"/></g><path d="M477.56 98.358s-34.863-20.738-23.242-32.723 25.084 3.698 24.808 10.515c-.277 6.817-1.566 22.208-1.566 22.208z" fill="#37FFB0"/><path d="M477.56 99.858c-.266 0-.531-.071-.767-.211-1.005-.597-24.623-14.776-26.255-27.061-.404-3.04.505-5.73 2.702-7.996 4.605-4.749 10.201-6.051 15.761-3.665 6.776 2.907 11.812 10.604 11.622 15.286-.274 6.771-1.556 22.118-1.569 22.272a1.5 1.5 0 0 1-1.494 1.375zm-14.035-37.117c-2.866 0-5.587 1.315-8.13 3.938-1.547 1.596-2.164 3.399-1.883 5.512.583 4.394 5.003 10.06 12.782 16.386 3.874 3.15 7.708 5.74 9.972 7.201.374-4.624 1.155-14.612 1.361-19.688.131-3.246-3.929-9.885-9.808-12.407-1.463-.628-2.896-.942-4.294-.942zm7.466 75.545c-.218 0-.44-.048-.65-.149-17.747-8.55-19.521-17.132-18.998-21.487.566-4.723 4.292-8.492 9.491-9.602 4.917-1.05 11.722.416 16.074 7.677a1.5 1.5 0 0 1-2.574 1.543c-3.54-5.905-8.974-7.118-12.874-6.285-3.925.838-6.728 3.595-7.139 7.025-.344 2.866.656 10.398 17.321 18.427a1.5 1.5 0 0 1-.651 2.851z" fill="#005E4C"/><path d="M475.621 126.407c3.455-10.611 21.619-50.507 34.276-33.853 9.6 12.632-23.747 35.368-41.034 55.078 2.128-10.846 6.758-21.225 6.758-21.225z" fill="#37FFB0"/><path d="M468.863 149.132a1.5 1.5 0 0 1-1.472-1.789c2.067-10.535 6.376-20.454 6.828-21.476 2.013-6.118 14.517-36.519 27.418-38.701 3.562-.6 6.738.906 9.454 4.479 7.68 10.105-7.644 24.523-23.866 39.787-6.073 5.714-12.353 11.623-17.234 17.188a1.498 1.498 0 0 1-1.128.512zm34.235-59.089a5.75 5.75 0 0 0-.961.083c-4.3.727-9.726 6.299-15.277 15.688-4.828 8.164-8.514 17.066-9.813 21.058a1.42 1.42 0 0 1-.056.146c-.038.084-3.124 7.055-5.367 15.402 4.186-4.364 8.925-8.823 13.546-13.171 14.542-13.683 29.579-27.831 23.533-35.786-1.743-2.294-3.585-3.42-5.605-3.42zm-27.478 36.364h.01z" fill="#005E4C"/><path d="M461.679 170.285c11.839-9.015 44.681-14.874 43.165 10.54-1.516 25.413-59.495 27.257-55.579 18.84 3.916-8.416 12.414-29.38 12.414-29.38z" fill="#37FFB0"/><path d="M461.743 205.694c-6.327 0-11.413-1.006-13.288-3.071-.933-1.028-1.134-2.337-.55-3.591 3.855-8.286 12.298-29.102 12.383-29.311.101-.249.267-.467.481-.63 8.158-6.213 26.263-11.294 37.215-5.454 4.15 2.212 8.969 7.006 8.356 17.277-.54 9.04-7.565 16.193-20.317 20.686-7.664 2.7-16.831 4.094-24.28 4.094zm1.169-34.459c-1.181 2.904-8.693 21.339-12.287 29.063a.39.39 0 0 0-.049.161c.123.793 4.546 2.594 14.25 2.139 9.064-.425 18.214-2.553 25.103-5.839 5.852-2.792 12.931-7.838 13.419-16.023.416-6.971-1.863-11.833-6.772-14.451-6.455-3.44-22.675-3.183-33.664 4.95z" fill="#005E4C"/><path d="M435.172 226.121c35.819 8.412 43.958-27.462 11.885-21.952-4.121 7.991-11.885 21.952-11.885 21.952z" fill="#3FB19A"/><path d="M445.658 228.918c-3.266 0-6.875-.408-10.829-1.337a1.499 1.499 0 0 1-.968-2.189c.078-.139 7.801-14.032 11.864-21.911a1.502 1.502 0 0 1 1.079-.791c9.781-1.681 17.203.245 20.364 5.284 2.232 3.559 1.852 8.241-.992 12.219-3.317 4.64-10.191 8.725-20.518 8.725zm-8.19-3.845c9.17 1.717 20.858.942 26.267-6.623 2.155-3.014 2.488-6.334.892-8.881-2.374-3.784-8.543-5.277-16.583-4.041-3.249 6.255-8.427 15.658-10.576 19.545z" fill="#005E4C"/><path d="M357.939 128.933c-4.674-8.589-17.811-26.779-23.874-16.674s23.022 32.375 23.022 32.375z" fill="#3FB19A"/><path d="M357.087 146.134c-.324 0-.646-.105-.912-.309-3.085-2.363-29.959-23.4-23.396-34.338 1.875-3.124 4.281-3.738 5.972-3.701 9.389.198 20.396 20.227 20.506 20.429a1.5 1.5 0 0 1 .18.798l-.852 15.701a1.5 1.5 0 0 1-1.498 1.42zm-18.488-35.349c-.842 0-2.061.267-3.249 2.246-3.65 6.085 9.78 20.053 20.395 28.638l.672-12.39c-4.286-7.739-12.465-18.383-17.731-18.494h-.087z" fill="#005E4C"/><path d="M357.087 144.634s-20.298-24.906-32.81-17.675c-17.003 9.827-2.526 51.878 6.251 60.526 8.778 8.647 2.705 56.142 2.705 56.142s56.865-10.374 56.865-36.884c0-16.168-18.183-12.632-18.183-12.632s32.38-28.694 23.791-46.479c-5.31-10.995-25.922 0-42.947 17.785 2.402-9.489 4.328-20.783 4.328-20.783z" fill="#37FFB0"/><path d="M333.234 245.128a1.5 1.5 0 0 1-1.488-1.691c1.662-13.006 4.494-48.219-2.271-54.883-7.005-6.901-16.384-31.8-14.28-48.285.896-7.016 3.698-11.931 8.331-14.608 13.463-7.779 33.863 16.969 34.724 18.026.274.335.389.773.316 1.2-.016.093-1.331 7.765-3.123 15.732 11.372-10.861 25.592-20.177 34.729-18.735 3.134.496 5.515 2.258 6.886 5.097 7.403 15.328-12.888 37.361-21.003 45.3 3.252.014 7.661.635 10.983 3.374 3.027 2.495 4.562 6.226 4.562 11.09 0 11.658-9.877 21.674-29.357 29.769-14.201 5.901-28.595 8.565-28.739 8.591a1.66 1.66 0 0 1-.27.023zm-3.935-117.961c-1.525 0-2.963.335-4.271 1.091-3.778 2.184-6.085 6.352-6.855 12.391-2.096 16.418 7.706 40.149 13.409 45.768 3.951 3.892 5.664 14.803 5.091 32.431-.315 9.712-1.255 18.91-1.705 22.896 9.961-2.137 53.632-12.778 53.632-35 0-3.925-1.167-6.877-3.47-8.775-4.753-3.918-12.846-2.4-12.926-2.385a1.5 1.5 0 0 1-1.281-2.595c.315-.28 31.433-28.144 23.435-44.705-.951-1.969-2.473-3.093-4.653-3.438-7.759-1.226-22.506 7.658-35.86 21.608a1.5 1.5 0 0 1-2.538-1.405c2.025-8.005 3.732-17.422 4.185-19.992-4.973-5.934-17.093-17.89-26.193-17.89z" fill="#005E4C"/><path d="M341.28 198.935c-5.52-12.121-45.11-3.721-35.681 16.563 5.741 12.352 39.864-7.377 35.681-16.563z" fill="#3FB19A"/><path d="M313.175 220.938c-4.296 0-7.452-1.615-8.936-4.808-2.382-5.125-2.071-10.06.9-14.269 3.968-5.62 14.427-11.006 26.007-9.919 5.792.544 9.876 2.807 11.5 6.371 3.004 6.597-8.093 15.292-16.933 19.36-4.746 2.183-9.024 3.265-12.538 3.265zm15.266-26.119c-7.574 0-16.8 3.033-20.851 8.772-2.349 3.328-2.561 7.121-.63 11.274 2.299 4.946 10.864 3.135 17.499.082 9.547-4.392 17.059-11.872 15.457-15.391-1.142-2.508-4.44-4.194-9.05-4.627a26.164 26.164 0 0 0-2.425-.11zm1.834 63.461c-.554-16.741 14.75-42.294 28.975-38.831s2.099 12.052 2.099 12.052 14.147-8.589 16.674 2.021c2.526 10.611-47.414 34.839-47.748 24.758z" fill="#005E4C"/><path d="M334.031 262.16c-1.201 0-2.222-.167-3.019-.526-1.392-.628-2.186-1.801-2.236-3.304-.402-12.147 7.042-28.346 16.596-36.112 4.764-3.872 9.686-5.333 14.233-4.227 4.781 1.164 7.464 3.111 7.975 5.787.243 1.273-.049 2.521-.603 3.661 2.592-.747 5.544-1.099 7.996-.075 2.303.962 3.819 2.917 4.508 5.811.74 3.109-1.612 6.938-6.991 11.382-9.329 7.707-29.204 17.602-38.459 17.603zm22.576-41.526c-3.674 0-7.022 2.026-9.342 3.912-8.765 7.125-15.858 22.551-15.49 33.684.011.314.083.494.471.669 4.536 2.041 26.268-6.687 38.334-16.655 4.174-3.448 6.411-6.579 5.984-8.374-.461-1.934-1.358-3.156-2.744-3.736-3.546-1.485-9.643 1.41-11.693 2.65a1.5 1.5 0 0 1-1.646-2.506c1.208-.86 4.564-3.798 4.152-5.939-.265-1.377-2.302-2.596-5.738-3.433a9.64 9.64 0 0 0-2.288-.272z" fill="#005E4C"/><path d="M336.591 296.68c-8.99-2.526-2.603-33.171 8.995-46.484s39.703-8.589 32.533 14.653-31.348 34.692-41.528 31.831z" fill="#3FB19A"/><path d="M339.989 298.597c-1.401 0-2.681-.157-3.804-.473-1.5-.421-3.511-1.673-4.576-5.242-3.125-10.469 3.478-32.917 12.846-43.671 6.831-7.841 19.535-10.24 28.321-5.351 7.261 4.042 9.731 11.854 6.776 21.431-6.725 21.799-27.565 33.306-39.563 33.306zm-2.992-3.36c9.504 2.67 32.803-8.511 39.689-30.83 2.536-8.22.629-14.586-5.369-17.925-7.485-4.165-18.75-2.014-24.6 4.7-7.775 8.925-15.246 30.751-12.233 40.843.542 1.814 1.387 2.895 2.513 3.212z" fill="#005E4C"/><path d="M295.716 371.858c29.708-30.714 17.633-54.462 5.002-47.135 4.881-26.851-19.2-39.663-31.198-22.999 13.441 27.532 24.52 59.744 26.196 70.134z" fill="#37FFB0"/><path d="M295.716 373.358a1.499 1.499 0 0 1-1.481-1.261c-1.604-9.941-12.554-42.042-26.063-69.715a1.502 1.502 0 0 1 .131-1.535c5.335-7.411 13.43-9.981 21.124-6.712 8.011 3.405 14.909 13.336 13.173 28.143 3.758-1.106 7.413.059 9.963 3.319 3.31 4.231 4.043 11.071 2.013 18.766-2.411 9.136-8.56 19.004-17.782 28.539a1.502 1.502 0 0 1-1.078.456zm-24.446-71.467c12.531 25.838 22.523 54.39 25.349 66.82 18.105-19.765 18.163-35.41 13.582-41.266-2.186-2.795-5.451-3.328-8.73-1.425a1.498 1.498 0 0 1-2.228-1.566c2.668-14.677-3.597-24.417-10.989-27.559-6.085-2.585-12.523-.668-16.984 4.996z" fill="#005E4C"/><path d="M234.71 239.907c11.201-33.523 45.626-34.733 44.11-8.406s-26.711 54.568-35.312 50.021c-7.538-3.985-15.071-22.841-8.798-41.615z" fill="#37FFB0"/><path d="M245.605 283.5c-1.193 0-2.114-.291-2.798-.652-8.129-4.298-16.072-23.807-9.52-43.417 6.942-20.778 22.736-29.674 34.073-27.492 8.595 1.653 13.56 9.181 12.958 19.647-1.247 21.664-17.584 43.747-28.747 50.042-2.481 1.4-4.445 1.872-5.966 1.872zm-9.472-43.118c-6.261 18.739 1.671 36.427 8.077 39.814 1.262.667 3.353.249 5.888-1.18 10.318-5.819 26.054-27.255 27.226-47.601.517-8.983-3.419-15.162-10.529-16.529-10.083-1.941-24.261 6.339-30.662 25.496zm12.473-62.92c-12.053-10.581 13.463-36.43 20.914-26.564 7.45 9.867-13.404 33.157-20.914 26.564z" fill="#005E4C"/><path d="M251.818 180.103c-1.613 0-3.042-.497-4.202-1.514-3.418-3-4.498-7.268-3.123-12.341 2.287-8.438 11.118-17.428 18.527-18.861 3.223-.623 5.956.302 7.696 2.607 4.768 6.314-.316 17.458-7.987 24.584-3.901 3.626-7.757 5.525-10.911 5.525zm-2.222-3.768c2.134 1.873 6.488.322 11.092-3.954 6.55-6.085 11.332-15.683 7.634-20.579-1.057-1.4-2.607-1.88-4.732-1.469-6.218 1.202-14.243 9.474-16.201 16.7-1.07 3.948-.327 7.077 2.207 9.302zm-20.725-57.002s7.985-20.224 0-20.975-10.006 9.105-10.006 9.105-15.158-8.135-16.674 1.362 20.517 15.561 26.68 10.508z" fill="#005E4C"/><path d="M221.93 122.65c-4.867 0-10.543-1.513-14.673-3.884-4.827-2.771-7.152-6.386-6.547-10.178.481-3.017 2.148-4.426 3.462-5.076 4.162-2.063 10.642.39 13.736 1.808 1.356-3.915 4.785-9.048 11.104-8.456 1.645.155 2.958.959 3.797 2.326 3.329 5.424-1.932 19.146-2.542 20.693a1.503 1.503 0 0 1-.444.609c-1.831 1.502-4.687 2.158-7.893 2.158zm-13.939-16.939c-.938 0-1.792.144-2.489.49-1.017.505-1.599 1.414-1.829 2.86-.533 3.338 2.953 5.883 5.078 7.103 6.117 3.512 15.417 4.569 18.877 2.225 2.063-5.374 4.499-14.576 2.623-17.63-.345-.562-.814-.842-1.521-.908-6.536-.615-8.323 7.567-8.396 7.915a1.5 1.5 0 0 1-2.177 1.017c-1.89-1.01-6.621-3.072-10.166-3.072zm20.88 13.622h.01zm8.904 9.591c3.542 4.355-19.072 13.651-20.506 5.567s16.678-10.274 20.506-5.567z" fill="#005E4C"/><path d="M222.498 139.178c-.708 0-1.377-.052-1.991-.163-2.638-.477-4.313-1.991-4.716-4.262-.582-3.281 1.327-6.189 5.238-7.979 5.589-2.558 14.823-2.592 17.909 1.203.897 1.103.948 2.52.139 3.888-2.197 3.721-10.722 7.313-16.579 7.313zm7.376-11.207c-2.508 0-5.277.469-7.597 1.531-1.844.844-3.955 2.35-3.532 4.727.071.401.26 1.465 2.296 1.834 4.71.85 13.767-2.867 15.453-5.723.21-.355.147-.432.117-.47-.968-1.19-3.655-1.899-6.737-1.899zm17.392 65.348c4.995-4.419-7.539-15.12-13.422-9.943-5.884 5.178 7.465 15.213 13.422 9.943z" fill="#005E4C"/><path d="M243.044 196.301c-1.161 0-2.389-.208-3.647-.63-4.206-1.411-7.738-4.817-8.399-8.099-.408-2.02.251-3.91 1.855-5.322 4.125-3.63 10.806-1.198 14.63 3.136 2.933 3.324 3.238 6.878.777 9.056-1.39 1.229-3.199 1.859-5.216 1.859zm4.222-2.982h.01zm-9.568-9.829c-1.062 0-2.053.299-2.864 1.012-.809.712-1.093 1.499-.896 2.477.448 2.222 3.265 4.791 6.413 5.847 1.41.474 4.055 1.02 5.921-.631 1.677-1.483-.371-4.067-1.038-4.824-1.747-1.979-4.862-3.881-7.536-3.881z" fill="#005E4C"/><path d="M435.172 226.121c8.535-15.607-14.788-26.255-28.74-14.831-13.355 10.935-18.809 25.263-13.111 32.337 5.433 6.744 36.096 13.642 43.999 0s-2.708-23.747-9.276-19.705" fill="#3FB19A"/><path d="M418.698 252.984c-11.364 0-23.162-4.215-26.545-8.415-6.403-7.948-.548-23.076 13.329-34.438 9.054-7.414 21.366-6.119 28.038-.584 4.635 3.845 6.088 9.208 4.126 14.726l.103.099c3.675 3.578 6.108 10.966.869 20.009-2.858 4.933-8.608 7.866-16.631 8.481a43.743 43.743 0 0 1-3.289.122zm1.3-44.96c-4.297 0-8.827 1.325-12.616 4.427-12.376 10.134-18.16 23.697-12.893 30.235 2.833 3.517 15.527 8.08 27.269 7.183 4.875-.374 11.308-1.891 14.264-6.994 4.066-7.019 2.764-12.68.229-15.712a1.5 1.5 0 0 1-2.395-1.762l.084-.156c-1.727-.93-3.596-.978-5.11-.046a1.5 1.5 0 0 1-1.572-2.555c2.34-1.44 5.228-1.453 7.815-.18 1.13-4.027-.063-7.784-3.469-10.61-2.869-2.38-7.11-3.83-11.606-3.83z" fill="#005E4C"/><path d="M143.884 174.091c-1.382-11.944-6.367-44.905 19.78-43.768s14.767 48.132 3.215 59.876c-5.8-4.255-15.214-11.58-22.995-16.108z" fill="#37FFB0"/><path d="M166.88 191.699a1.49 1.49 0 0 1-.887-.291 545.541 545.541 0 0 1-3.72-2.761c-5.762-4.297-12.932-9.646-19.143-13.26a1.501 1.501 0 0 1-.736-1.124l-.175-1.48c-1.194-10.01-3.417-28.643 5.484-38.241 3.794-4.092 9.193-6.018 16.026-5.718 7.317.318 12.604 4.092 15.29 10.914 6.14 15.593-2.433 42.732-11.07 51.513a1.497 1.497 0 0 1-1.069.448zm-21.593-18.524c6.199 3.684 13.154 8.871 18.779 13.067.922.687 1.798 1.341 2.617 1.947 7.627-8.981 14.987-33.532 9.545-47.353-2.25-5.716-6.5-8.749-12.628-9.016-5.928-.257-10.528 1.345-13.697 4.761-7.958 8.581-5.76 26.996-4.705 35.845z" fill="#005E4C"/><path d="M210.79 227.405c21.63-11.907 19.617-37.696 10.986-42.77-3.657-2.15-24.309 24.131-22.452 32.088-12.543.378-24.669 3.934-30.354 10.682-5.684 6.749 31.074 16.223 41.82 0z" fill="#3FB19A"/><path d="M189.413 237.867c-1.584 0-3.216-.082-4.888-.25-7.221-.723-15.736-3.333-17.369-7.354-.536-1.32-.299-2.677.667-3.824 5.352-6.353 16.455-10.476 29.899-11.153.381-8.734 14.122-26.381 20.082-30.766 1.285-.945 3.173-2.095 4.732-1.178 4.268 2.509 6.956 9.042 6.848 16.644-.167 11.81-6.721 22.459-17.554 28.557-4.159 5.981-12.32 9.324-22.417 9.324zm31.76-51.843c-1.137.24-5.259 3.517-10.84 10.894-6.34 8.381-10.267 16.385-9.548 19.465a1.5 1.5 0 0 1-1.416 1.84c-13.103.395-24.312 4.284-29.252 10.149-.307.364-.264.561-.182.763.71 1.751 6.28 4.636 14.888 5.498 4.263.427 18.646 1.107 24.715-8.055.134-.202.315-.369.527-.486 10.065-5.541 16.165-15.316 16.318-26.148.091-6.339-1.996-11.894-5.21-13.92z" fill="#005E4C"/><path d="M143.884 174.091c-26.072 0-32.698 6.211-32.135 14.308.958 13.791 49.621 13.29 67.821 6.407 18.2-6.884-27.711-20.715-35.686-20.715z" fill="#3FB19A"/><path d="M145.574 201.022c-12.399 0-24.377-1.667-30.646-5.685-2.917-1.87-4.491-4.169-4.676-6.834-.238-3.435.734-6.348 2.89-8.659 4.553-4.88 14.609-7.253 30.742-7.253 6.449 0 39.777 9.055 41.352 17.669.455 2.487-1.273 4.489-5.135 5.949-7.768 2.938-21.383 4.813-34.527 4.813zm-1.689-25.431c-15.043 0-24.649 2.119-28.548 6.3-1.588 1.702-2.271 3.797-2.09 6.405.116 1.667 1.227 3.186 3.301 4.516 5.279 3.384 16.185 5.274 29.946 5.203 12.55-.071 25.325-1.881 32.546-4.612 1.047-.396 3.458-1.442 3.246-2.604-1.006-5.5-31-15.208-38.401-15.208z" fill="#005E4C"/><path d="M414.008 259.328c5.351-7.837 39.552-24.248 44.099-7.848s-60.322 30.508-55.633 24.045c4.689-6.462 8.389-11.589 11.534-16.197z" fill="#3FB19A"/><path d="M405.764 278.614c-2.72 0-3.981-.513-4.517-1.125-.542-.62-.824-1.692.012-2.844 4.571-6.3 8.32-11.49 11.51-16.162l1.239.846-1.239-.846c4.119-6.033 24.97-17.361 37.55-15.273 4.835.801 8.028 3.523 9.233 7.87 1.456 5.249-2.519 10.453-11.812 15.467-7.133 3.848-17.252 7.456-27.762 9.898-6.905 1.605-11.362 2.169-14.214 2.169zm-1.498-3.005c6.075.601 35.543-5.642 47.916-15.475 3.68-2.925 5.188-5.702 4.48-8.253-.896-3.23-3.131-5.098-6.833-5.712-11.195-1.859-30.777 8.431-34.582 14.005-3.076 4.506-6.657 9.473-10.981 15.435z" fill="#005E4C"/><path d="M400.912 278.932c3.207-4.302 34.26-12.356 34.26 3.075 0 12.256-25.949 12.256-25.949 12.256s12.966 6.014 8.902 15.416c-4.734 10.951-40.005 11.722-47.789 7.017 6.006-7.367 26.91-32.846 30.576-37.764z" fill="#005E4C"/><path d="M387.471 320.946c-7.82 0-14.798-1.083-17.911-2.965a1.5 1.5 0 0 1-.387-2.231l4.349-5.324c8.102-9.911 23.182-28.359 26.187-32.389 2.746-3.684 19.959-8.794 29.757-5.545 4.713 1.564 7.205 4.854 7.205 9.517 0 10.138-14.632 12.805-22.544 13.506 4.207 3.228 8.093 8.469 5.374 14.761-1.426 3.3-5.121 5.923-10.979 7.797-6.209 1.985-13.975 2.872-21.051 2.873zm-14.752-4.795c6.805 2.451 23.953 2.562 34.89-.937 4.927-1.576 8.087-3.696 9.139-6.13 3.444-7.969-8.04-13.406-8.156-13.46a1.5 1.5 0 0 1 .631-2.861c6.8-.004 24.449-1.943 24.449-10.755 0-3.338-1.685-5.52-5.15-6.669-9.088-3.014-24.733 2.246-26.407 4.491-3.045 4.084-17.583 21.869-26.269 32.495zm28.193-37.219h.01zm56.687 48.45c-1.076-2.501 12.413-26.642 23.624-20.849 7.579 3.916 0 16.674 0 16.674s10.989-2.274 7.579 6.821c-3.411 9.094-28.706 3.159-31.203-2.646z" fill="#005E4C"/><path d="M478.227 336.218c-8.478 0-20.046-3.686-22.006-8.243-1.165-2.707 4.901-13.2 10.817-18.713 5.306-4.943 10.449-6.348 14.873-4.061 1.94 1.002 3.224 2.558 3.816 4.624 1.112 3.884-.597 8.725-1.92 11.623 1.99-.033 4.496.363 5.983 2.1 1.405 1.641 1.545 3.999.416 7.008-1.333 3.556-5.245 5.511-11.312 5.655a36.6 36.6 0 0 1-.667.007zm-19.187-9.297c1.477 2.836 11.517 6.478 19.783 6.29 2.707-.064 7.42-.632 8.574-3.71.492-1.312.911-3.072.114-4.003-1.132-1.322-4.519-1.125-5.984-.822a1.501 1.501 0 0 1-1.594-2.234c1.179-1.992 4.001-7.994 2.91-11.794-.361-1.255-1.116-2.165-2.308-2.781-2.403-1.242-5.185-.875-8.269 1.087-7.21 4.588-13.108 15.906-13.226 17.967z" fill="#005E4C"/><path d="M425.331 330.397s-4.739-19.696 4.953-22.348c9.046-2.476 12.666 11.139 12.666 11.139s5.098-7.633 15.33-4.428c10.232 3.206 8.609 12.875.057 12.64s-22.952-.017-33.006 2.997z" fill="#005E4C"/><path d="M425.331 331.897a1.503 1.503 0 0 1-1.459-1.149c-.208-.862-4.954-21.144 6.015-24.146 2.463-.674 4.794-.391 6.934.84 3.521 2.024 5.661 6.199 6.732 8.888 2.526-2.278 7.624-5.367 15.174-3.001 6.353 1.991 8.62 6.333 8.048 9.753-.501 2.999-3.302 5.97-8.481 5.818-7.778-.215-22.353-.118-32.533 2.934a1.507 1.507 0 0 1-.43.063zm7.104-22.65a6.63 6.63 0 0 0-1.756.249c-6.192 1.695-5.34 13.164-4.216 19.026 10.446-2.743 24.34-2.827 31.914-2.62 2.959.08 5.09-1.219 5.439-3.313.357-2.138-1.355-4.945-5.986-6.396-8.984-2.812-13.452 3.562-13.638 3.835a1.5 1.5 0 0 1-2.693-.451c-.019-.071-1.946-7.107-6.18-9.536-.921-.531-1.875-.794-2.884-.794zm63.468 45.592s-3.11-24.831 6.073-24.443c9.183.389 4.636 13.189 9.562 11.905s16.674-.906 15.916 5.916c-.758 6.821-10.206 8.88-15.284 7.705-6.316-1.461-11.586-3.461-16.267-1.083z" fill="#005E4C"/><path d="M515.158 357.731c-1.21 0-2.345-.121-3.325-.348a154.767 154.767 0 0 1-2.97-.727c-4.942-1.243-8.846-2.225-12.28-.48a1.501 1.501 0 0 1-2.168-1.151c-.236-1.885-2.157-18.577 3.014-24.192 1.236-1.342 2.83-2.014 4.611-1.936 6.44.272 7.437 5.798 8.032 9.1.177.981.473 2.621.81 2.902.004-.006.094-.001.278-.05 3.537-.921 11.773-1.236 15.696 2.157 1.603 1.387 2.326 3.246 2.089 5.376-.289 2.602-1.676 4.852-4.011 6.506-2.805 1.988-6.557 2.843-9.776 2.843zm-14.353-5.486c2.815 0 5.752.739 8.79 1.503.946.238 1.917.482 2.914.713 2.867.663 7.587.18 10.692-2.02 1.639-1.161 2.569-2.638 2.764-4.389.128-1.152-.212-2.034-1.07-2.776-2.661-2.301-9.462-2.44-12.976-1.522-1.011.263-1.9.155-2.647-.323-1.431-.914-1.764-2.761-2.15-4.9-.704-3.904-1.447-6.476-5.207-6.635-.907-.037-1.632.27-2.277.971-3.178 3.45-2.952 14.165-2.447 19.861 1.178-.342 2.385-.483 3.614-.483zm-98.574-13.433c-3.634 3.276 28.276 12.466 28.052 1.447-.224-11.018-21.401-7.441-28.052-1.447z" fill="#005E4C"/><path d="M421.808 346.945c-7.725 0-19.141-2.856-21.061-6.406-.541-.999-.356-2.087.479-2.841l1.004 1.114-1.004-1.114c5.241-4.724 18.28-7.952 25.461-4.844 3.264 1.413 5.026 3.962 5.095 7.375.037 1.788-.62 4.977-5.425 6.245-1.219.322-2.789.471-4.549.471zm-18.065-7.447c2.501 2.076 15.234 5.958 22.025 4.027 2.746-.782 3.036-2.221 3.015-3.236-.045-2.212-1.121-3.744-3.288-4.682-5.753-2.49-16.95.092-21.752 3.891zm-.507.428c0 .001 0 .001 0 0z" fill="#005E4C"/><path d="M471.547 386.306c1.67-4.775 21.003-19.52 28.413-9.668s-10.502 17.665-10.502 17.665z" fill="#3FB19A"/><path d="M489.458 395.803c-.208 0-.417-.043-.611-.13l-17.912-7.997a1.5 1.5 0 0 1-.805-1.865c1.328-3.797 11.403-12.399 20.437-13.803 4.561-.708 8.223.58 10.591 3.729 1.917 2.549 2.526 5.221 1.811 7.94-1.872 7.115-12.461 11.805-12.911 12.001a1.49 1.49 0 0 1-.6.125zm-15.797-10.196 15.782 7.046c2.122-1.031 9.343-4.859 10.626-9.744.475-1.811.047-3.567-1.308-5.37-1.685-2.24-4.291-3.102-7.732-2.568-7.045 1.096-14.913 7.348-17.368 10.636z" fill="#005E4C"/><path d="M485.77 391.138s-20.006-10.251-27.435-2.144-15.008 25.187-4.776 27.447 32.211-25.303 32.211-25.303z" fill="#3FB19A"/><path d="M454.755 418.065c-.525 0-1.03-.052-1.519-.159-2.889-.638-4.856-2.372-5.69-5.014-2.297-7.277 4.42-19.167 9.684-24.912 8.106-8.85 28.366 1.382 29.225 1.822a1.5 1.5 0 0 1 .489 2.27c-2.206 2.767-21.062 25.993-32.189 25.993zm12.177-30.668c-3.047 0-5.75.711-7.49 2.61-5.62 6.133-10.712 16.669-9.035 21.982.507 1.605 1.644 2.583 3.477 2.987 7.178 1.589 22.74-15.102 29.524-23.31-4.058-1.845-10.852-4.269-16.476-4.269z" fill="#005E4C"/><path d="M485.77 391.138c-6.341 6.856-5.46 26.122 0 29.458 13.646 8.338 14.311-14.068 10.989-19.373s-10.989-10.085-10.989-10.085z" fill="#3FB19A"/><path d="M491.205 423.948c-1.697 0-3.753-.566-6.217-2.072-3.213-1.963-4.392-7.286-4.808-10.284-.966-6.96.026-16.648 4.489-21.473a1.5 1.5 0 0 1 1.895-.254c.325.203 8.001 5.027 11.467 10.562 2.468 3.941 3.179 16.331-1.828 21.393-1.109 1.123-2.735 2.128-4.998 2.128zm-5.125-30.805c-2.98 4.252-3.758 12.053-2.928 18.037.567 4.083 1.87 7.201 3.4 8.136 4.93 3.012 6.878 1.042 7.518.394 3.73-3.771 3.326-14.644 1.417-17.691-2.368-3.784-7.225-7.377-9.407-8.876z" fill="#005E4C"/><path d="M501.976 401.223c9.374-6.92 26.356-.074 26.055 10.6-.331 11.748-10.808 11.453-14.219 4.618s-7.389-11.571-11.836-15.218z" fill="#3FB19A"/><path d="M520.98 422.695c-3.403 0-6.801-2.158-8.51-5.583-3.078-6.169-6.715-10.849-11.445-14.729a1.5 1.5 0 0 1 .061-2.367c6.058-4.472 14.397-3.534 19.976-.618 5.443 2.844 8.609 7.505 8.469 12.467-.162 5.753-2.728 9.734-6.862 10.647a7.842 7.842 0 0 1-1.689.183zm-16.481-21.279c4.275 3.863 7.772 8.578 10.656 14.355 1.388 2.781 4.272 4.385 6.867 3.811 2.744-.606 4.387-3.45 4.51-7.802.107-3.788-2.458-7.423-6.859-9.724-4.255-2.223-10.344-3.135-15.174-.64z" fill="#005E4C"/><path d="M501.975 402.723c-.303 0-.608-.091-.874-.282-.101-.072-10.149-7.271-15.958-9.94a1.498 1.498 0 0 1-.736-1.989 1.498 1.498 0 0 1 1.989-.736c6.071 2.791 16.034 9.927 16.455 10.229a1.499 1.499 0 0 1-.876 2.718z" fill="#005E4C"/><path d="M304.352 394.303c-1.256-8.307-2.939-32.949 9.85-32.697 12.789.253 9.21 6.922 13.399 6.872 4.19-.05 12.274-17.844 22.885-11.853 10.611 5.992-4.151 32.479-11.423 37.678s-33.899 5.369-34.711 0z" fill="#3FB19A"/><path d="M319.087 399.749c-5.207 0-10.038-.598-12.891-1.805-1.993-.842-3.112-1.992-3.328-3.417-.353-2.33-3.236-22.996 3.92-31.152 1.955-2.227 4.442-3.319 7.442-3.268 8.275.163 10.475 2.875 12.018 5.638.667 1.194.762 1.247 1.334 1.233.766-.015 2.961-2.42 4.415-4.012 4.44-4.862 11.147-12.208 19.226-7.647 2.713 1.532 4.253 4.325 4.453 8.076.587 11.005-10.06 28.066-15.742 32.128-3.923 2.806-12.829 4.226-20.847 4.226zm-13.252-5.67c.026.168.378.615 1.53 1.102 6.346 2.684 25.215 1.913 30.827-2.098 4.964-3.548 15.009-19.799 14.49-29.528-.147-2.752-1.106-4.592-2.933-5.624-5.547-3.131-10.317 1.343-15.535 7.058-2.631 2.882-4.532 4.964-6.594 4.989-2.392-.001-3.33-1.589-3.989-2.771-.985-1.764-2.21-3.958-9.458-4.102-2.054-.041-3.764.694-5.128 2.248-5.097 5.809-4.328 21.33-3.21 28.726zM138.125 255.34a6.38 6.38 0 0 1-2.372-.465c-2.119-.839-3.452-2.662-3.752-5.132-.547-4.49 2.475-10.766 6.597-13.705 2.623-1.87 5.433-2.236 7.913-1.027 3.607 1.757 3.093 7.451 1.088 11.999-1.963 4.454-5.488 8.329-9.474 8.33zm5.37-18.033c-1.004 0-2.06.392-3.156 1.173-3.278 2.337-5.783 7.43-5.361 10.9.168 1.387.783 2.271 1.878 2.706 3.055 1.208 6.288-2.41 7.997-6.287 1.625-3.685 1.782-7.39.344-8.091a3.844 3.844 0 0 0-1.702-.401z" fill="#005E4C"/><path d="M155.723 269.981c0-7.813-29.72-20.107-37.911-13.848-6.095 4.658-.379 14.812 10.611 13.848 10.989-.964 27.3 2.977 27.3 0z" fill="#3FB19A"/><path d="M152.261 272.612c-1.925 0-4.5-.223-7.902-.539-5.157-.479-11.001-1.02-15.805-.599-7.471.659-12.566-3.409-14.139-7.463-1.323-3.412-.37-6.887 2.487-9.071 6.089-4.653 20.362-.38 28.469 3.627 3.564 1.762 11.853 6.4 11.853 11.413 0 .631-.261 1.217-.736 1.649-.783.714-2.114.983-4.227.983zm-19.89-4.288c4.035 0 8.343.399 12.264.763 3.613.335 8.029.745 9.523.41-.479-1.914-3.662-5.048-10.118-8.239-8.896-4.398-21.105-7.153-25.318-3.933-1.806 1.38-2.356 3.422-1.511 5.602 1.18 3.042 5.156 6.081 11.08 5.56a46.862 46.862 0 0 1 4.08-.163z" fill="#005E4C"/><path d="M171.623 282.008c.793-9.935 3.361-19.047-3.246-21.324s-12.654 9.297-12.654 9.297-32.227-2.267-32.984 12.027c-.758 14.294 38.228 15.914 43.579 15.104 5.351-.811 4.753-8.194 5.305-15.104z" fill="#3FB19A"/><path d="M162.636 298.779c-9.223 0-29.876-1.854-37.913-9.144-2.463-2.234-3.635-4.827-3.482-7.707.151-2.841 1.376-5.296 3.642-7.299 7.698-6.804 25.597-6.409 29.99-6.198 1.661-2.832 7.361-11.454 13.993-9.165 6.542 2.255 5.691 9.71 4.791 17.604-.195 1.708-.396 3.474-.539 5.257a125.37 125.37 0 0 0-.2 3.225c-.323 6.085-.657 12.377-6.376 13.243-.752.114-2.114.184-3.906.184zm-11.609-27.426c-6.638 0-18.713.709-24.159 5.524-1.663 1.47-2.523 3.174-2.631 5.209-.104 1.962.714 3.704 2.501 5.325 8.566 7.771 35.282 8.832 39.355 8.216 3.08-.466 3.501-4.254 3.83-10.437.058-1.095.117-2.205.205-3.304.146-1.834.351-3.626.548-5.359.917-8.034 1.272-13.029-2.788-14.428-4.4-1.517-9.316 5.675-10.836 8.575a1.497 1.497 0 0 1-1.434.801c-.061-.002-1.869-.122-4.591-.122z" fill="#005E4C"/><path d="M241.145 260.387c-7.907-8.44-39.251-9.124-36.018 12.571-11.64 13.182 11.872 25.996 32.799 24.324 14.817-1.184 24.736-7.177 20.338-13.711-4.4-6.535-12.842-18.619-17.119-23.184z" fill="#3FB19A"/><path d="M234.214 298.928c-14.162 0-28.488-6.021-32.505-14.057-1.451-2.901-2.266-7.364 1.842-12.375-.899-7.546 2.191-13.423 8.753-16.596 8.271-3.998 23.708-3.186 29.935 3.462 5.303 5.66 16.058 21.575 17.267 23.372 1.486 2.208 1.712 4.535.654 6.73-2.334 4.841-10.809 8.41-22.116 9.313-1.269.102-2.55.151-3.83.151zm-9.885-42.528c-3.755 0-7.549.668-10.719 2.201-3.875 1.874-8.235 5.847-7 14.136a1.5 1.5 0 0 1-.359 1.214c-2.816 3.189-3.441 6.412-1.858 9.579 3.823 7.646 19.436 13.372 33.413 12.257 11.478-.917 18.141-4.491 19.653-7.626.586-1.215.442-2.442-.44-3.753-4.337-6.443-12.792-18.538-16.968-22.996-2.812-3.001-9.208-5.012-15.722-5.012zM100.381 130.294c-9.074 3.424 3.032 22.643 3.032 22.643s-7.626-2.776-6.087 5.305 24.633 5.065 25.402 2.783-10.221-35.307-22.347-30.731z" fill="#005E4C"/><path d="M109.943 165.009c-.922 0-1.782-.027-2.539-.079-8.652-.593-11.058-3.812-11.552-6.407-.566-2.971-.088-5.128 1.42-6.411.962-.819 2.152-1.101 3.26-1.134-2.409-4.393-6.349-12.8-4.577-18.077.639-1.902 1.986-3.288 3.896-4.009 2.401-.907 6.199-1.08 10.667 3.231 7.897 7.619 14.584 26.555 13.631 29.382-.848 2.516-8.648 3.504-14.206 3.504zm-9.193-11.031c-.602 0-1.174.109-1.537.42-.606.519-.753 1.784-.414 3.562.241 1.266 1.384 2.27 3.396 2.982 6.083 2.154 16.885.557 19.057-.576-.355-3.487-6.62-21.668-14.324-27.373-2.148-1.591-4.118-2.015-6.018-1.298-1.083.409-1.754 1.094-2.111 2.156-1.605 4.778 3.702 14.819 5.883 18.285a1.5 1.5 0 0 1-1.783 2.208 7.123 7.123 0 0 0-2.149-.366zm-.369-23.684h.01z" fill="#005E4C"/><path d="M94.318 283.796c-6.177-8.236-27.663-7.958-27.284 16.295s5.305 27.965 15.158 27.056c9.852-.909 17.81-35.772 12.126-43.351z" fill="#3FB19A"/><path d="M79.781 328.77c-2.735 0-5.709-.529-8.09-2.667-4.088-3.67-5.93-11.443-6.157-25.989-.082-5.264.939-17.922 12.17-21.763 6.534-2.236 14.194-.281 17.814 4.545 4.287 5.716 1.698 23.933-3.303 35.204-2.032 4.58-5.397 10.126-9.886 10.541-.805.074-1.664.129-2.548.129zm3.523-48.334c-1.56 0-3.137.243-4.629.753-3.877 1.326-10.349 5.542-10.141 18.878.21 13.446 1.802 20.787 5.162 23.803 1.808 1.624 4.305 2.156 8.358 1.783 2.337-.216 5.042-3.412 7.419-8.77 5.02-11.312 6.893-27.857 3.645-32.188-2.027-2.702-5.863-4.259-9.814-4.259z" fill="#005E4C"/><path d="M28.381 300.47c-1.234-8.636 36.992-7.236 38.648 4.694s-8.337 10.085-19.324 5.158c-10.987-4.926-18.566-4.547-19.324-9.852z" fill="#3FB19A"/><path d="M60.945 315.639c-3.417 0-7.963-1.307-13.854-3.948-3.782-1.696-7.091-2.73-10.011-3.644-5.549-1.735-9.559-2.989-10.184-7.366-.162-1.13.037-2.783 1.898-4.24 5.142-4.023 21.149-4.004 31.143.037 5.129 2.075 8.095 5.007 8.578 8.479.611 4.405-.239 7.509-2.529 9.226-1.29.969-2.955 1.456-5.041 1.456zm-18.471-19.217c-5.295 0-9.879.854-11.831 2.381-.886.694-.81 1.227-.778 1.454.343 2.402 2.734 3.246 8.109 4.927 2.851.892 6.399 2.001 10.343 3.77 10.16 4.555 14.237 4.054 15.867 2.83 1.351-1.013 1.808-3.171 1.357-6.414-.412-2.967-3.888-4.96-6.731-6.11-4.831-1.955-10.951-2.838-16.336-2.838z" fill="#005E4C"/><path d="M234.729 333.26c-13.389 3.088-25.768 21.954-11.116 30.643 14.653 8.689 40.756-5.494 35.999-20.111s-16.578-12.448-24.883-10.532z" fill="#3FB19A"/><path d="M234.017 368.055c-3.931 0-7.79-.859-11.168-2.862-5.539-3.284-8.084-8.338-7.168-14.23 1.321-8.492 9.715-17.088 18.712-19.164 7.44-1.718 21.294-4.912 26.646 11.529 1.973 6.06-.587 12.49-7.022 17.642-5.138 4.111-12.69 7.084-20 7.085zm10.347-34.664c-2.975 0-6.143.602-9.298 1.33-7.772 1.792-15.292 9.441-16.421 16.702-.726 4.665 1.257 8.534 5.734 11.189 6.345 3.763 18.231 3.645 27.762-3.985 5.406-4.328 7.609-9.566 6.045-14.372-2.763-8.488-7.911-10.864-13.822-10.864zm-9.635-.131h.01z" fill="#005E4C"/><path d="M254.182 324.844c-8.195-15.22-24.505-22.679-40.421-12.068-11.681 7.787 0 13.696 11.09 20.484 13.33 8.159 34.636 1.436 29.331-8.416z" fill="#3FB19A"/><path d="M239.106 338.354c-5.483 0-11.071-1.387-15.038-3.815-.793-.485-1.589-.966-2.38-1.444-7.6-4.591-14.164-8.556-14.279-13.727-.062-2.759 1.744-5.323 5.52-7.84 7.153-4.769 14.845-6.314 22.243-4.47 8.175 2.039 15.586 8.263 20.331 17.075 1.776 3.299 1.174 6.725-1.652 9.399-3.532 3.342-9.083 4.822-14.745 4.822zm-10.044-29.049c-4.862 0-9.781 1.592-14.47 4.718-2.813 1.875-4.221 3.651-4.185 5.277.079 3.522 6.562 7.439 12.831 11.226.795.48 1.597.964 2.395 1.453 8.574 5.248 21.318 3.948 26.155-.627 1.844-1.745 2.204-3.695 1.072-5.798-4.346-8.07-11.058-13.751-18.416-15.586a22.229 22.229 0 0 0-5.382-.663z" fill="#005E4C"/><path d="M196.202 344.033c-1.291 0-2.603-.247-3.904-.755-3.557-1.39-4.464-3.904-4.599-5.769-.387-5.36 5.417-12.545 10.869-15.642 3.927-2.23 6.274-1.635 7.552-.743 4.365 3.049 3.807 10.142 1.065 15.269-2.625 4.908-6.686 7.64-10.983 7.64zm7.232-20.699c-.872 0-2.07.395-3.385 1.142-4.568 2.595-9.651 8.759-9.358 12.817.108 1.5.966 2.514 2.699 3.191 5.003 1.954 9.041-1.563 11.149-5.506 2.163-4.043 2.702-9.411-.137-11.394-.241-.168-.571-.25-.968-.25zM481.349 3.125C478.57-.92 464.194 2.033 464.194 18.28c-5.41-3.537-13.022-2.493-12.297 5.305.822 8.842 13.64 8.919 24.303 8.111-.58-3.558-5.209-9.88-5.209-9.88s14.07-13.289 10.358-18.691z" fill="#005E4C"/><path d="M468.669 33.55c-7.971 0-17.494-1.524-18.266-9.825-.441-4.752 1.887-6.904 3.314-7.764 2.437-1.467 5.875-1.467 9.083-.115.81-8.952 6.063-13.755 11.004-15.29 3.747-1.163 7.274-.472 8.78 1.719 1.947 2.835.658 7.253-3.832 13.132-2.166 2.836-4.529 5.311-5.801 6.587 1.409 2.049 4.238 6.456 4.728 9.461a1.498 1.498 0 0 1-1.367 1.737c-1.996.152-4.715.358-7.643.358zm-10.611-15.711c-1.054 0-2.02.226-2.792.691-1.826 1.1-2.028 3.281-1.875 4.917.519 5.576 6.968 7.722 20.849 6.881-1.063-2.687-3.452-6.249-4.459-7.624a1.502 1.502 0 0 1 .18-1.977c5.453-5.155 12.208-13.76 10.152-16.752-.622-.905-2.819-1.361-5.418-.553-4.352 1.351-9.001 5.964-9.001 14.859a1.5 1.5 0 0 1-2.321 1.255c-1.701-1.113-3.622-1.697-5.315-1.697z" fill="#005E4C"/><path d="M137.897 396.688c-1.269-2.746-20.084-40.892-5.684-42.408s12.876 22.323 19.89 21.204c7.015-1.12 23.447-26.004 34.557-10.341s-8.216 41.432-16.553 45.6c-8.337 4.169-27.759-4.421-32.21-14.055z" fill="#3FB19A"/><path d="M164.733 413.312c-2.908 0-6.257-.625-9.796-1.866-7.052-2.472-15.477-7.8-18.401-14.129l-.269-.569c-6.769-14.267-13.939-32.874-9.658-40.501 1.125-2.006 3.009-3.201 5.447-3.458 9.598-1.015 12.951 7.844 15.4 14.31 1.397 3.689 2.723 7.186 4.412 6.904 1.725-.275 4.857-2.925 7.887-5.488 5.695-4.817 12.776-10.811 19.624-9.947 3.25.412 6.112 2.332 8.507 5.708 3.682 5.191 4.581 11.696 2.67 19.333-3.244 12.969-13.879 25.528-19.776 28.477-1.642.819-3.701 1.226-6.047 1.226zm-31.244-57.601c-.36 0-.733.02-1.119.061-1.49.157-2.489.774-3.145 1.943-2.768 4.932.878 19.043 9.752 37.747l.282.597c2.213 4.791 8.913 9.837 16.67 12.557 5.552 1.946 10.603 2.241 13.508.787 5.267-2.633 15.214-14.554 18.208-26.521 1.688-6.749.945-12.425-2.208-16.87-1.915-2.7-4.021-4.161-6.437-4.467-5.532-.707-12.063 4.823-17.309 9.261-3.8 3.214-6.801 5.753-9.352 6.16-4.111.654-5.848-3.94-7.69-8.805-2.662-7.029-5.212-12.45-11.16-12.45z" fill="#005E4C"/><path d="M79.539 359.965s-9.095-32.587-17.432-26.904 3.411 26.904 3.411 26.904z" fill="#3FB19A"/><path d="M79.539 361.465H65.517a1.5 1.5 0 0 1-1.312-.773c-.123-.222-3.032-5.507-4.95-11.597-2.736-8.688-2.061-14.5 2.007-17.273 1.432-.977 3.03-1.184 4.622-.604 7.78 2.842 14.374 25.742 15.1 28.344a1.498 1.498 0 0 1-1.445 1.903zm-13.127-3h11.129c-2.802-9.314-8.227-22.801-12.687-24.429-.683-.25-1.269-.167-1.903.264-5.65 3.852.243 18.064 3.461 24.165z" fill="#005E4C"/><path d="M48.844 371.858c-4.547-9.241 16.674-11.893 16.674-11.893h14.021s-24.216 25.058-30.695 11.893z" fill="#3FB19A"/><path d="M54.758 377.177a8.89 8.89 0 0 1-1.377-.104c-2.619-.411-4.598-1.942-5.882-4.553-1.034-2.1-1.052-4.188-.054-6.038 3.243-6.013 16.398-7.819 17.887-8.005.062-.008.124-.012.186-.012h14.021a1.5 1.5 0 0 1 1.079 2.542c-.667.689-15.749 16.169-25.86 16.17zm10.855-15.712c-3.694.478-13.417 2.522-15.528 6.442-.54 1.001-.506 2.046.105 3.289.84 1.706 2.035 2.659 3.655 2.914 5.993.939 16.296-7.304 22.015-12.645z" fill="#005E4C"/><path d="M125.772 380.034a1.5 1.5 0 0 1-1.301-.752c-4.856-8.432-30.927-17.817-44.932-17.817a1.5 1.5 0 1 1 0-3c13.714 0 41.604 9.03 47.531 19.32a1.499 1.499 0 0 1-1.298 2.249z" fill="#005E4C"/><path d="M151.16 396.688c-3.917-5.094-17.811-17.627-26.526-8.796-8.716 8.831-2.274 34.22 6.821 38.389s24.631-23.186 19.705-29.593z" fill="#3FB19A"/><path d="M133.476 428.219c-.922 0-1.807-.19-2.647-.575-5.699-2.612-9.7-11.702-11.138-19.551-1.676-9.153-.228-17.099 3.875-21.255 2.5-2.533 5.552-3.706 9.097-3.488 8.685.537 17.339 9.372 19.686 12.424 3.863 5.023-2.039 17.894-7.594 24.869-3.963 4.976-7.871 7.576-11.279 7.576zm-1.638-41.895c-2.386 0-4.399.861-6.137 2.622-3.415 3.46-4.558 10.416-3.058 18.607 1.534 8.38 5.415 15.521 9.437 17.364 2.493 1.146 6.355-1.153 10.329-6.142 6.008-7.544 9.825-18.229 7.562-21.172-2.681-3.486-10.483-10.825-17.493-11.258a9.24 9.24 0 0 0-.64-.021z" fill="#005E4C"/><path d="M73.944 396.488c-1.848 16.014 6.352 17.749 18.478 17.686 27.051-.141 55.336-31.851 33.347-35.641-5.262-34.305-48.414-11.603-51.825 17.955z" fill="#3FB19A"/><path d="M91.718 415.676c-6.03 0-12.608-.459-16.322-4.604-2.768-3.09-3.73-7.917-2.941-14.755 1.059-9.172 5.788-18.215 13.316-25.465 7.037-6.775 15.643-10.902 23.022-11.04 9.651-.157 16.23 6.166 18.287 17.453 7.483 1.687 8.259 6.486 8.028 9.276-1.003 12.096-22.695 29.03-42.676 29.134l-.714.001zm-16.284-19.017c-.685 5.937.033 9.997 2.195 12.41 2.725 3.041 7.875 3.646 14.785 3.604 8.664-.045 18.441-3.565 26.825-9.657 7.427-5.397 12.482-11.962 12.877-16.725.279-3.365-1.942-5.478-6.601-6.281a1.5 1.5 0 0 1-1.228-1.25c-1.602-10.442-7.117-16.142-15.44-15.95-13.393.25-31.285 15.405-33.413 33.849z" fill="#005E4C"/><path d="M103.662 389.241a1.5 1.5 0 0 1-1.119-2.499c6.549-7.335 19.012-11.083 23.669-9.642a1.5 1.5 0 1 1-.884 2.866c-3.373-1.038-14.756 2.289-20.547 8.774a1.494 1.494 0 0 1-1.119.501zm142.211 22.07h-.004a1.498 1.498 0 0 1-1.496-1.498c0-.561.158-13.899 13.87-27.848a1.501 1.501 0 0 1 2.14 2.104c-12.798 13.017-13.009 25.622-13.01 25.748a1.501 1.501 0 0 1-1.5 1.494z" fill="#005E4C"/><path d="M258.955 384.824c4.313-3.497 17.893 15.588 10.565 20.943-7.329 5.355-16.453-16.168-10.565-20.943z" fill="#3FB19A"/><path d="M267.089 408.118c-2.215 0-4.53-1.396-6.601-4.085-4.272-5.548-7.196-16.548-2.478-20.374.615-.499 1.958-1.208 4.046-.368 4.677 1.882 10.229 10.09 10.999 16.264.519 4.156-1.155 6.331-2.651 7.423-1.046.765-2.167 1.14-3.315 1.14zm-7.189-22.129c-2.684 2.176-1.076 10.965 2.965 16.214 1.477 1.917 3.676 3.883 5.77 2.354 1.229-.898 1.715-2.456 1.444-4.63-.676-5.416-5.807-12.51-9.143-13.853-.284-.115-.798-.278-1.036-.085z" fill="#005E4C"/><path d="M245.873 409.813c-13.913-7.463-34.082 4.363-32.016 14.573 3.033 14.983 33.888-10.528 32.016-14.573z" fill="#3FB19A"/><path d="M219.36 430.554a8.471 8.471 0 0 1-2.06-.239c-1.813-.456-4.138-1.802-4.913-5.632-.885-4.371 1.654-9.26 6.791-13.077 6.705-4.983 18.141-8.085 27.404-3.115.287.154.516.396.652.692.627 1.355-.037 3.099-2.151 5.652-4.804 5.8-17.482 15.719-25.723 15.719zm16.756-21.598c-5.675 0-11.282 2.184-15.149 5.058-4.179 3.106-6.287 6.872-5.639 10.074.522 2.58 1.946 3.644 4.626 3.445 8.63-.637 22.853-13.19 24.37-16.82-2.62-1.23-5.422-1.757-8.208-1.757zm8.339 1.263s0 .001 0 0z" fill="#005E4C"/><path d="M245.873 409.813s4.46 4.031 3.055 24.625c-1.137 16.656-9.137 23.035-12.884 24.297-3.369 1.135-4.084-29.788 9.829-48.922z" fill="#3FB19A"/><path d="M235.856 460.269c-.677 0-1.319-.349-1.797-.999-3.201-4.358-2.417-32.435 10.601-50.339a1.5 1.5 0 0 1 2.219-.231c.512.462 4.96 5.117 3.545 25.84-1.154 16.915-9.282 24.061-13.902 25.616a2.057 2.057 0 0 1-.666.113zm.625-2.77h.01zm9.281-44.882c-11.009 16.861-11.148 40.334-9.526 44.429 3.79-1.734 10.208-8.237 11.196-22.71.882-12.935-.604-19.083-1.67-21.719zm124.574-95.921c.36-7.385 3.139-30.192 10.971-37.862s12.977 7.102 9.773 12.979-20.744 24.883-20.744 24.883z" fill="#005E4C"/><path d="M370.336 318.197a1.5 1.5 0 0 1-1.498-1.574c.014-.291 1.69-29.333 11.419-38.861 4.182-4.096 7.568-2.32 8.83-1.366 4.086 3.09 5.818 11.535 3.31 16.135-3.256 5.971-20.237 24.4-20.958 25.182a1.5 1.5 0 0 1-1.103.484zm15.29-40.023c-.812 0-1.897.388-3.27 1.732-5.979 5.855-9.148 22.311-10.187 32.55 5.106-5.652 15.296-17.148 17.593-21.36 1.768-3.243.375-10.143-2.485-12.306-.267-.203-.813-.616-1.651-.616z" fill="#005E4C"/><path d="M327.814 177.015c-1.256-17.749-42.718-26.026-48.809-3.454-2.529 9.374 21.344 28.325 41.593 23.947s22.993-18.607 0-22.233" fill="#3FB19A"/><path d="M314.396 199.651c-12.037 0-24.421-6.451-31.546-13.946-4.357-4.583-6.236-9.035-5.292-12.535 2.188-8.106 10.326-16.207 26.572-14.635 11.278 1.092 23.614 7.514 25.071 17.371 7.921 3.015 9.067 7.463 9.126 9.568.167 5.878-6.668 11.177-17.412 13.5a30.845 30.845 0 0 1-6.519.677zm-13.892-38.293c-8.566 0-17.532 3.26-20.05 12.593-.642 2.379 1.066 6 4.57 9.686 7.847 8.255 22.477 15.167 35.257 12.404 7.345-1.588 15.187-5.546 15.047-10.483-.066-2.327-2.284-5.112-7.903-7.093a1.49 1.49 0 0 1-.207-.072c-1.893-.651-4.163-1.212-6.854-1.637a1.5 1.5 0 0 1 .467-2.963c1.869.295 3.539.648 5.032 1.046-1.925-5.948-9.644-12.12-22.023-13.318a34.662 34.662 0 0 0-3.336-.163z" fill="#005E4C"/><path d="M172.381 672.58a1.5 1.5 0 0 1-1.5-1.5v-51.045c0-36.135 39.994-46.982 47.519-48.7l.463-23.151c-5.77-3.166-38.849-23.083-50.694-69.106-8.979-.721-27.986-9.394-34.124-33.095-3.133-12.097-3.243-29.572 1.995-37.877 1.648-2.614 3.727-4.181 6.178-4.658a1.502 1.502 0 0 1 .572 2.946c-1.606.312-3.023 1.427-4.212 3.312-4.742 7.518-4.537 24.294-1.628 35.525 5.986 23.117 24.757 30.897 32.4 30.897a1.5 1.5 0 0 1 1.456 1.139c12.32 49.708 49.854 68.491 50.232 68.675.525.256.854.794.843 1.378l-.505 25.263a1.5 1.5 0 0 1-1.232 1.446c-.463.084-46.263 8.835-46.263 46.005v51.045a1.5 1.5 0 0 1-1.5 1.501zm87.802-346.978c-5.29 1.16-28.991 22.474-20.401 28.542 8.589 6.068 40.204-31.789 40.204-31.789" fill="#3FB19A"/><path d="M241.887 356.242c-1.124 0-2.123-.274-2.971-.873-1.456-1.028-3.038-3.011-2.309-6.613 1.888-9.33 18.724-23.625 23.255-24.619a1.5 1.5 0 0 1 .643 2.931c-3.581.785-19.354 14.358-20.957 22.283-.443 2.189.416 3.085 1.1 3.568 3.097 2.188 16.992-6.146 38.187-31.525a1.5 1.5 0 0 1 2.303 1.923c-4.931 5.903-28.111 32.923-39.251 32.925z" fill="#005E4C"/></svg></g><g transform="translate(899.9999999999999 1571.5384615384614) rotate(0.0 605.7692307692307 357.6923076923076) scale(2.311686020493427 2.310823100279783)"><svg width="524.093" height="309.58" viewBox="0 0 524.093 309.58"><path d="M390.834 85.216h-74.751a1.5 1.5 0 1 1 0-3h74.751a1.5 1.5 0 1 1 0 3z" fill="#005E4C"/><path d="M407.788 54.537H23.535c-10.557 0-11.368 49.263 0 49.263h372.126c-12.884-11.747-.378-39.789 12.127-49.263z" fill="#fff"/><path d="M395.662 105.3H23.535c-2.307 0-5.506-1.476-7.64-8.507-1.344-4.429-2.084-10.446-2.084-16.941 0-9.959 2.048-26.815 9.725-26.815h384.252a1.5 1.5 0 0 1 .906 2.695c-7.688 5.824-16.346 20.043-16.929 32.861-.279 6.131 1.372 10.875 4.908 14.098a1.501 1.501 0 0 1-1.011 2.609zM23.535 56.037c-3.645 0-6.725 10.906-6.725 23.815 0 6.208.694 11.916 1.956 16.07.723 2.382 2.304 6.378 4.769 6.378h368.796c-2.59-3.61-3.814-8.326-3.563-13.843.546-11.998 7.733-25.158 15.041-32.42z" fill="#005E4C"/><path d="M23.535 103.8h145.536l35.398-49.263H23.535c-10.556 0-11.368 49.263 0 49.263z" fill="#3FB19A"/><path d="M395.662 105.3H23.535c-2.307 0-5.506-1.476-7.64-8.507-1.344-4.429-2.084-10.446-2.084-16.941 0-9.959 2.048-26.815 9.725-26.815h384.252a1.5 1.5 0 0 1 .906 2.695c-7.688 5.824-16.346 20.043-16.929 32.861-.279 6.131 1.372 10.875 4.908 14.098a1.501 1.501 0 0 1-1.011 2.609zM23.535 56.037c-3.645 0-6.725 10.906-6.725 23.815 0 6.208.694 11.916 1.956 16.07.723 2.382 2.304 6.378 4.769 6.378h368.796c-2.59-3.61-3.814-8.326-3.563-13.843.546-11.998 7.733-25.158 15.041-32.42z" fill="#005E4C"/><path d="M394.013 74.984H286.525a1.5 1.5 0 1 1 0-3h107.488a1.5 1.5 0 1 1 0 3z" fill="#005E4C"/><path d="M27.325 54.537H447.78c9.095 0 1.313-51.537-6.265-51.537H19.746z" fill="#3FB19A"/><g fill="#005E4C"><path d="M447.779 56.037H27.325a1.5 1.5 0 0 1-1.484-1.282L18.262 3.218a1.502 1.502 0 0 1 1.484-1.719h421.769c7.387 0 11.872 28.098 11.872 40.455-.001 9.345-1.887 14.083-5.608 14.083zm-419.159-3h419.159c.901 0 2.606-2.316 2.606-11.082 0-7.359-1.231-16.876-3.214-24.836-2.565-10.3-5.005-12.619-5.657-12.619H21.483z"/><path d="M447.779 57.537H23.535a3 3 0 1 1 0-6h423.927c.699-.976 2.059-5.485 1.09-16.755-1.29-15.003-5.222-26.996-7.385-28.782H16.714a3 3 0 1 1 0-6h424.8c2.589 0 6.445 1.662 10.024 16.031 2.065 8.291 3.348 18.224 3.348 25.924 0 4.114-.363 7.43-1.078 9.855-1.469 4.983-4.408 5.727-6.029 5.727z"/><path d="M386.188 28.06H204.672a1.5 1.5 0 1 1 0-3h181.516a1.5 1.5 0 1 1 0 3zm-235.705-7.363H22.326a1.5 1.5 0 1 1 0-3h128.157a1.5 1.5 0 1 1 0 3zm3.862 9.572H23.535a1.5 1.5 0 1 1 0-3h130.81a1.5 1.5 0 1 1 0 3zM447.78 56.037c-.418 0-.835-.174-1.131-.515-4.245-4.873-11.096-45.863-6.404-53.321a1.5 1.5 0 0 1 2.539 1.597c-3.638 5.783 2.299 45.358 6.126 49.752a1.5 1.5 0 0 1-.146 2.116 1.484 1.484 0 0 1-.984.371z"/></g><path d="M23.535 271.845h394.826c10.624 0 19.237-8.613 19.237-19.237v-53.246c0-10.624-8.613-19.237-19.237-19.237H23.535c13.263 34.111 0 91.72 0 91.72z" fill="#3FB19A"/><path d="M418.361 273.345H23.535a1.5 1.5 0 0 1-1.462-1.837c.033-.144 3.318-14.549 4.945-32.905 1.495-16.858 1.861-40.594-4.881-57.935a1.5 1.5 0 0 1 1.398-2.043h394.826c11.435 0 20.737 9.302 20.737 20.737v53.246c0 11.435-9.302 20.737-20.737 20.737zm-392.961-3h392.961c9.78 0 17.737-7.957 17.737-17.737v-53.246c0-9.78-7.957-17.737-17.737-17.737H25.688c10.943 31.201 1.845 78.661-.288 88.72z" fill="#005E4C"/><path d="m253.177 180.125-60.632 91.72H23.535s13.642-66.397 0-91.72z" fill="#005E4C"/><path d="M192.546 273.345H23.535a1.503 1.503 0 0 1-1.47-1.802c.135-.659 13.376-66.153.148-90.707a1.5 1.5 0 0 1 1.321-2.211h229.642a1.498 1.498 0 0 1 1.251 2.328l-60.632 91.72a1.496 1.496 0 0 1-1.249.672zm-167.19-3h166.383l58.649-88.72H25.94c4.93 11.053 6.345 29.19 4.206 53.985-1.371 15.89-3.87 29.892-4.79 34.735zm371.064-41.892H277.935a1.5 1.5 0 1 1 0-3H396.42a1.5 1.5 0 1 1 0 3z" fill="#005E4C"/><path d="M494.188 183.125H15.311c-4.418 0-6.658-4.175-6.658-12.409 0-8.958 2.552-24.178 6.827-40.713 7.035-27.211 9.815-27.211 11.845-27.211h493.768a3 3 0 1 1 0 6H28.627c-1.91 3.56-6.414 17.426-10.027 33.99-5.299 24.286-4.071 32.817-3.031 34.343h478.62a3 3 0 1 1-.001 6z" fill="#005E4C"/><path d="M502.525 105.792h-475.2c-3.789 0-23.762 74.333-12.015 74.333h460.309z" fill="#3FB19A"/><path d="M475.619 181.625H15.311c-5.158 0-5.158-8.211-5.158-10.909 0-8.838 2.534-23.918 6.779-40.337 6.744-26.087 9.395-26.087 10.393-26.087h475.2a1.499 1.499 0 0 1 1.411 2.011l-26.905 74.333c-.216.594-.78.989-1.412.989zM27.778 107.292c-3.647 4.7-18.399 58.179-13.803 69.936.546 1.398 1.12 1.398 1.335 1.398h459.256l25.819-71.333H27.778z" fill="#005E4C"/><path d="M431.662 117.539H22.428c-4.125 11.297-18.219 62.586-7.117 62.586H374.82z" fill="#005E4C"/><path d="M374.819 181.625H15.311c-1.556 0-2.876-.71-3.816-2.054-6.468-9.248 6.299-53.713 9.524-62.546a1.5 1.5 0 0 1 1.409-.985h409.234a1.5 1.5 0 0 1 1.111 2.508l-56.842 62.586a1.508 1.508 0 0 1-1.112.491zM23.486 119.039c-4.594 13.159-14.469 51.754-9.532 58.812.379.542.785.774 1.357.774h358.845l54.118-59.586z" fill="#005E4C"/><path d="M477.893 119.039h-51.916a1.5 1.5 0 1 1 0-3h51.916a1.5 1.5 0 1 1 0 3zm11.217 25.42h-51.512a1.5 1.5 0 1 1 0-3h51.512a1.5 1.5 0 1 1 0 3zm-4.747 13.009h-21.009a1.5 1.5 0 1 1 0-3h21.009a1.5 1.5 0 1 1 0 3z" fill="#005E4C"/><path d="M417.514 144.459H204.469a1.5 1.5 0 1 1 0-3h213.045a1.5 1.5 0 1 1 0 3zm2.779 13.009H300.546a1.5 1.5 0 1 1 0-3h119.748a1.5 1.5 0 1 1-.001 3z" fill="#3FB19A"/><path d="M449.725 306.08H14.5c-6.075 0-11-4.925-11-11v-12.235c0-6.075 4.925-11 11-11h435.225" fill="#fff"/><path d="M449.725 309.58H14.5c-7.995 0-14.5-6.505-14.5-14.5v-12.235c0-7.995 6.505-14.5 14.5-14.5h435.225a3.5 3.5 0 1 1 0 7H14.5c-4.136 0-7.5 3.364-7.5 7.5v12.235c0 4.136 3.364 7.5 7.5 7.5h435.225a3.5 3.5 0 1 1 0 7z" fill="#005E4C"/><path d="M439.24 288.808h-67.832a1.5 1.5 0 1 1 0-3h67.832a1.5 1.5 0 1 1 0 3zm-6.189 8.905h-43.958a1.5 1.5 0 1 1 0-3h43.958a1.5 1.5 0 1 1 0 3zm-97.516-25.868-18.379 34.235H14.5c-6.075 0-11-4.925-11-11v-12.235c0-6.075 4.925-11 11-11z" fill="#005E4C"/><path d="M317.156 307.58H14.5c-6.893 0-12.5-5.607-12.5-12.5v-12.235c0-6.893 5.607-12.5 12.5-12.5h321.035a1.5 1.5 0 0 1 1.322 2.209l-18.379 34.235a1.5 1.5 0 0 1-1.322.791zM14.5 273.345c-5.238 0-9.5 4.262-9.5 9.5v12.235c0 5.238 4.262 9.5 9.5 9.5h301.759l16.768-31.235zm367.519-66.397H227.914a1.5 1.5 0 1 1 0-3h154.105a1.5 1.5 0 1 1 0 3z" fill="#005E4C"/></svg></g><g transform="translate(2148.461538461538 2019.230769230769) rotate(0.0 255.0 211.1538461538462) scale(4.5822102425876015 4.625494986940771)"><svg width="111.3" height="91.3" viewBox="0 0 111.3 91.3"><path d="M71.8 69.1c-1.3 0-2.5-.9-2.9-2.2-.4-1.6.5-3.3 2.1-3.7.3-.1 33.6-9.7 33.6-27.9 0-2.8-.9-4.8-2.8-6.2-1.7-1.3-4.2-2-7.1-2-6.2 0-12 3.2-12 6.6 0 1.7-1.3 3-3 3s-3-1.3-3-3c0-7.8 9.3-12.6 18-12.6 4.2 0 7.9 1.1 10.7 3.2 3.4 2.5 5.2 6.3 5.2 11 0 22.7-36.5 33.2-38 33.6-.3.2-.6.2-.8.2z" fill="#fff"/><path d="M71.8 69.9c-1.7 0-3.2-1.1-3.6-2.7-.6-2 .6-4.1 2.6-4.6.3-.1 33.1-9.5 33.1-27.1 0-2.5-.8-4.3-2.5-5.6-1.6-1.2-3.9-1.8-6.7-1.8-6.2 0-11.2 3.2-11.2 5.8 0 2.1-1.7 3.8-3.8 3.8S76 35.9 76 33.8c0-8.2 9.7-13.3 18.7-13.3 4.4 0 8.2 1.2 11.2 3.3 3.6 2.7 5.5 6.7 5.5 11.6 0 23.3-37 33.9-38.5 34.4-.4 0-.8.1-1.1.1zm22.9-43.4c3 0 5.7.8 7.6 2.1 2.1 1.5 3.1 3.8 3.1 6.8 0 18.7-33.8 28.5-34.2 28.6-1.2.3-1.9 1.6-1.6 2.8s1.6 1.9 2.8 1.6c1.5-.4 37.5-10.7 37.5-32.9 0-4.4-1.7-8-4.9-10.4-2.7-2-6.2-3-10.3-3-8.3 0-17.2 4.5-17.2 11.8 0 1.2 1 2.2 2.2 2.2s2.2-1 2.2-2.2c.1-3.9 6.2-7.4 12.8-7.4z" fill="#005e4c"/><path d="M85.6 15.1c0-8-19-14.4-42.4-14.4S.8 7.2.8 15.1c0 38.6 15.4 62.7 20.2 68 3.4 3.7 11.6 7.4 22.2 7.4s18.8-3.8 22.2-7.4c4.8-5.2 20.2-29.4 20.2-68z" fill="#fff"/><g fill="#005e4c"><path d="M43.2 91.3c-10.8 0-19.2-3.9-22.7-7.7C14.8 77.4 0 53 0 15.1 0 6.7 19 0 43.2 0s43.2 6.7 43.2 15.1c0 38.1-14.8 62.4-20.4 68.5-3.7 3.9-12.1 7.7-22.8 7.7zm0-89.8C20.6 1.5 1.5 7.8 1.5 15.1c0 44.4 19.8 67.3 20 67.5 3.3 3.6 11.2 7.2 21.6 7.2 10.3 0 18.3-3.6 21.6-7.2 5.2-5.6 20-30 20-67.5h.8-.8c.1-7.3-19-13.6-41.5-13.6z"/><path d="M43.4 27.3C22 27.3 5.1 21.9 5.1 15.1S22 2.8 43.4 2.8 81.7 8.2 81.7 15c0 6.9-16.8 12.3-38.3 12.3zm0-23C21.4 4.3 6.6 9.8 6.6 15s14.8 10.7 36.8 10.7S80.2 20.2 80.2 15c0-5.1-14.8-10.7-36.8-10.7z"/><path d="M11.4 21c6.6 3.3 18.5 5.5 32 5.5s25.4-2.2 32-5.5c-6.6-3.6-18.5-6-32-6s-25.4 2.5-32 6z"/></g></svg></g><g transform="translate(946.1538461538461 2303.076923076923) rotate(0.0 616.153846153846 321.9230769230769) scale(4.719677105736085 4.72027972027972)"><svg width="261.1" height="136.4" viewBox="0 0 261.1 136.4"><path d="M142.4 135.5c-.1 0-.2 0-.4-.1-7.8-4.3-51.4-17.9-67.3-21.8C57.5 109.3 6 92.3 1.3 88.3c-.2-.1-.3-.4-.3-.6s.2-.5.4-.6c7.5-4.6 84.1-55.6 99.4-65.8.1-.1.3-.2.5-.2 3.8.1 30.8 6.1 59.9 13.7 34.2 8.9 57.6 16.3 64.1 20.3.2.1.3.3.4.6 0 .2-.1.5-.2.6-1.7 1.6-4.8 4.4-9.4 8.5-19.9 17.8-61.3 54.7-72.9 70.4-.3.2-.5.3-.8.3z" fill="#fff"/><path d="M142.7 136.4c-.1 0-.3 0-.4-.1-5.5-3.6-51-18-67.7-22-8.1-2-26.6-7.7-42.9-13.2C.4 90.5.1 88.6 0 87.8c-.1-.4.2-.8.6-1.1 4-2.2 99-65.6 100-66.2.1-.1.2-.1.4-.1h.1c6.1 0 112.1 24.8 125.5 34.7.2.1.3.3.3.6s-.1.4-.2.6c-1.4 1.3-5.1 4.6-10.1 9.2-20.2 18-62.2 55.6-73.2 70.8-.3 0-.5.1-.7.1zM1.7 87.8c4.6 3.9 55.8 20.8 73.2 25.1 16.3 4 59.8 17.7 67.5 21.9 11.7-15.7 53-52.6 73-70.5 4.4-3.9 7.7-6.9 9.4-8.5-6.5-4-29.5-11.3-63.9-20.2-29.1-7.6-56-13.6-59.7-13.7-5.9 3.9-91.6 61-99.5 65.9z" fill="#005e4c"/><path d="M85.5 36.6c13 8.8 67.1 36.7 71 38.6 21.8-7 99.5-46.1 103.9-48-14-6.1-76.8-25.5-80.4-26.5C169.3 4.1 90.2 35 85.5 36.6z" fill="#37ffb0"/><g fill="#005e4c"><path d="M156.5 75.9c-.1 0-.2 0-.3-.1-3.6-1.7-57.8-29.6-71.1-38.6-.2-.2-.4-.4-.3-.7s.2-.5.5-.6c1.6-.6 11.8-4.5 24.8-9.5C136.4 16.2 172.6 2.3 179.7 0h.4c4.3 1.1 66.7 20.4 80.6 26.5.3.1.5.4.5.7s-.2.6-.5.7c-1 .4-6 2.9-13 6.3-24.1 11.8-74.1 36.3-91 41.7h-.2zM87.1 36.8c14.5 9.4 64.2 35 69.4 37.6 17-5.6 66.6-29.8 90.5-41.5 5.3-2.6 9.3-4.6 11.5-5.6-16.2-6.6-73-24.2-78.6-25.7-7.5 2.4-44.7 16.8-69.4 26.3-10.9 4.1-19.9 7.6-23.4 8.9z"/><path d="M167.2 59.9c-.2 0-.4-.1-.6-.3-3.8-4.6-7.8-10.5-5.5-12.9 2-2 11.3-1.2 21.6-.2l1.1.1c.9.1 1.5-.1 1.8-.4.3-.4.3-.9.1-1.3-.4-1.3-.9-2.6-1.6-3.9-.7-.2-1.3-.4-1.9-.6-.3-.1-.7-.2-1-.3-3.7-1.2-6.4-5.4-5.9-7.2.2-.6.8-1.2 2-.9 2.2.6 5.5 3.9 7.8 7.7 2.1.6 4 .7 5.4-.6 1.5-1.5 1.4-4 1.3-6.4v-1.2c0-1.8.5-4.5 2-6 .8-.8 1.8-1.2 2.8-1.2 1.2 0 2.3.6 3.3 1.1 1.1.6 2.1 1.1 3 .8 1-.3 1.5-1.4 2-2.7.4-.8.7-1.7 1.3-2.5 2.3-2.9 6.7-2.2 9.8-1.4.4.1.6.5.5.9s-.5.6-.9.5c-2.7-.7-6.4-1.4-8.2.9-.5.6-.8 1.3-1.1 2.1-.6 1.4-1.3 3-3 3.5-1.5.5-2.9-.3-4.1-.9-.9-.5-1.8-.9-2.6-.9-.7 0-1.3.3-1.8.8-1 1-1.6 3-1.6 4.9v1.2c.1 2.6.2 5.6-1.8 7.6-1.5 1.5-3.5 1.6-5.5 1.3.5 1 .9 2 1.2 3s.1 2-.4 2.7c-.5.5-1.4 1.1-3.1 1l-1.1-.1c-5.6-.6-18.8-1.9-20.4-.2-.9.9.4 4.7 5.5 10.9.3.3.2.8-.1 1.1 0-.1-.1 0-.3 0zm9.7-26.5c0 .2.1.5.3 1.1.7 1.5 2.5 3.4 4.6 4.1.3.1.7.2 1 .3.1 0 .2.1.2.1-2-2.9-4.5-5.2-6-5.6h-.1zm38.8 1.9c-.1 0-.2 0-.3-.1-.4-.2-.6-.6-.4-1 1.5-3.7 4.5-6.6 8.2-8.2.4-.2.8 0 1 .4s0 .8-.4 1c-3.3 1.4-6 4-7.3 7.4-.2.4-.5.5-.8.5z"/></g></svg></g><g transform="translate(85.38461538461537 1319.9999999999998) rotate(0.0 985.3846153846154 661.1538461538461) scale(3.7921577821827195 3.8061001223531656)"><svg width="519.696" height="347.418" viewBox="0 0 519.696 347.418"><path d="M102.574 297.382a9.952 9.952 0 0 1-9.949-6.726L1.004 21.967c-.737-2.161.196-4.396 1.971-5.493.651-.403 6.498-3.977 6.498-3.977l44.462 1.188z" fill="#005E4C"/><path d="M102.048 298.146c-4.54 0-8.655-2.915-10.133-7.247L.294 22.209a5.407 5.407 0 0 1 2.287-6.374c.652-.403 6.501-3.979 6.501-3.979a.696.696 0 0 1 .411-.11l44.462 1.188a.75.75 0 0 1 .719.623l48.639 283.697a.753.753 0 0 1-.699.876c-.189.01-.378.015-.566.015zM9.674 13.252c-1.008.616-5.725 3.5-6.306 3.859a3.913 3.913 0 0 0-1.655 4.613l91.622 268.689c1.231 3.61 4.592 6.075 8.351 6.224L53.3 14.418 9.675 13.252z" fill="#005E4C"/><path d="m319.666 203.165-217.382 93.366L7.336 18.087c-1.004-2.946 1.095-6.032 4.204-6.181L245.289.758a7.015 7.015 0 0 1 6.974 4.743z" fill="#3FB19A"/><path d="M102.284 297.281a.752.752 0 0 1-.71-.507L6.626 18.329c-.555-1.629-.319-3.38.649-4.803s2.509-2.287 4.229-2.369L245.254.009c3.429-.163 6.609 1.995 7.719 5.25l67.403 197.664a.75.75 0 0 1-.414.931L102.58 297.22a.74.74 0 0 1-.296.061zM245.62 1.5c-.098 0-.197.002-.295.007L11.575 12.656c-1.244.06-2.359.684-3.06 1.714s-.872 2.296-.47 3.475l94.687 277.677 216-92.772L251.553 5.743A6.296 6.296 0 0 0 245.62 1.5z" fill="#005E4C"/><path d="M317.065 205.469 99.714 288.992s2.698 7.913 3.237 9.252c.197.49.43 1.014 1.064 1.124l272.127 47.071a15.586 15.586 0 0 0 12.667-3.412l129.298-108.368a2.293 2.293 0 0 0 .835-1.912c-.053-.922-.014-7.479-.004-9.084a.384.384 0 0 0-.351-.385L317.251 205.44a.385.385 0 0 0-.186.03z" fill="#005E4C"/><path d="M378.809 347.419a16.42 16.42 0 0 1-2.796-.24l-272.127-47.071c-1.07-.185-1.436-1.094-1.632-1.583-.54-1.342-3.14-8.966-3.25-9.29a.75.75 0 0 1 .441-.942l217.341-83.519c.168-.069.354-.097.534-.081l201.333 17.838c.595.054 1.04.543 1.035 1.138-.012 1.898-.048 8.162.002 9.036a3.04 3.04 0 0 1-1.102 2.529L389.29 343.602a16.297 16.297 0 0 1-10.481 3.817zm-278.152-57.985c.667 1.948 2.557 7.456 2.989 8.532.199.494.301.63.496.664l272.127 47.071a14.794 14.794 0 0 0 12.057-3.248l129.298-108.368a1.538 1.538 0 0 0 .568-1.293c-.049-.855-.023-6.191-.007-8.796l-200.917-17.801-216.612 83.239zm216.706-83.276h-.002zm-.298-.688h.01z" fill="#005E4C"/><path d="m317.154 195.799-217.44 93.194 276.604 47.845a15.2 15.2 0 0 0 12.354-3.328l129.435-108.483c1.565-1.311.815-3.857-1.21-4.112z" fill="#3FB19A"/><path d="M378.919 337.811c-.907 0-1.82-.077-2.729-.234L99.586 289.732a.751.751 0 0 1-.167-1.429l217.44-93.193a.751.751 0 0 1 .389-.055l199.742 25.116a3.05 3.05 0 0 1 2.577 2.192 3.046 3.046 0 0 1-.979 3.239L389.152 334.085a15.914 15.914 0 0 1-10.234 3.727zm-276.584-49.126 274.11 47.414a14.421 14.421 0 0 0 11.744-3.163l129.436-108.483a1.547 1.547 0 0 0 .503-1.666 1.547 1.547 0 0 0-1.326-1.127l-199.54-25.09-214.927 92.116z" fill="#005E4C"/><path d="m272.115 308.973 148.27-91.032-105.624-13.717-181.912 81.03zm140.164-10.531a.675.675 0 0 1-.119-.01l-80.39-12.934a.751.751 0 0 1-.285-1.372l71.521-45.807a.738.738 0 0 1 .512-.111l69.704 10.095a.75.75 0 0 1 .361 1.328l-60.834 48.647a.75.75 0 0 1-.468.164zm-78.331-14.113 78.122 12.569 59.224-47.359-67.715-9.807-69.63 44.597z" fill="#005E4C"/><path d="m248.404 8.675 61.448 180.202a2.339 2.339 0 0 1-1.29 2.903l-202.105 86.892a4.676 4.676 0 0 1-6.273-2.787L12.765 19.52a2.338 2.338 0 0 1 2.102-3.09L243.755 5.513a4.676 4.676 0 0 1 4.649 3.162z" fill="#37FFB0"/><path d="m52.042 134.703 48.143 141.182a4.677 4.677 0 0 0 6.273 2.787l136.005-58.473z" fill="#fff"/><path d="M104.611 279.801a5.42 5.42 0 0 1-5.136-3.674L12.055 19.762c-.316-.928-.181-1.924.37-2.734s1.428-1.301 2.407-1.348L243.719 4.764c2.381-.13 4.618 1.394 5.395 3.669l61.448 180.202a3.103 3.103 0 0 1-1.703 3.834l-202.105 86.892a5.434 5.434 0 0 1-2.144.44zM243.975 6.258c-.061 0-.123.001-.185.004L14.903 17.179c-.503.024-.955.277-1.238.693s-.353.929-.19 1.406l87.419 256.364a3.884 3.884 0 0 0 2.122 2.321 3.88 3.88 0 0 0 3.145.019l202.105-86.892a1.597 1.597 0 0 0 .876-1.972L247.694 8.917a3.95 3.95 0 0 0-3.719-2.66z" fill="#005E4C"/><g fill="#3FB19A"><path d="M272.116 309.723a.688.688 0 0 1-.127-.011l-139.267-23.72a.75.75 0 1 1 .252-1.478l139.267 23.72a.75.75 0 0 1-.125 1.489zm16.474-10.114a.761.761 0 0 1-.125-.01l-135.528-22.608a.75.75 0 1 1 .247-1.479l135.528 22.608a.75.75 0 0 1-.123 1.489zm16.475-10.115a.726.726 0 0 1-.122-.01l-131.791-21.497a.75.75 0 1 1 .241-1.481l131.791 21.497a.75.75 0 0 1-.119 1.49zm16.475-10.115a.805.805 0 0 1-.119-.009l-128.052-20.385a.75.75 0 0 1 .235-1.481l128.052 20.385a.75.75 0 0 1-.117 1.49zm-8.389-13.969a.765.765 0 0 1-.116-.009l-99.451-15.419a.749.749 0 1 1 .23-1.482l99.451 15.419a.749.749 0 0 1-.114 1.491zm16.879-9.944a.724.724 0 0 1-.113-.008l-96.118-14.479a.75.75 0 0 1 .224-1.484l96.118 14.479a.75.75 0 0 1-.111 1.492zm17.565-9.841a.667.667 0 0 1-.109-.008l-93.471-13.641a.75.75 0 0 1 .217-1.485l93.471 13.641a.75.75 0 0 1-.107 1.493zm39.842-6.704a.74.74 0 0 1-.105-.007l-113.1-15.94a.75.75 0 0 1 .209-1.485l113.1 15.94a.75.75 0 0 1-.104 1.493zm16.475-10.115a.71.71 0 0 1-.102-.007l-21.873-2.966a.751.751 0 0 1 .201-1.487l21.873 2.966a.751.751 0 0 1-.099 1.493zm-43.745-5.932a.71.71 0 0 1-.102-.007l-65.617-8.897a.751.751 0 0 1 .201-1.487l65.617 8.897a.751.751 0 0 1-.099 1.493zm60.219-4.183a.818.818 0 0 1-.098-.006l-105.624-13.717a.75.75 0 0 1 .193-1.487l105.624 13.717a.75.75 0 0 1-.096 1.493z"/><path d="M132.849 286.004a.75.75 0 0 1-.306-1.435l181.913-81.03a.75.75 0 1 1 .61 1.37l-181.913 81.03a.75.75 0 0 1-.305.065zm27.854 4.743a.75.75 0 0 1-.322-1.428l175.184-83.03a.749.749 0 1 1 .643 1.355l-175.184 83.03a.75.75 0 0 1-.321.072zm27.853 4.744a.749.749 0 0 1-.338-1.419l168.456-85.031a.749.749 0 1 1 .675 1.339l-168.456 85.031a.743.743 0 0 1-.337.081zm27.853 4.745a.75.75 0 0 1-.356-1.411l161.727-87.031a.75.75 0 1 1 .711 1.321l-161.727 87.031a.745.745 0 0 1-.355.089zm27.853 4.743a.75.75 0 0 1-.374-1.4l154.999-89.032a.75.75 0 0 1 .747 1.301L244.635 304.88a.754.754 0 0 1-.373.1zm27.854 4.744a.751.751 0 0 1-.393-1.389l148.27-91.032a.75.75 0 0 1 .785 1.279l-148.27 91.032a.75.75 0 0 1-.392.111z"/></g></svg></g><g transform="translate(13.846153846153845 6.9230769230769225) rotate(0.0 1376.5384615384614 1496.5384615384612) scale(2.294230769230769 2.3023668639053247)"><svg width="1200" height="1300" viewBox="0 0 1200 1300"><g><g><g><path style="fill:#3fb19a" d="M599.793 574.373c-.416 0-.829-.171-1.125-.507l-14.932-16.918a1.5 1.5 0 0 1 2.249-1.985l14.932 16.918a1.5 1.5 0 0 1-1.124 2.492zM422.355 257.201a1.5 1.5 0 0 1-1.32-.785 30.303 30.303 0 0 1-3.252-19.25 1.5 1.5 0 1 1 2.961.485 27.276 27.276 0 0 0 2.928 17.334 1.5 1.5 0 0 1-1.317 2.216zm10.459-.123a1.5 1.5 0 0 1-1.344-.833 23.95 23.95 0 0 1-2.451-12.126 1.5 1.5 0 1 1 2.994.186 20.936 20.936 0 0 0 2.144 10.604 1.5 1.5 0 0 1-1.343 2.169zm42.518 95.44c-6.157 0-12.312-2.499-16.542-7.059a1.5 1.5 0 1 1 2.2-2.04c5.18 5.583 14.085 7.615 21.173 4.832a1.502 1.502 0 0 1 1.097 2.793 21.703 21.703 0 0 1-7.928 1.474zm320.001 33.031a1.5 1.5 0 0 1-1.498-1.443c-.077-2.021-1.076-4.051-2.74-5.57-1.665-1.519-3.788-2.325-5.797-2.22a1.494 1.494 0 0 1-1.578-1.418 1.5 1.5 0 0 1 1.418-1.578c2.823-.15 5.725.944 7.979 3 2.254 2.057 3.608 4.853 3.716 7.672a1.5 1.5 0 0 1-1.442 1.556l-.058.001zm8.011-7.921a1.5 1.5 0 0 1-1.305-.758 22.803 22.803 0 0 0-7.25-7.727 1.5 1.5 0 0 1 1.649-2.507 25.807 25.807 0 0 1 8.208 8.749 1.5 1.5 0 0 1-1.302 2.243z"/><path style="fill:#005e4c" d="M804.762 248.404a1.5 1.5 0 0 1-.674-2.841 27.92 27.92 0 0 0 10.461-9.114 1.5 1.5 0 0 1 2.472 1.7 30.926 30.926 0 0 1-11.588 10.095 1.48 1.48 0 0 1-.671.16zM602.585 60.281a1.501 1.501 0 0 1-1.427-1.039l-3.989-12.318a1.5 1.5 0 0 1 2.854-.924l3.989 12.318a1.5 1.5 0 0 1-1.427 1.963zm7.566-7.831a1.5 1.5 0 0 1-1.5-1.5v-6.821a1.5 1.5 0 1 1 3 0v6.821a1.5 1.5 0 0 1-1.5 1.5zm226.371-23.737a1.5 1.5 0 0 1-1.069-2.552l9.022-9.166a1.5 1.5 0 1 1 2.138 2.104l-9.022 9.166a1.491 1.491 0 0 1-1.069.448zm-131.171 164.48a1.498 1.498 0 0 1-1.191-2.411l13.807-18.063a1.5 1.5 0 0 1 2.384 1.822l-13.807 18.063a1.496 1.496 0 0 1-1.193.589zm93.486 8.057a1.5 1.5 0 0 1-.336-2.962l14.778-3.415a1.5 1.5 0 1 1 .675 2.923l-14.778 3.415a1.527 1.527 0 0 1-.339.039zm-303.534-13.527a1.5 1.5 0 0 1-1.376-2.096 41.708 41.708 0 0 0 3.37-14.253 1.51 1.51 0 0 1 1.582-1.414 1.5 1.5 0 0 1 1.414 1.582 44.69 44.69 0 0 1-3.611 15.276 1.503 1.503 0 0 1-1.379.905zm75.869 108.207c-1.472 0-2.94-.085-4.389-.255a1.5 1.5 0 0 1-1.315-1.665 1.509 1.509 0 0 1 1.665-1.315c4.345.512 8.877.185 13.104-.941a1.499 1.499 0 1 1 .772 2.898 38.352 38.352 0 0 1-9.837 1.278zm6.011-10.427h-14.779a1.5 1.5 0 1 1 0-3h14.779a1.5 1.5 0 1 1 0 3zm19.191-18.195-.059-.001a1.5 1.5 0 0 1-1.441-1.557 22.442 22.442 0 0 1 5.09-13.344 1.5 1.5 0 0 1 2.314 1.91 19.42 19.42 0 0 0-4.406 11.55 1.5 1.5 0 0 1-1.498 1.442zM483.261 126.499a1.5 1.5 0 0 1-1.463-1.177c-1.207-5.468-5.377-10.266-10.625-12.223a1.5 1.5 0 0 1 1.049-2.811c6.176 2.304 11.085 7.951 12.506 14.387a1.5 1.5 0 0 1-1.467 1.824zm5.261-8.118a1.5 1.5 0 0 1-1.304-.757l-4.542-7.961a1.5 1.5 0 1 1 2.606-1.486l4.542 7.961a1.5 1.5 0 0 1-1.302 2.243zm204.921 566.845a1.5 1.5 0 0 1-1.322-2.206l20.341-38.111a1.499 1.499 0 1 1 2.646 1.412l-20.341 38.111c-.27.506-.788.794-1.324.794zm-4.841-33.658a1.5 1.5 0 0 1-1.457-1.859 30.838 30.838 0 0 1 5.949-11.971 1.5 1.5 0 1 1 2.331 1.889 27.82 27.82 0 0 0-5.367 10.799 1.501 1.501 0 0 1-1.456 1.142zm-100.129 20.409a1.5 1.5 0 0 1-1.246-2.334 120.71 120.71 0 0 1 13.933-17.176 1.5 1.5 0 0 1 2.146 2.096 117.745 117.745 0 0 0-13.586 16.748 1.493 1.493 0 0 1-1.247.666z"/><path style="fill:#37ffb0" d="M528.263 180.901a1.501 1.501 0 0 1-1.424-1.973 24.526 24.526 0 0 0 .102-15.002 1.5 1.5 0 0 1 2.861-.905 27.546 27.546 0 0 1-.115 16.852 1.5 1.5 0 0 1-1.424 1.028zm-3.292 180.004a1.5 1.5 0 0 1-.33-2.963 89.88 89.88 0 0 1 25.381-2.056c.827.05 1.456.762 1.405 1.589a1.496 1.496 0 0 1-1.589 1.405 86.945 86.945 0 0 0-24.535 1.988 1.508 1.508 0 0 1-.332.037zm16.976 13.283a1.501 1.501 0 0 1-.66-2.848 13.785 13.785 0 0 1 7.657-1.278 1.5 1.5 0 0 1-.369 2.977 10.76 10.76 0 0 0-5.972.996 1.493 1.493 0 0 1-.656.153z"/><path style="fill:#005e4c" d="M440.759 647.021c-.308 0-.619-.094-.886-.291l-15.769-11.569a1.5 1.5 0 0 1 1.775-2.419l15.769 11.569a1.5 1.5 0 0 1-.889 2.71z"/><path style="fill:#3fb19a" d="M523.291 461.787c-.406 0-.811-.164-1.107-.487l-6.884-7.521a1.5 1.5 0 1 1 2.213-2.025l6.884 7.521a1.498 1.498 0 0 1-1.106 2.512zm-12.203-2.201a1.5 1.5 0 0 1-1.101-.48l-9.463-10.214a1.5 1.5 0 0 1 2.201-2.039l9.462 10.214a1.5 1.5 0 0 1-1.099 2.519zm26.61-34.193c-.448 0-.891-.2-1.187-.582l-4.64-5.991a1.5 1.5 0 0 1 2.372-1.836l4.64 5.991a1.5 1.5 0 0 1-1.185 2.418z"/><path style="fill:#005e4c" d="M697.644 553.482a1.5 1.5 0 0 1-.827-.249 22.506 22.506 0 0 0-13.458-3.684 1.5 1.5 0 1 1-.152-2.996 25.533 25.533 0 0 1 15.265 4.178 1.501 1.501 0 0 1-.828 2.751zM750.5 425.471a1.5 1.5 0 0 1-1.309-.765c-4.644-8.257-12.936-14.426-22.179-16.5a1.5 1.5 0 1 1 .657-2.927c10.06 2.257 19.083 8.97 24.137 17.956a1.5 1.5 0 0 1-1.306 2.236zm-4.179 11.922a1.5 1.5 0 0 1-1.321-.787 58.376 58.376 0 0 0-10.505-13.934 1.5 1.5 0 1 1 2.099-2.143 61.372 61.372 0 0 1 11.045 14.65 1.5 1.5 0 0 1-1.318 2.214zm-46.363 125.124c-.368 0-.737-.135-1.027-.407a20.498 20.498 0 0 0-9.171-4.969 1.5 1.5 0 0 1 .709-2.915 23.512 23.512 0 0 1 10.516 5.697 1.5 1.5 0 0 1-1.027 2.594z"/></g><path style="fill:#005e4c" d="M418.379 644.397a1.49 1.49 0 0 1-.752-.204l-14.506-8.428a1.499 1.499 0 1 1 1.507-2.593l14.506 8.428a1.499 1.499 0 0 1-.755 2.797zm-177.958 403.747a1.5 1.5 0 0 1-1.336-2.182c1.826-3.58 5.229-6.357 9.102-7.429a1.5 1.5 0 1 1 .8 2.892c-3.076.851-5.779 3.057-7.229 5.9-.265.52-.791.819-1.337.819zm11.495 1.187a1.499 1.499 0 0 1-1.206-2.39 20.383 20.383 0 0 1 9.933-7.197 1.499 1.499 0 1 1 .941 2.849 17.361 17.361 0 0 0-8.459 6.128 1.5 1.5 0 0 1-1.209.61zm309.287-5.637h-21.6a1.5 1.5 0 1 1 0-3h21.6a1.5 1.5 0 1 1 0 3zm70.452 62.454a1.5 1.5 0 0 1-.613-2.869l14.857-6.646c.756-.339 1.644 0 1.981.757.338.756 0 1.644-.757 1.981l-14.857 6.646a1.503 1.503 0 0 1-.611.131zm15.941 1.188a1.501 1.501 0 0 1-.354-2.958 27.703 27.703 0 0 0 10.807-5.344 1.5 1.5 0 0 1 1.887 2.333 30.728 30.728 0 0 1-11.984 5.926 1.554 1.554 0 0 1-.356.043zm159.071-136.578a1.5 1.5 0 0 1-.71-2.823l12.553-6.731a1.5 1.5 0 1 1 1.418 2.644l-12.553 6.731a1.486 1.486 0 0 1-.708.179zm177.429 60.612a1.49 1.49 0 0 1-.115-.004c-6.985-.531-13.717-4.496-17.567-10.349a1.498 1.498 0 0 1 .429-2.077 1.498 1.498 0 0 1 2.077.429c3.351 5.093 9.209 8.544 15.289 9.006a1.5 1.5 0 0 1-.113 2.995zm6.828-6.973c-.11 0-.221-.012-.333-.038a16.976 16.976 0 0 1-7.449-3.805 1.5 1.5 0 0 1 1.982-2.252 13.953 13.953 0 0 0 6.129 3.131 1.5 1.5 0 0 1-.329 2.964zm75.99-73.924h-10.048a1.5 1.5 0 1 1 0-3h10.048a1.5 1.5 0 1 1 0 3zm-510.269 262.668c-.099 0-.198-.01-.299-.03a179.1 179.1 0 0 0-32.681-3.522 1.5 1.5 0 0 1-1.477-1.523c.013-.828.719-1.454 1.523-1.477a182.261 182.261 0 0 1 33.23 3.582 1.5 1.5 0 0 1-.296 2.97zm13.656-11.45c-.042 0-.084-.001-.127-.005l-14.77-1.241a1.499 1.499 0 0 1-1.369-1.62 1.491 1.491 0 0 1 1.62-1.369l14.77 1.241a1.499 1.499 0 0 1-.124 2.994zm169.145 2.123a1.5 1.5 0 0 1-1.21-2.384 46.96 46.96 0 0 1 12.028-11.503 1.5 1.5 0 1 1 1.658 2.5 43.985 43.985 0 0 0-11.263 10.771 1.5 1.5 0 0 1-1.213.616zm-318.065-89.709c-.052 0-.104-.002-.157-.008l-34.091-3.552a1.499 1.499 0 1 1 .311-2.983l34.091 3.552a1.499 1.499 0 0 1-.154 2.991zm-69.357-5.611h-9.095a1.5 1.5 0 1 1 0-3h9.095a1.5 1.5 0 1 1 0 3zm445.348-212.827a1.5 1.5 0 0 1-1.163-2.446c4.607-5.668 11.023-9.856 18.068-11.792a1.5 1.5 0 0 1 .795 2.893c-6.447 1.771-12.319 5.604-16.535 10.791a1.496 1.496 0 0 1-1.165.554zm20.844 13.955a1.5 1.5 0 0 1-1.135-2.48l6.847-7.936a1.5 1.5 0 0 1 2.272 1.96l-6.847 7.936a1.5 1.5 0 0 1-1.137.52z"/><path style="fill:#3fb19a" d="M595.308 886.81a1.5 1.5 0 0 1-1.121-2.496 78.765 78.765 0 0 1 16.225-13.907 1.5 1.5 0 1 1 1.625 2.521 75.746 75.746 0 0 0-15.606 13.377 1.5 1.5 0 0 1-1.123.505z"/><path style="fill:#fff" d="M982.934 918.442a1.5 1.5 0 0 1-.259-2.978l20.429-3.604a1.5 1.5 0 0 1 .522 2.954l-20.429 3.604a1.384 1.384 0 0 1-.263.024zm-605.91-14.564c-.251 0-.506-.063-.74-.197a416.021 416.021 0 0 0-44.09-21.724 1.498 1.498 0 0 1-.8-1.964 1.498 1.498 0 0 1 1.964-.8 419.159 419.159 0 0 1 44.409 21.881 1.5 1.5 0 0 1-.743 2.804zm12.464-5.605c-.237 0-.478-.057-.701-.175l-14.829-7.864a1.5 1.5 0 0 1 1.405-2.651l14.829 7.864a1.5 1.5 0 0 1-.704 2.826z"/><path style="fill:#005e4c" d="M392.949 608.284c-.226 0-.455-.051-.67-.159l-4.547-2.274a1.5 1.5 0 0 1 1.342-2.684l4.547 2.274a1.5 1.5 0 0 1-.672 2.843z"/></g></g></svg></g></svg>